<?xml version="1.0" encoding="UTF-8" standalone="no"?>
<!DOCTYPE svg PUBLIC "-//W3C//DTD SVG 1.1//EN"
 "http://www.w3.org/Graphics/SVG/1.1/DTD/svg11.dtd">
<!-- Generated by graphviz version 2.43.0 (0)
 -->
<!-- Title: template Pages: 1 -->
<svg width="1994pt" height="914pt"
 viewBox="0.00 0.00 1994.40 914.00" xmlns="http://www.w3.org/2000/svg" xmlns:xlink="http://www.w3.org/1999/xlink">
<g id="graph0" class="graph" transform="scale(1 1) rotate(0) translate(4 910)">
<title>template</title>
<polygon fill="white" stroke="transparent" points="-4,4 -4,-910 1990.4,-910 1990.4,4 -4,4"/>
<g id="clust1" class="cluster">
<title>cluster_0</title>
<polygon fill="dimgray" stroke="black" points="8,-8 8,-898 1978.4,-898 1978.4,-8 8,-8"/>
</g>
<g id="clust2" class="cluster">
<title>cluster_net_0</title>
<polygon fill="white" stroke="black" points="147.14,-92 147.14,-732 1970.4,-732 1970.4,-92 147.14,-92"/>
</g>
<g id="clust3" class="cluster">
<title>cluster_1</title>
<polygon fill="yellow" stroke="black" points="1423.02,-100 1423.02,-544 1685.49,-544 1685.49,-100 1423.02,-100"/>
</g>
<g id="clust4" class="cluster">
<title>cluster_2</title>
<polygon fill="yellow" stroke="black" points="843.42,-112 843.42,-724 1088.42,-724 1088.42,-112 843.42,-112"/>
</g>
<g id="clust5" class="cluster">
<title>cluster_3</title>
<polygon fill="yellow" stroke="black" points="321.73,-190 321.73,-550 559.73,-550 559.73,-190 321.73,-190"/>
</g>
<!-- n0_condition -->
<g id="node1" class="node">
<title>n0_condition</title>
<polygon fill="white" stroke="black" points="27.57,-724 27.57,-760 107.57,-760 107.57,-724 27.57,-724"/>
<text text-anchor="middle" x="67.57" y="-738.3" font-family="Times,serif" font-size="14.00">template</text>
</g>
<!-- n0_port_0 -->
<g id="node2" class="node">
<title>n0_port_0</title>
<polygon fill="white" stroke="black" points="542.75,-867.33 440.73,-890.43 338.7,-867.33 338.8,-829.96 542.66,-829.96 542.75,-867.33"/>
<text text-anchor="middle" x="440.73" y="-860.8" font-family="Times,serif" font-size="14.00">base_filename</text>
<text text-anchor="middle" x="440.73" y="-845.8" font-family="Times,serif" font-size="14.00">string</text>
</g>
<!-- n0_place_1 -->
<g id="node7" class="node">
<title>n0_place_1</title>
<ellipse fill="white" stroke="black" cx="701.57" cy="-662" rx="113.69" ry="26.74"/>
<text text-anchor="middle" x="701.57" y="-665.8" font-family="Times,serif" font-size="14.00">place_base_filename</text>
<text text-anchor="middle" x="701.57" y="-650.8" font-family="Times,serif" font-size="14.00">string</text>
</g>
<!-- n0_port_0&#45;&gt;n0_place_1 -->
<g id="edge14" class="edge">
<title>n0_port_0&#45;&gt;n0_place_1</title>
<path fill="none" stroke="black" stroke-dasharray="1,5" d="M532.52,-829.86C542.03,-825.52 551.3,-820.58 559.73,-815 611.97,-780.44 658.1,-722.45 682.4,-688.66"/>
</g>
<!-- n0_port_1 -->
<g id="node3" class="node">
<title>n0_port_1</title>
<polygon fill="white" stroke="black" points="537.02,-783.33 440.73,-806.43 344.44,-783.33 344.53,-745.96 536.93,-745.96 537.02,-783.33"/>
<text text-anchor="middle" x="440.73" y="-776.8" font-family="Times,serif" font-size="14.00">library_name</text>
<text text-anchor="middle" x="440.73" y="-761.8" font-family="Times,serif" font-size="14.00">string</text>
</g>
<!-- n0_place_4 -->
<g id="node10" class="node">
<title>n0_place_4</title>
<ellipse fill="white" stroke="black" cx="701.57" cy="-566" rx="109.7" ry="26.74"/>
<text text-anchor="middle" x="701.57" y="-569.8" font-family="Times,serif" font-size="14.00">place_library_name</text>
<text text-anchor="middle" x="701.57" y="-554.8" font-family="Times,serif" font-size="14.00">string</text>
</g>
<!-- n0_port_1&#45;&gt;n0_place_4 -->
<g id="edge15" class="edge">
<title>n0_port_1&#45;&gt;n0_place_4</title>
<path fill="none" stroke="black" stroke-dasharray="1,5" d="M464.18,-745.88C491.21,-714.39 539.07,-662.13 587.73,-626 606.34,-612.18 628.56,-599.64 648.35,-589.64"/>
</g>
<!-- n0_port_2 -->
<g id="node4" class="node">
<title>n0_port_2</title>
<polygon fill="white" stroke="black" points="119.2,-463.33 67.57,-486.43 15.93,-463.33 15.98,-425.96 119.16,-425.96 119.2,-463.33"/>
<text text-anchor="middle" x="67.57" y="-456.8" font-family="Times,serif" font-size="14.00">input</text>
<text text-anchor="middle" x="67.57" y="-441.8" font-family="Times,serif" font-size="14.00">string</text>
</g>
<!-- n0_place_0 -->
<g id="node6" class="node">
<title>n0_place_0</title>
<ellipse fill="white" stroke="black" cx="224.43" cy="-453" rx="69.09" ry="26.74"/>
<text text-anchor="middle" x="224.43" y="-456.8" font-family="Times,serif" font-size="14.00">place_input</text>
<text text-anchor="middle" x="224.43" y="-441.8" font-family="Times,serif" font-size="14.00">string</text>
</g>
<!-- n0_port_2&#45;&gt;n0_place_0 -->
<g id="edge16" class="edge">
<title>n0_port_2&#45;&gt;n0_place_0</title>
<path fill="none" stroke="black" stroke-dasharray="1,5" d="M119.28,-453C130.66,-453 142.91,-453 154.88,-453"/>
</g>
<!-- n0_port_3 -->
<g id="node5" class="node">
<title>n0_port_3</title>
<polygon fill="white" stroke="black" points="896.82,-38.67 965.92,-15.57 1035.01,-38.67 1034.95,-76.04 896.88,-76.04 896.82,-38.67"/>
<text text-anchor="middle" x="965.92" y="-52.8" font-family="Times,serif" font-size="14.00">OUTPUT</text>
<text text-anchor="middle" x="965.92" y="-37.8" font-family="Times,serif" font-size="14.00">string</text>
</g>
<!-- n0_place_5 -->
<g id="node11" class="node">
<title>n0_place_5</title>
<ellipse fill="white" stroke="black" cx="1255.72" cy="-207" rx="94.51" ry="26.74"/>
<text text-anchor="middle" x="1255.72" y="-210.8" font-family="Times,serif" font-size="14.00">place_SchFrame</text>
<text text-anchor="middle" x="1255.72" y="-195.8" font-family="Times,serif" font-size="14.00">string</text>
</g>
<!-- n0_port_3&#45;&gt;n0_place_5 -->
<g id="edge17" class="edge">
<title>n0_port_3&#45;&gt;n0_place_5</title>
<path fill="none" stroke="black" stroke-dasharray="1,5" d="M1025.21,-76.07C1045.41,-85.78 1068.09,-97.04 1088.42,-108 1132.78,-131.92 1182.25,-161.8 1215.61,-182.44"/>
</g>
<!-- n3_port_0 -->
<g id="node31" class="node">
<title>n3_port_0</title>
<polygon fill="white" stroke="black" points="492.36,-463.33 440.73,-486.43 389.09,-463.33 389.14,-425.96 492.32,-425.96 492.36,-463.33"/>
<text text-anchor="middle" x="440.73" y="-456.8" font-family="Times,serif" font-size="14.00">input</text>
<text text-anchor="middle" x="440.73" y="-441.8" font-family="Times,serif" font-size="14.00">string</text>
</g>
<!-- n0_place_0&#45;&gt;n3_port_0 -->
<g id="edge13" class="edge">
<title>n0_place_0&#45;&gt;n3_port_0</title>
<path fill="none" stroke="black" d="M293.83,-453C321.08,-453 352.19,-453 378.67,-453"/>
<polygon fill="black" stroke="black" points="378.95,-456.5 388.95,-453 378.95,-449.5 378.95,-456.5"/>
</g>
<!-- n2_port_1 -->
<g id="node24" class="node">
<title>n2_port_1</title>
<polygon fill="white" stroke="black" points="1067.94,-637.33 965.92,-660.43 863.89,-637.33 863.99,-599.96 1067.85,-599.96 1067.94,-637.33"/>
<text text-anchor="middle" x="965.92" y="-630.8" font-family="Times,serif" font-size="14.00">base_filename</text>
<text text-anchor="middle" x="965.92" y="-615.8" font-family="Times,serif" font-size="14.00">string</text>
</g>
<!-- n0_place_1&#45;&gt;n2_port_1 -->
<g id="edge9" class="edge">
<title>n0_place_1&#45;&gt;n2_port_1</title>
<path fill="none" stroke="black" stroke-dasharray="5,2" d="M801.01,-648.87C821.03,-646.2 842.14,-643.38 862.31,-640.69"/>
<polygon fill="black" stroke="black" points="862.99,-644.13 872.44,-639.34 862.07,-637.19 862.99,-644.13"/>
</g>
<!-- n0_place_2 -->
<g id="node8" class="node">
<title>n0_place_2</title>
<ellipse fill="white" stroke="black" cx="701.57" cy="-414" rx="89.61" ry="26.74"/>
<text text-anchor="middle" x="701.57" y="-417.8" font-family="Times,serif" font-size="14.00">place_input_GB</text>
<text text-anchor="middle" x="701.57" y="-402.8" font-family="Times,serif" font-size="14.00">string</text>
</g>
<!-- n2_port_2 -->
<g id="node25" class="node">
<title>n2_port_2</title>
<polygon fill="white" stroke="black" points="1017.55,-469.33 965.92,-492.43 914.28,-469.33 914.33,-431.96 1017.5,-431.96 1017.55,-469.33"/>
<text text-anchor="middle" x="965.92" y="-462.8" font-family="Times,serif" font-size="14.00">input</text>
<text text-anchor="middle" x="965.92" y="-447.8" font-family="Times,serif" font-size="14.00">string</text>
</g>
<!-- n0_place_2&#45;&gt;n2_port_2 -->
<g id="edge8" class="edge">
<title>n0_place_2&#45;&gt;n2_port_2</title>
<path fill="none" stroke="black" d="M779.87,-427.26C819.52,-434.06 867.12,-442.22 904.11,-448.57"/>
<polygon fill="black" stroke="black" points="903.8,-452.07 914.25,-450.31 904.98,-445.17 903.8,-452.07"/>
</g>
<!-- n0_place_3 -->
<g id="node9" class="node">
<title>n0_place_3</title>
<ellipse fill="white" stroke="black" cx="1255.72" cy="-291" rx="139.1" ry="26.74"/>
<text text-anchor="middle" x="1255.72" y="-294.8" font-family="Times,serif" font-size="14.00">place_SchFrame_runtime</text>
<text text-anchor="middle" x="1255.72" y="-279.8" font-family="Times,serif" font-size="14.00">long</text>
</g>
<!-- n2_port_0 -->
<g id="node23" class="node">
<title>n2_port_0</title>
<polygon fill="white" stroke="black" points="1062.2,-553.33 965.92,-576.43 869.63,-553.33 869.72,-515.96 1062.11,-515.96 1062.2,-553.33"/>
<text text-anchor="middle" x="965.92" y="-546.8" font-family="Times,serif" font-size="14.00">library_name</text>
<text text-anchor="middle" x="965.92" y="-531.8" font-family="Times,serif" font-size="14.00">string</text>
</g>
<!-- n0_place_4&#45;&gt;n2_port_0 -->
<g id="edge10" class="edge">
<title>n0_place_4&#45;&gt;n2_port_0</title>
<path fill="none" stroke="black" stroke-dasharray="5,2" d="M805.13,-557.01C822.99,-555.44 841.6,-553.81 859.54,-552.24"/>
<polygon fill="black" stroke="black" points="860.06,-555.71 869.72,-551.35 859.45,-548.73 860.06,-555.71"/>
</g>
<!-- n1_port_1 -->
<g id="node18" class="node">
<title>n1_port_1</title>
<polygon fill="white" stroke="black" points="1677.73,-457.33 1554.26,-480.43 1430.78,-457.33 1430.89,-419.96 1677.62,-419.96 1677.73,-457.33"/>
<text text-anchor="middle" x="1554.26" y="-450.8" font-family="Times,serif" font-size="14.00">computed_output</text>
<text text-anchor="middle" x="1554.26" y="-435.8" font-family="Times,serif" font-size="14.00">string</text>
</g>
<!-- n0_place_5&#45;&gt;n1_port_1 -->
<g id="edge3" class="edge">
<title>n0_place_5&#45;&gt;n1_port_1</title>
<path fill="none" stroke="black" d="M1338.74,-220.1C1359.76,-227.2 1380.51,-238.14 1395.02,-255 1439.26,-306.4 1378.21,-354.09 1423.02,-405 1425.76,-408.12 1428.74,-411.01 1431.91,-413.69"/>
<polygon fill="black" stroke="black" points="1430.06,-416.68 1440.15,-419.91 1434.28,-411.09 1430.06,-416.68"/>
</g>
<!-- n0_place_6 -->
<g id="node12" class="node">
<title>n0_place_6</title>
<ellipse fill="white" stroke="black" cx="1255.72" cy="-375" rx="137.77" ry="26.74"/>
<text text-anchor="middle" x="1255.72" y="-378.8" font-family="Times,serif" font-size="14.00">place_SchFrame_counter</text>
<text text-anchor="middle" x="1255.72" y="-363.8" font-family="Times,serif" font-size="14.00">int</text>
</g>
<!-- n0_place_7 -->
<g id="node13" class="node">
<title>n0_place_7</title>
<ellipse fill="white" stroke="black" cx="701.57" cy="-251" rx="94.09" ry="26.74"/>
<text text-anchor="middle" x="701.57" y="-254.8" font-family="Times,serif" font-size="14.00">place_StartTime</text>
<text text-anchor="middle" x="701.57" y="-239.8" font-family="Times,serif" font-size="14.00">long</text>
</g>
<!-- n1_port_0 -->
<g id="node17" class="node">
<title>n1_port_0</title>
<polygon fill="white" stroke="black" points="1633.08,-373.33 1554.26,-396.43 1475.43,-373.33 1475.5,-335.96 1633.01,-335.96 1633.08,-373.33"/>
<text text-anchor="middle" x="1554.26" y="-366.8" font-family="Times,serif" font-size="14.00">start_time</text>
<text text-anchor="middle" x="1554.26" y="-351.8" font-family="Times,serif" font-size="14.00">long</text>
</g>
<!-- n0_place_7&#45;&gt;n1_port_0 -->
<g id="edge4" class="edge">
<title>n0_place_7&#45;&gt;n1_port_0</title>
<path fill="none" stroke="black" d="M718.86,-224.48C741.75,-190.06 787.01,-131.62 843.42,-108 893.64,-86.97 1034.25,-102.49 1088.42,-108 1226.82,-122.07 1297.54,-71.74 1395.02,-171 1442.54,-219.39 1378.21,-270.09 1423.02,-321 1434.37,-333.9 1449.69,-342.86 1465.85,-349.08"/>
<polygon fill="black" stroke="black" points="1464.84,-352.43 1475.43,-352.43 1467.15,-345.83 1464.84,-352.43"/>
</g>
<!-- n0_place_8 -->
<g id="node14" class="node">
<title>n0_place_8</title>
<ellipse fill="white" stroke="black" cx="1837.94" cy="-195" rx="124.4" ry="26.74"/>
<text text-anchor="middle" x="1837.94" y="-198.8" font-family="Times,serif" font-size="14.00">Final_place_SchFrame</text>
<text text-anchor="middle" x="1837.94" y="-183.8" font-family="Times,serif" font-size="14.00">string</text>
</g>
<!-- n0_place_9 -->
<g id="node15" class="node">
<title>n0_place_9</title>
<ellipse fill="white" stroke="black" cx="1837.94" cy="-279" rx="88.28" ry="26.74"/>
<text text-anchor="middle" x="1837.94" y="-282.8" font-family="Times,serif" font-size="14.00">place_EndTime</text>
<text text-anchor="middle" x="1837.94" y="-267.8" font-family="Times,serif" font-size="14.00">long</text>
</g>
<!-- n1_condition -->
<g id="node16" class="node">
<title>n1_condition</title>
<polygon fill="white" stroke="black" points="1514.26,-499 1514.26,-535 1594.26,-535 1594.26,-499 1514.26,-499"/>
<text text-anchor="middle" x="1554.26" y="-513.3" font-family="Times,serif" font-size="14.00">EndTime</text>
</g>
<!-- n1_port_2 -->
<g id="node19" class="node">
<title>n1_port_2</title>
<polygon fill="white" stroke="black" points="1498.38,-184.67 1554.26,-161.57 1610.13,-184.67 1610.08,-222.04 1498.43,-222.04 1498.38,-184.67"/>
<text text-anchor="middle" x="1554.26" y="-198.8" font-family="Times,serif" font-size="14.00">output</text>
<text text-anchor="middle" x="1554.26" y="-183.8" font-family="Times,serif" font-size="14.00">string</text>
</g>
<!-- n1_port_2&#45;&gt;n0_place_8 -->
<g id="edge1" class="edge">
<title>n1_port_2&#45;&gt;n0_place_8</title>
<path fill="none" stroke="black" d="M1610.24,-195C1636.94,-195 1670.29,-195 1703.13,-195"/>
<polygon fill="black" stroke="black" points="1703.3,-198.5 1713.3,-195 1703.3,-191.5 1703.3,-198.5"/>
</g>
<!-- n1_port_3 -->
<g id="node20" class="node">
<title>n1_port_3</title>
<polygon fill="white" stroke="black" points="1476.68,-268.67 1554.26,-245.57 1631.83,-268.67 1631.76,-306.04 1476.75,-306.04 1476.68,-268.67"/>
<text text-anchor="middle" x="1554.26" y="-282.8" font-family="Times,serif" font-size="14.00">end_timer</text>
<text text-anchor="middle" x="1554.26" y="-267.8" font-family="Times,serif" font-size="14.00">long</text>
</g>
<!-- n1_port_3&#45;&gt;n0_place_9 -->
<g id="edge2" class="edge">
<title>n1_port_3&#45;&gt;n0_place_9</title>
<path fill="none" stroke="black" d="M1631.86,-279C1664.92,-279 1704,-279 1739.13,-279"/>
<polygon fill="black" stroke="black" points="1739.41,-282.5 1749.41,-279 1739.41,-275.5 1739.41,-282.5"/>
</g>
<!-- n1_modcall -->
<g id="node21" class="node">
<title>n1_modcall</title>
<polygon fill="white" stroke="black" points="1661.26,-144 1447.26,-144 1447.26,-108 1661.26,-108 1661.26,-144"/>
<text text-anchor="middle" x="1554.26" y="-122.3" font-family="Times,serif" font-size="14.00">singular_template.EndTime</text>
</g>
<!-- n2_condition -->
<g id="node22" class="node">
<title>n2_condition</title>
<polygon fill="white" stroke="black" points="921.42,-679 921.42,-715 1010.42,-715 1010.42,-679 921.42,-679"/>
<text text-anchor="middle" x="965.92" y="-693.3" font-family="Times,serif" font-size="14.00">SchFrame</text>
</g>
<!-- n2_port_3 -->
<g id="node26" class="node">
<title>n2_port_3</title>
<polygon fill="white" stroke="black" points="923.26,-196.67 965.92,-173.57 1008.57,-196.67 1008.53,-234.04 923.3,-234.04 923.26,-196.67"/>
<text text-anchor="middle" x="965.92" y="-210.8" font-family="Times,serif" font-size="14.00">OUT</text>
<text text-anchor="middle" x="965.92" y="-195.8" font-family="Times,serif" font-size="14.00">list</text>
</g>
<!-- n2_port_3&#45;&gt;n0_place_5 -->
<g id="edge7" class="edge">
<title>n2_port_3&#45;&gt;n0_place_5</title>
<path fill="none" stroke="black" d="M1008.77,-205C1045.88,-205 1101.67,-205 1150.73,-205"/>
<path fill="none" stroke="transparent" d="M1008.77,-207C1045.88,-207 1101.67,-207 1150.73,-207"/>
<path fill="none" stroke="black" d="M1008.77,-209C1045.88,-209 1101.67,-209 1150.73,-209"/>
<polygon fill="black" stroke="black" points="1150.77,-210.5 1160.77,-207 1150.77,-203.5 1150.77,-210.5"/>
</g>
<!-- n2_port_4 -->
<g id="node27" class="node">
<title>n2_port_4</title>
<polygon fill="white" stroke="black" points="901.06,-280.67 965.92,-257.57 1030.77,-280.67 1030.71,-318.04 901.12,-318.04 901.06,-280.67"/>
<text text-anchor="middle" x="965.92" y="-294.8" font-family="Times,serif" font-size="14.00">runtime</text>
<text text-anchor="middle" x="965.92" y="-279.8" font-family="Times,serif" font-size="14.00">long</text>
</g>
<!-- n2_port_4&#45;&gt;n0_place_3 -->
<g id="edge6" class="edge">
<title>n2_port_4&#45;&gt;n0_place_3</title>
<path fill="none" stroke="black" d="M1030.79,-291C1053.26,-291 1079.54,-291 1106.04,-291"/>
<polygon fill="black" stroke="black" points="1106.2,-294.5 1116.2,-291 1106.2,-287.5 1106.2,-294.5"/>
</g>
<!-- n2_port_5 -->
<g id="node28" class="node">
<title>n2_port_5</title>
<polygon fill="white" stroke="black" points="903.8,-364.67 965.92,-341.57 1028.03,-364.67 1027.97,-402.04 903.86,-402.04 903.8,-364.67"/>
<text text-anchor="middle" x="965.92" y="-378.8" font-family="Times,serif" font-size="14.00">counter</text>
<text text-anchor="middle" x="965.92" y="-363.8" font-family="Times,serif" font-size="14.00">int</text>
</g>
<!-- n2_port_5&#45;&gt;n0_place_6 -->
<g id="edge5" class="edge">
<title>n2_port_5&#45;&gt;n0_place_6</title>
<path fill="none" stroke="black" d="M1028.3,-375C1051.68,-375 1079.45,-375 1107.39,-375"/>
<polygon fill="black" stroke="black" points="1107.68,-378.5 1117.68,-375 1107.68,-371.5 1107.68,-378.5"/>
</g>
<!-- n2_modcall -->
<g id="node29" class="node">
<title>n2_modcall</title>
<polygon fill="white" stroke="black" points="1080.42,-156 851.42,-156 851.42,-120 1080.42,-120 1080.42,-156"/>
<text text-anchor="middle" x="965.92" y="-134.3" font-family="Times,serif" font-size="14.00">singular_template.All_leadsyz</text>
</g>
<!-- n3_condition -->
<g id="node30" class="node">
<title>n3_condition</title>
<polygon fill="white" stroke="black" points="396.23,-505 396.23,-541 485.23,-541 485.23,-505 396.23,-505"/>
<text text-anchor="middle" x="440.73" y="-519.3" font-family="Times,serif" font-size="14.00">StartTime</text>
</g>
<!-- n3_port_1 -->
<g id="node32" class="node">
<title>n3_port_1</title>
<polygon fill="white" stroke="black" points="384.85,-358.67 440.73,-335.57 496.6,-358.67 496.55,-396.04 384.9,-396.04 384.85,-358.67"/>
<text text-anchor="middle" x="440.73" y="-372.8" font-family="Times,serif" font-size="14.00">output</text>
<text text-anchor="middle" x="440.73" y="-357.8" font-family="Times,serif" font-size="14.00">string</text>
</g>
<!-- n3_port_1&#45;&gt;n0_place_2 -->
<g id="edge11" class="edge">
<title>n3_port_1&#45;&gt;n0_place_2</title>
<path fill="none" stroke="black" d="M496.62,-378.54C530.54,-384.44 574.83,-392.14 613.46,-398.85"/>
<polygon fill="black" stroke="black" points="613.21,-402.37 623.67,-400.63 614.41,-395.47 613.21,-402.37"/>
</g>
<!-- n3_port_2 -->
<g id="node33" class="node">
<title>n3_port_2</title>
<polygon fill="white" stroke="black" points="361.9,-274.67 440.73,-251.57 519.55,-274.67 519.48,-312.04 361.98,-312.04 361.9,-274.67"/>
<text text-anchor="middle" x="440.73" y="-288.8" font-family="Times,serif" font-size="14.00">start_time</text>
<text text-anchor="middle" x="440.73" y="-273.8" font-family="Times,serif" font-size="14.00">long</text>
</g>
<!-- n3_port_2&#45;&gt;n0_place_7 -->
<g id="edge12" class="edge">
<title>n3_port_2&#45;&gt;n0_place_7</title>
<path fill="none" stroke="black" d="M519.74,-274.75C546.65,-271.22 577.11,-267.22 605.25,-263.52"/>
<polygon fill="black" stroke="black" points="606.04,-266.95 615.5,-262.17 605.13,-260.01 606.04,-266.95"/>
</g>
<!-- n3_modcall -->
<g id="node34" class="node">
<title>n3_modcall</title>
<polygon fill="white" stroke="black" points="551.73,-234 329.73,-234 329.73,-198 551.73,-198 551.73,-234"/>
<text text-anchor="middle" x="440.73" y="-212.3" font-family="Times,serif" font-size="14.00">singular_template.StartTime</text>
</g>
</g>
</svg>
