<?xml version="1.0" encoding="UTF-8" standalone="no"?>
<!DOCTYPE svg PUBLIC "-//W3C//DTD SVG 1.1//EN"
 "http://www.w3.org/Graphics/SVG/1.1/DTD/svg11.dtd">
<!-- Generated by graphviz version 2.43.0 (0)
 -->
<!-- Title: template Pages: 1 -->
<svg width="2172pt" height="1564pt"
 viewBox="0.00 0.00 2172.43 1564.00" xmlns="http://www.w3.org/2000/svg" xmlns:xlink="http://www.w3.org/1999/xlink">
<g id="graph0" class="graph" transform="scale(1 1) rotate(0) translate(4 1560)">
<title>template</title>
<polygon fill="white" stroke="transparent" points="-4,4 -4,-1560 2168.43,-1560 2168.43,4 -4,4"/>
<g id="clust1" class="cluster">
<title>cluster_0</title>
<polygon fill="dimgray" stroke="black" points="8,-8 8,-1548 2156.43,-1548 2156.43,-8 8,-8"/>
</g>
<g id="clust2" class="cluster">
<title>cluster_net_0</title>
<polygon fill="white" stroke="black" points="147.14,-90 147.14,-1382 2148.43,-1382 2148.43,-90 147.14,-90"/>
</g>
<g id="clust3" class="cluster">
<title>cluster_1</title>
<polygon fill="yellow" stroke="black" points="1840.43,-243 1840.43,-603 2140.43,-603 2140.43,-243 1840.43,-243"/>
</g>
<g id="clust4" class="cluster">
<title>cluster_2</title>
<polygon fill="yellow" stroke="black" points="1329.97,-327 1329.97,-1023 1560.98,-1023 1560.98,-327 1329.97,-327"/>
</g>
<g id="clust5" class="cluster">
<title>cluster_3</title>
<polygon fill="yellow" stroke="black" points="852.72,-110 852.72,-722 1073.24,-722 1073.24,-110 852.72,-110"/>
</g>
<g id="clust6" class="cluster">
<title>cluster_4</title>
<polygon fill="yellow" stroke="black" points="849.98,-730 849.98,-1342 1075.98,-1342 1075.98,-730 849.98,-730"/>
</g>
<g id="clust7" class="cluster">
<title>cluster_5</title>
<polygon fill="yellow" stroke="black" points="336.49,-278 336.49,-638 527.49,-638 527.49,-278 336.49,-278"/>
</g>
<!-- n0_condition -->
<g id="node1" class="node">
<title>n0_condition</title>
<polygon fill="white" stroke="black" points="27.57,-1048 27.57,-1084 107.57,-1084 107.57,-1048 27.57,-1048"/>
<text text-anchor="middle" x="67.57" y="-1062.3" font-family="Times,serif" font-size="14.00">template</text>
</g>
<!-- n0_port_0 -->
<g id="node2" class="node">
<title>n0_port_0</title>
<polygon fill="white" stroke="black" points="534.01,-1517.33 431.99,-1540.43 329.97,-1517.33 330.06,-1479.96 533.92,-1479.96 534.01,-1517.33"/>
<text text-anchor="middle" x="431.99" y="-1510.8" font-family="Times,serif" font-size="14.00">base_filename</text>
<text text-anchor="middle" x="431.99" y="-1495.8" font-family="Times,serif" font-size="14.00">string</text>
</g>
<!-- n0_place_1 -->
<g id="node7" class="node">
<title>n0_place_1</title>
<ellipse fill="white" stroke="black" cx="696.12" cy="-1296" rx="113.69" ry="26.74"/>
<text text-anchor="middle" x="696.12" y="-1299.8" font-family="Times,serif" font-size="14.00">place_base_filename</text>
<text text-anchor="middle" x="696.12" y="-1284.8" font-family="Times,serif" font-size="14.00">string</text>
</g>
<!-- n0_port_0&#45;&gt;n0_place_1 -->
<g id="edge26" class="edge">
<title>n0_port_0&#45;&gt;n0_place_1</title>
<path fill="none" stroke="black" stroke-dasharray="1,5" d="M508.4,-1479.9C517.42,-1475.47 526.25,-1470.49 534.25,-1465 593.53,-1424.31 647.94,-1358.8 675.74,-1322.45"/>
</g>
<!-- n0_port_1 -->
<g id="node3" class="node">
<title>n0_port_1</title>
<polygon fill="white" stroke="black" points="528.28,-1433.33 431.99,-1456.43 335.7,-1433.33 335.79,-1395.96 528.19,-1395.96 528.28,-1433.33"/>
<text text-anchor="middle" x="431.99" y="-1426.8" font-family="Times,serif" font-size="14.00">library_name</text>
<text text-anchor="middle" x="431.99" y="-1411.8" font-family="Times,serif" font-size="14.00">string</text>
</g>
<!-- n0_place_5 -->
<g id="node11" class="node">
<title>n0_place_5</title>
<ellipse fill="white" stroke="black" cx="696.12" cy="-1192" rx="109.7" ry="26.74"/>
<text text-anchor="middle" x="696.12" y="-1195.8" font-family="Times,serif" font-size="14.00">place_library_name</text>
<text text-anchor="middle" x="696.12" y="-1180.8" font-family="Times,serif" font-size="14.00">string</text>
</g>
<!-- n0_port_1&#45;&gt;n0_place_5 -->
<g id="edge27" class="edge">
<title>n0_port_1&#45;&gt;n0_place_5</title>
<path fill="none" stroke="black" stroke-dasharray="1,5" d="M451.08,-1395.78C475.16,-1361.04 520.54,-1300.6 570.25,-1260 591.86,-1242.36 618.72,-1227.04 641.98,-1215.43"/>
</g>
<!-- n0_port_2 -->
<g id="node4" class="node">
<title>n0_port_2</title>
<polygon fill="white" stroke="black" points="119.2,-551.33 67.57,-574.43 15.93,-551.33 15.98,-513.96 119.16,-513.96 119.2,-551.33"/>
<text text-anchor="middle" x="67.57" y="-544.8" font-family="Times,serif" font-size="14.00">input</text>
<text text-anchor="middle" x="67.57" y="-529.8" font-family="Times,serif" font-size="14.00">string</text>
</g>
<!-- n0_place_0 -->
<g id="node6" class="node">
<title>n0_place_0</title>
<ellipse fill="white" stroke="black" cx="224.43" cy="-541" rx="69.09" ry="26.74"/>
<text text-anchor="middle" x="224.43" y="-544.8" font-family="Times,serif" font-size="14.00">place_input</text>
<text text-anchor="middle" x="224.43" y="-529.8" font-family="Times,serif" font-size="14.00">string</text>
</g>
<!-- n0_port_2&#45;&gt;n0_place_0 -->
<g id="edge28" class="edge">
<title>n0_port_2&#45;&gt;n0_place_0</title>
<path fill="none" stroke="black" stroke-dasharray="1,5" d="M119.28,-541C130.66,-541 142.91,-541 154.88,-541"/>
</g>
<!-- n0_port_3 -->
<g id="node5" class="node">
<title>n0_port_3</title>
<polygon fill="white" stroke="black" points="1376.38,-38.67 1445.48,-15.57 1514.58,-38.67 1514.51,-76.04 1376.45,-76.04 1376.38,-38.67"/>
<text text-anchor="middle" x="1445.48" y="-52.8" font-family="Times,serif" font-size="14.00">OUTPUT</text>
<text text-anchor="middle" x="1445.48" y="-37.8" font-family="Times,serif" font-size="14.00">string</text>
</g>
<!-- n0_place_7 -->
<g id="node13" class="node">
<title>n0_place_7</title>
<ellipse fill="white" stroke="black" cx="1700.71" cy="-212" rx="60.62" ry="26.74"/>
<text text-anchor="middle" x="1700.71" y="-215.8" font-family="Times,serif" font-size="14.00">place_Tau</text>
<text text-anchor="middle" x="1700.71" y="-200.8" font-family="Times,serif" font-size="14.00">string</text>
</g>
<!-- n0_port_3&#45;&gt;n0_place_7 -->
<g id="edge29" class="edge">
<title>n0_port_3&#45;&gt;n0_place_7</title>
<path fill="none" stroke="black" stroke-dasharray="1,5" d="M1488.58,-76.1C1538.08,-107.96 1619.31,-160.25 1665.24,-189.82"/>
</g>
<!-- n5_port_0 -->
<g id="node50" class="node">
<title>n5_port_0</title>
<polygon fill="white" stroke="black" points="483.63,-551.33 431.99,-574.43 380.35,-551.33 380.4,-513.96 483.58,-513.96 483.63,-551.33"/>
<text text-anchor="middle" x="431.99" y="-544.8" font-family="Times,serif" font-size="14.00">input</text>
<text text-anchor="middle" x="431.99" y="-529.8" font-family="Times,serif" font-size="14.00">string</text>
</g>
<!-- n0_place_0&#45;&gt;n5_port_0 -->
<g id="edge25" class="edge">
<title>n0_place_0&#45;&gt;n5_port_0</title>
<path fill="none" stroke="black" d="M293.88,-541C318.61,-541 346.34,-541 370.35,-541"/>
<polygon fill="black" stroke="black" points="370.4,-544.5 380.4,-541 370.4,-537.5 370.4,-544.5"/>
</g>
<!-- n2_port_1 -->
<g id="node26" class="node">
<title>n2_port_1</title>
<polygon fill="white" stroke="black" points="1547.5,-936.33 1445.48,-959.43 1343.45,-936.33 1343.55,-898.96 1547.41,-898.96 1547.5,-936.33"/>
<text text-anchor="middle" x="1445.48" y="-929.8" font-family="Times,serif" font-size="14.00">base_filename</text>
<text text-anchor="middle" x="1445.48" y="-914.8" font-family="Times,serif" font-size="14.00">string</text>
</g>
<!-- n0_place_1&#45;&gt;n2_port_1 -->
<g id="edge9" class="edge">
<title>n0_place_1&#45;&gt;n2_port_1</title>
<path fill="none" stroke="black" stroke-dasharray="5,2" d="M741.72,-1320.63C771.41,-1335.58 811.83,-1353.23 849.98,-1361 948.4,-1381.06 983.06,-1399.13 1075.98,-1361 1206.53,-1307.44 1237.05,-1263.28 1301.97,-1138 1337,-1070.4 1281.63,-1027.82 1329.97,-969 1337.71,-959.58 1347.74,-952.22 1358.65,-946.47"/>
<polygon fill="black" stroke="black" points="1360.46,-949.49 1367.98,-942.02 1357.45,-943.17 1360.46,-949.49"/>
</g>
<!-- n3_port_1 -->
<g id="node35" class="node">
<title>n3_port_1</title>
<polygon fill="white" stroke="black" points="1065.01,-635.33 962.98,-658.43 860.96,-635.33 861.05,-597.96 1064.91,-597.96 1065.01,-635.33"/>
<text text-anchor="middle" x="962.98" y="-628.8" font-family="Times,serif" font-size="14.00">base_filename</text>
<text text-anchor="middle" x="962.98" y="-613.8" font-family="Times,serif" font-size="14.00">string</text>
</g>
<!-- n0_place_1&#45;&gt;n3_port_1 -->
<g id="edge15" class="edge">
<title>n0_place_1&#45;&gt;n3_port_1</title>
<path fill="none" stroke="black" stroke-dasharray="5,2" d="M764.75,-1274.46C786.7,-1264 808.78,-1249 821.98,-1228 888.28,-1122.5 776.87,-768.89 849.98,-668 856.79,-658.61 865.93,-651.27 876.08,-645.53"/>
<polygon fill="black" stroke="black" points="877.88,-648.54 885.21,-640.89 874.71,-642.3 877.88,-648.54"/>
</g>
<!-- n4_port_1 -->
<g id="node43" class="node">
<title>n4_port_1</title>
<polygon fill="white" stroke="black" points="1065.01,-1255.33 962.98,-1278.43 860.96,-1255.33 861.05,-1217.96 1064.91,-1217.96 1065.01,-1255.33"/>
<text text-anchor="middle" x="962.98" y="-1248.8" font-family="Times,serif" font-size="14.00">base_filename</text>
<text text-anchor="middle" x="962.98" y="-1233.8" font-family="Times,serif" font-size="14.00">string</text>
</g>
<!-- n0_place_1&#45;&gt;n4_port_1 -->
<g id="edge21" class="edge">
<title>n0_place_1&#45;&gt;n4_port_1</title>
<path fill="none" stroke="black" stroke-dasharray="5,2" d="M784.95,-1279.09C813.1,-1273.67 844.3,-1267.66 872.56,-1262.22"/>
<polygon fill="black" stroke="black" points="873.27,-1265.65 882.43,-1260.32 871.95,-1258.77 873.27,-1265.65"/>
</g>
<!-- n0_place_2 -->
<g id="node8" class="node">
<title>n0_place_2</title>
<ellipse fill="white" stroke="black" cx="1202.98" cy="-211" rx="64.19" ry="26.74"/>
<text text-anchor="middle" x="1202.98" y="-214.8" font-family="Times,serif" font-size="14.00">place_lead</text>
<text text-anchor="middle" x="1202.98" y="-199.8" font-family="Times,serif" font-size="14.00">string</text>
</g>
<!-- n2_port_2 -->
<g id="node27" class="node">
<title>n2_port_2</title>
<polygon fill="white" stroke="black" points="1497.11,-684.33 1445.48,-707.43 1393.84,-684.33 1393.89,-646.96 1497.07,-646.96 1497.11,-684.33"/>
<text text-anchor="middle" x="1445.48" y="-677.8" font-family="Times,serif" font-size="14.00">lead</text>
<text text-anchor="middle" x="1445.48" y="-662.8" font-family="Times,serif" font-size="14.00">string</text>
</g>
<!-- n0_place_2&#45;&gt;n2_port_2 -->
<g id="edge6" class="edge">
<title>n0_place_2&#45;&gt;n2_port_2</title>
<path fill="none" stroke="black" d="M1260.41,-223.36C1276.31,-229.61 1291.97,-238.99 1301.97,-253 1351.03,-321.74 1279.1,-564.59 1329.97,-632 1342.91,-649.14 1363.56,-659.29 1383.79,-665.3"/>
<polygon fill="black" stroke="black" points="1383.09,-668.73 1393.65,-667.93 1384.89,-661.97 1383.09,-668.73"/>
</g>
<!-- n0_place_3 -->
<g id="node9" class="node">
<title>n0_place_3</title>
<ellipse fill="white" stroke="black" cx="696.12" cy="-457" rx="89.61" ry="26.74"/>
<text text-anchor="middle" x="696.12" y="-460.8" font-family="Times,serif" font-size="14.00">place_input_GB</text>
<text text-anchor="middle" x="696.12" y="-445.8" font-family="Times,serif" font-size="14.00">string</text>
</g>
<!-- n2_port_5 -->
<g id="node29" class="node">
<title>n2_port_5</title>
<polygon fill="white" stroke="black" points="1532.78,-600.33 1445.48,-623.43 1358.17,-600.33 1358.25,-562.96 1532.7,-562.96 1532.78,-600.33"/>
<text text-anchor="middle" x="1445.48" y="-593.8" font-family="Times,serif" font-size="14.00">input_name</text>
<text text-anchor="middle" x="1445.48" y="-578.8" font-family="Times,serif" font-size="14.00">string</text>
</g>
<!-- n0_place_3&#45;&gt;n2_port_5 -->
<g id="edge8" class="edge">
<title>n0_place_3&#45;&gt;n2_port_5</title>
<path fill="none" stroke="black" stroke-dasharray="5,2" d="M772.9,-442.8C791.67,-435.69 809.86,-425.02 821.98,-409 862.8,-355.09 800.02,-151.56 849.98,-106 924.2,-38.32 976.64,-91.17 1075.98,-106 1179.85,-121.5 1236.37,-92.99 1301.97,-175 1353.9,-239.91 1279.86,-481.68 1329.97,-548 1335.29,-555.04 1341.92,-560.91 1349.28,-565.79"/>
<polygon fill="black" stroke="black" points="1347.84,-569 1358.23,-571.08 1351.4,-562.97 1347.84,-569"/>
</g>
<!-- n3_port_2 -->
<g id="node36" class="node">
<title>n3_port_2</title>
<polygon fill="white" stroke="black" points="1014.62,-467.33 962.98,-490.43 911.35,-467.33 911.39,-429.96 1014.57,-429.96 1014.62,-467.33"/>
<text text-anchor="middle" x="962.98" y="-460.8" font-family="Times,serif" font-size="14.00">input</text>
<text text-anchor="middle" x="962.98" y="-445.8" font-family="Times,serif" font-size="14.00">string</text>
</g>
<!-- n0_place_3&#45;&gt;n3_port_2 -->
<g id="edge14" class="edge">
<title>n0_place_3&#45;&gt;n3_port_2</title>
<path fill="none" stroke="black" stroke-dasharray="5,2" d="M786.05,-457C823.78,-457 866.8,-457 900.86,-457"/>
<polygon fill="black" stroke="black" points="901.13,-460.5 911.13,-457 901.13,-453.5 901.13,-460.5"/>
</g>
<!-- n4_port_4 -->
<g id="node45" class="node">
<title>n4_port_4</title>
<polygon fill="white" stroke="black" points="1014.62,-1003.33 962.98,-1026.43 911.35,-1003.33 911.39,-965.96 1014.57,-965.96 1014.62,-1003.33"/>
<text text-anchor="middle" x="962.98" y="-996.8" font-family="Times,serif" font-size="14.00">init</text>
<text text-anchor="middle" x="962.98" y="-981.8" font-family="Times,serif" font-size="14.00">string</text>
</g>
<!-- n0_place_3&#45;&gt;n4_port_4 -->
<g id="edge20" class="edge">
<title>n0_place_3&#45;&gt;n4_port_4</title>
<path fill="none" stroke="black" stroke-dasharray="5,2" d="M697.56,-484.07C700.35,-565.79 719.72,-812.86 849.98,-951 863.69,-965.54 882.92,-975.08 901.58,-981.33"/>
<polygon fill="black" stroke="black" points="900.67,-984.71 911.25,-984.31 902.73,-978.02 900.67,-984.71"/>
</g>
<!-- n0_place_4 -->
<g id="node10" class="node">
<title>n0_place_4</title>
<ellipse fill="white" stroke="black" cx="1700.71" cy="-506" rx="92.76" ry="26.74"/>
<text text-anchor="middle" x="1700.71" y="-509.8" font-family="Times,serif" font-size="14.00">place_LIFT_sum</text>
<text text-anchor="middle" x="1700.71" y="-494.8" font-family="Times,serif" font-size="14.00">long</text>
</g>
<!-- n1_port_2 -->
<g id="node21" class="node">
<title>n1_port_2</title>
<polygon fill="white" stroke="black" points="2083.22,-516.33 1990.43,-539.43 1897.63,-516.33 1897.72,-478.96 2083.14,-478.96 2083.22,-516.33"/>
<text text-anchor="middle" x="1990.43" y="-509.8" font-family="Times,serif" font-size="14.00">newLiftTime</text>
<text text-anchor="middle" x="1990.43" y="-494.8" font-family="Times,serif" font-size="14.00">long</text>
</g>
<!-- n0_place_4&#45;&gt;n1_port_2 -->
<g id="edge2" class="edge">
<title>n0_place_4&#45;&gt;n1_port_2</title>
<path fill="none" stroke="black" d="M1793.54,-506C1823.38,-506 1856.68,-506 1887.24,-506"/>
<polygon fill="black" stroke="black" points="1887.49,-509.5 1897.49,-506 1887.49,-502.5 1887.49,-509.5"/>
</g>
<!-- n2_port_0 -->
<g id="node25" class="node">
<title>n2_port_0</title>
<polygon fill="white" stroke="black" points="1552.99,-852.33 1445.48,-875.43 1337.97,-852.33 1338.07,-814.96 1552.89,-814.96 1552.99,-852.33"/>
<text text-anchor="middle" x="1445.48" y="-845.8" font-family="Times,serif" font-size="14.00">needed_library</text>
<text text-anchor="middle" x="1445.48" y="-830.8" font-family="Times,serif" font-size="14.00">string</text>
</g>
<!-- n0_place_5&#45;&gt;n2_port_0 -->
<g id="edge10" class="edge">
<title>n0_place_5&#45;&gt;n2_port_0</title>
<path fill="none" stroke="black" stroke-dasharray="5,2" d="M758.58,-1214.11C781.2,-1224.9 805.34,-1239.97 821.98,-1260 847.68,-1290.91 817.46,-1322.38 849.98,-1346 890.62,-1375.51 1032.7,-1371.47 1075.98,-1346 1254.29,-1241.05 1204.8,-1121.67 1301.97,-939 1314.85,-914.78 1309.45,-902.2 1329.97,-884 1339.28,-875.74 1350.36,-869.06 1361.89,-863.66"/>
<polygon fill="black" stroke="black" points="1363.44,-866.81 1371.21,-859.61 1360.65,-860.39 1363.44,-866.81"/>
</g>
<!-- n3_port_0 -->
<g id="node34" class="node">
<title>n3_port_0</title>
<polygon fill="white" stroke="black" points="1059.27,-551.33 962.98,-574.43 866.69,-551.33 866.78,-513.96 1059.18,-513.96 1059.27,-551.33"/>
<text text-anchor="middle" x="962.98" y="-544.8" font-family="Times,serif" font-size="14.00">library_name</text>
<text text-anchor="middle" x="962.98" y="-529.8" font-family="Times,serif" font-size="14.00">string</text>
</g>
<!-- n0_place_5&#45;&gt;n3_port_0 -->
<g id="edge16" class="edge">
<title>n0_place_5&#45;&gt;n3_port_0</title>
<path fill="none" stroke="black" stroke-dasharray="5,2" d="M763.11,-1170.7C785.6,-1160.02 808.46,-1144.63 821.98,-1123 885.7,-1021.12 779,-679.96 849.98,-583 856.98,-573.44 866.42,-566.06 876.86,-560.36"/>
<polygon fill="black" stroke="black" points="878.4,-563.5 885.84,-555.95 875.32,-557.21 878.4,-563.5"/>
</g>
<!-- n4_port_0 -->
<g id="node42" class="node">
<title>n4_port_0</title>
<polygon fill="white" stroke="black" points="1059.27,-1171.33 962.98,-1194.43 866.69,-1171.33 866.78,-1133.96 1059.18,-1133.96 1059.27,-1171.33"/>
<text text-anchor="middle" x="962.98" y="-1164.8" font-family="Times,serif" font-size="14.00">library_name</text>
<text text-anchor="middle" x="962.98" y="-1149.8" font-family="Times,serif" font-size="14.00">string</text>
</g>
<!-- n0_place_5&#45;&gt;n4_port_0 -->
<g id="edge22" class="edge">
<title>n0_place_5&#45;&gt;n4_port_0</title>
<path fill="none" stroke="black" stroke-dasharray="5,2" d="M795.37,-1180.5C815.99,-1178.09 837.8,-1175.53 858.6,-1173.1"/>
<polygon fill="black" stroke="black" points="859.2,-1176.55 868.73,-1171.91 858.39,-1169.6 859.2,-1176.55"/>
</g>
<!-- n0_place_6 -->
<g id="node12" class="node">
<title>n0_place_6</title>
<ellipse fill="white" stroke="black" cx="1202.98" cy="-903" rx="85.62" ry="26.74"/>
<text text-anchor="middle" x="1202.98" y="-906.8" font-family="Times,serif" font-size="14.00">place_All_Lead</text>
<text text-anchor="middle" x="1202.98" y="-891.8" font-family="Times,serif" font-size="14.00">string</text>
</g>
<!-- n2_port_4 -->
<g id="node28" class="node">
<title>n2_port_4</title>
<polygon fill="white" stroke="black" points="1507.59,-768.33 1445.48,-791.43 1383.37,-768.33 1383.42,-730.96 1507.53,-730.96 1507.59,-768.33"/>
<text text-anchor="middle" x="1445.48" y="-761.8" font-family="Times,serif" font-size="14.00">all_lead</text>
<text text-anchor="middle" x="1445.48" y="-746.8" font-family="Times,serif" font-size="14.00">string</text>
</g>
<!-- n0_place_6&#45;&gt;n2_port_4 -->
<g id="edge7" class="edge">
<title>n0_place_6&#45;&gt;n2_port_4</title>
<path fill="none" stroke="black" stroke-dasharray="5,2" d="M1265.74,-884.71C1278.84,-878.71 1291.77,-870.95 1301.97,-861 1323.33,-840.18 1308.06,-820.25 1329.97,-800 1343.1,-787.87 1360.03,-779.17 1376.81,-772.96"/>
<polygon fill="black" stroke="black" points="1378.33,-776.14 1386.65,-769.58 1376.06,-769.52 1378.33,-776.14"/>
</g>
<!-- n0_place_8 -->
<g id="node14" class="node">
<title>n0_place_8</title>
<ellipse fill="white" stroke="black" cx="1202.98" cy="-289" rx="82.05" ry="26.74"/>
<text text-anchor="middle" x="1202.98" y="-292.8" font-family="Times,serif" font-size="14.00">place_counter</text>
<text text-anchor="middle" x="1202.98" y="-277.8" font-family="Times,serif" font-size="14.00">int</text>
</g>
<!-- n0_place_9 -->
<g id="node15" class="node">
<title>n0_place_9</title>
<ellipse fill="white" stroke="black" cx="696.12" cy="-373" rx="78.48" ry="26.74"/>
<text text-anchor="middle" x="696.12" y="-376.8" font-family="Times,serif" font-size="14.00">place_control</text>
<text text-anchor="middle" x="696.12" y="-361.8" font-family="Times,serif" font-size="14.00">control</text>
</g>
<!-- n3_port_3 -->
<g id="node37" class="node">
<title>n3_port_3</title>
<polygon fill="white" stroke="black" points="1021.6,-383.33 962.98,-406.43 904.36,-383.33 904.42,-345.96 1021.55,-345.96 1021.6,-383.33"/>
<text text-anchor="middle" x="962.98" y="-376.8" font-family="Times,serif" font-size="14.00">s</text>
<text text-anchor="middle" x="962.98" y="-361.8" font-family="Times,serif" font-size="14.00">control</text>
</g>
<!-- n0_place_9&#45;&gt;n3_port_3 -->
<g id="edge13" class="edge">
<title>n0_place_9&#45;&gt;n3_port_3</title>
<path fill="none" stroke="black" d="M774.8,-373C812.61,-373 857.65,-373 894.07,-373"/>
<polygon fill="black" stroke="black" points="894.1,-376.5 904.1,-373 894.1,-369.5 894.1,-376.5"/>
</g>
<!-- n0_place_10 -->
<g id="node16" class="node">
<title>n0_place_10</title>
<ellipse fill="white" stroke="black" cx="696.12" cy="-1077" rx="125.73" ry="37.45"/>
<text text-anchor="middle" x="696.12" y="-1088.3" font-family="Times,serif" font-size="14.00">place_control_All_Lead</text>
<text text-anchor="middle" x="696.12" y="-1073.3" font-family="Times,serif" font-size="14.00">control</text>
<text text-anchor="middle" x="696.12" y="-1058.3" font-family="Times,serif" font-size="14.00">[]</text>
</g>
<!-- n4_port_3 -->
<g id="node44" class="node">
<title>n4_port_3</title>
<polygon fill="white" stroke="black" points="1021.6,-1087.33 962.98,-1110.43 904.36,-1087.33 904.42,-1049.96 1021.55,-1049.96 1021.6,-1087.33"/>
<text text-anchor="middle" x="962.98" y="-1080.8" font-family="Times,serif" font-size="14.00">C</text>
<text text-anchor="middle" x="962.98" y="-1065.8" font-family="Times,serif" font-size="14.00">control</text>
</g>
<!-- n0_place_10&#45;&gt;n4_port_3 -->
<g id="edge19" class="edge">
<title>n0_place_10&#45;&gt;n4_port_3</title>
<path fill="none" stroke="black" d="M822.18,-1077C846.93,-1077 872.02,-1077 893.98,-1077"/>
<polygon fill="black" stroke="black" points="894.16,-1080.5 904.16,-1077 894.16,-1073.5 894.16,-1080.5"/>
</g>
<!-- n0_place_11 -->
<g id="node17" class="node">
<title>n0_place_11</title>
<ellipse fill="white" stroke="black" cx="1202.98" cy="-825" rx="98.99" ry="26.74"/>
<text text-anchor="middle" x="1202.98" y="-828.8" font-family="Times,serif" font-size="14.00">place_length_Res</text>
<text text-anchor="middle" x="1202.98" y="-813.8" font-family="Times,serif" font-size="14.00">int</text>
</g>
<!-- n0_place_12 -->
<g id="node18" class="node">
<title>n0_place_12</title>
<ellipse fill="white" stroke="black" cx="1700.71" cy="-380" rx="111.95" ry="37.45"/>
<text text-anchor="middle" x="1700.71" y="-391.3" font-family="Times,serif" font-size="14.00">place_LIFT_runtime</text>
<text text-anchor="middle" x="1700.71" y="-376.3" font-family="Times,serif" font-size="14.00">long</text>
<text text-anchor="middle" x="1700.71" y="-361.3" font-family="Times,serif" font-size="14.00">0L</text>
</g>
<!-- n1_port_0 -->
<g id="node20" class="node">
<title>n1_port_0</title>
<polygon fill="white" stroke="black" points="2079.73,-432.33 1990.43,-455.43 1901.13,-432.33 1901.21,-394.96 2079.65,-394.96 2079.73,-432.33"/>
<text text-anchor="middle" x="1990.43" y="-425.8" font-family="Times,serif" font-size="14.00">currentSum</text>
<text text-anchor="middle" x="1990.43" y="-410.8" font-family="Times,serif" font-size="14.00">long</text>
</g>
<!-- n0_place_12&#45;&gt;n1_port_0 -->
<g id="edge3" class="edge">
<title>n0_place_12&#45;&gt;n1_port_0</title>
<path fill="none" stroke="black" d="M1803.55,-394.87C1831.92,-399.01 1862.67,-403.5 1890.84,-407.61"/>
<polygon fill="black" stroke="black" points="1890.69,-411.12 1901.09,-409.11 1891.7,-404.2 1890.69,-411.12"/>
</g>
<!-- n1_condition -->
<g id="node19" class="node">
<title>n1_condition</title>
<polygon fill="white" stroke="black" points="1947.43,-558 1947.43,-594 2033.43,-594 2033.43,-558 1947.43,-558"/>
<text text-anchor="middle" x="1990.43" y="-572.3" font-family="Times,serif" font-size="14.00">LIFT_sum</text>
</g>
<!-- n1_port_1 -->
<g id="node22" class="node">
<title>n1_port_1</title>
<polygon fill="white" stroke="black" points="1901.13,-327.67 1990.43,-304.57 2079.73,-327.67 2079.65,-365.04 1901.21,-365.04 1901.13,-327.67"/>
<text text-anchor="middle" x="1990.43" y="-341.8" font-family="Times,serif" font-size="14.00">currentSum</text>
<text text-anchor="middle" x="1990.43" y="-326.8" font-family="Times,serif" font-size="14.00">long</text>
</g>
<!-- n1_port_1&#45;&gt;n0_place_12 -->
<g id="edge1" class="edge">
<title>n1_port_1&#45;&gt;n0_place_12</title>
<path fill="none" stroke="black" d="M1901.09,-350.89C1873.51,-354.92 1842.71,-359.42 1813.72,-363.65"/>
<polygon fill="black" stroke="black" points="1812.94,-360.23 1803.55,-365.13 1813.95,-367.15 1812.94,-360.23"/>
</g>
<!-- n1_modcall -->
<g id="node23" class="node">
<title>n1_modcall</title>
<polygon fill="white" stroke="black" points="2132.43,-287 1848.43,-287 1848.43,-251 2132.43,-251 2132.43,-287"/>
<text text-anchor="middle" x="1990.43" y="-265.3" font-family="Times,serif" font-size="14.00">singular_template.SumLIFTRuntimes</text>
</g>
<!-- n2_condition -->
<g id="node24" class="node">
<title>n2_condition</title>
<polygon fill="white" stroke="black" points="1418.48,-978 1418.48,-1014 1472.48,-1014 1472.48,-978 1418.48,-978"/>
<text text-anchor="middle" x="1445.48" y="-992.3" font-family="Times,serif" font-size="14.00">LIFT</text>
</g>
<!-- n2_port_3 -->
<g id="node30" class="node">
<title>n2_port_3</title>
<polygon fill="white" stroke="black" points="1401.57,-411.67 1445.48,-388.57 1489.38,-411.67 1489.34,-449.04 1401.61,-449.04 1401.57,-411.67"/>
<text text-anchor="middle" x="1445.48" y="-425.8" font-family="Times,serif" font-size="14.00">LIFT</text>
<text text-anchor="middle" x="1445.48" y="-410.8" font-family="Times,serif" font-size="14.00">list</text>
</g>
<!-- n2_port_3&#45;&gt;n0_place_7 -->
<g id="edge5" class="edge">
<title>n2_port_3&#45;&gt;n0_place_7</title>
<path fill="none" stroke="black" d="M1488.88,-411.61C1511.83,-405.42 1539.75,-395 1559.71,-378.45 1577.63,-365.57 1572.81,-353.94 1587.38,-332.8 1611.78,-300.19 1643.09,-266.29 1666.26,-242.45"/>
<path fill="none" stroke="transparent" d="M1489.4,-413.54C1512.53,-407.29 1540.45,-396.87 1560.98,-380 1579.48,-364.81 1574.65,-353.17 1588.98,-334 1613.24,-301.54 1644.56,-267.65 1667.7,-243.85"/>
<path fill="none" stroke="black" d="M1489.92,-415.47C1513.23,-409.17 1541.15,-398.74 1562.25,-381.55 1581.32,-364.04 1576.5,-352.4 1590.59,-335.2 1614.71,-302.9 1646.03,-269.01 1669.13,-245.24"/>
<polygon fill="black" stroke="black" points="1670.41,-246.08 1674.9,-236.49 1665.4,-241.18 1670.41,-246.08"/>
</g>
<!-- n2_port_6 -->
<g id="node31" class="node">
<title>n2_port_6</title>
<polygon fill="white" stroke="black" points="1380.62,-495.67 1445.48,-472.57 1510.34,-495.67 1510.27,-533.04 1380.68,-533.04 1380.62,-495.67"/>
<text text-anchor="middle" x="1445.48" y="-509.8" font-family="Times,serif" font-size="14.00">runtime</text>
<text text-anchor="middle" x="1445.48" y="-494.8" font-family="Times,serif" font-size="14.00">long</text>
</g>
<!-- n2_port_6&#45;&gt;n0_place_4 -->
<g id="edge4" class="edge">
<title>n2_port_6&#45;&gt;n0_place_4</title>
<path fill="none" stroke="black" d="M1510.38,-506C1536.72,-506 1567.91,-506 1597.3,-506"/>
<polygon fill="black" stroke="black" points="1597.6,-509.5 1607.6,-506 1597.6,-502.5 1597.6,-509.5"/>
</g>
<!-- n2_modcall -->
<g id="node32" class="node">
<title>n2_modcall</title>
<polygon fill="white" stroke="black" points="1536.98,-371 1353.98,-371 1353.98,-335 1536.98,-335 1536.98,-371"/>
<text text-anchor="middle" x="1445.48" y="-349.3" font-family="Times,serif" font-size="14.00">singular_template.LIFT</text>
</g>
<!-- n3_condition -->
<g id="node33" class="node">
<title>n3_condition</title>
<polygon fill="white" stroke="black" points="919.98,-677 919.98,-713 1005.98,-713 1005.98,-677 919.98,-677"/>
<text text-anchor="middle" x="962.98" y="-691.3" font-family="Times,serif" font-size="14.00">LEADSYZ</text>
</g>
<!-- n3_port_4 -->
<g id="node38" class="node">
<title>n3_port_4</title>
<polygon fill="white" stroke="black" points="920.33,-194.67 962.98,-171.57 1005.64,-194.67 1005.6,-232.04 920.37,-232.04 920.33,-194.67"/>
<text text-anchor="middle" x="962.98" y="-208.8" font-family="Times,serif" font-size="14.00">OUT</text>
<text text-anchor="middle" x="962.98" y="-193.8" font-family="Times,serif" font-size="14.00">list</text>
</g>
<!-- n3_port_4&#45;&gt;n0_place_2 -->
<g id="edge12" class="edge">
<title>n3_port_4&#45;&gt;n0_place_2</title>
<path fill="none" stroke="black" d="M1005.76,-204.05C1039.56,-204.9 1088,-206.13 1128.31,-207.14"/>
<path fill="none" stroke="transparent" d="M1005.71,-206.05C1039.51,-206.9 1087.95,-208.13 1128.26,-209.14"/>
<path fill="none" stroke="black" d="M1005.66,-208.05C1039.46,-208.9 1087.9,-210.12 1128.21,-211.14"/>
<polygon fill="black" stroke="black" points="1128.23,-212.64 1138.31,-209.4 1128.41,-205.64 1128.23,-212.64"/>
</g>
<!-- n3_port_5 -->
<g id="node39" class="node">
<title>n3_port_5</title>
<polygon fill="white" stroke="black" points="900.87,-278.67 962.98,-255.57 1025.09,-278.67 1025.04,-316.04 900.93,-316.04 900.87,-278.67"/>
<text text-anchor="middle" x="962.98" y="-292.8" font-family="Times,serif" font-size="14.00">counter</text>
<text text-anchor="middle" x="962.98" y="-277.8" font-family="Times,serif" font-size="14.00">int</text>
</g>
<!-- n3_port_5&#45;&gt;n0_place_8 -->
<g id="edge11" class="edge">
<title>n3_port_5&#45;&gt;n0_place_8</title>
<path fill="none" stroke="black" d="M1025.27,-289C1051.27,-289 1082.11,-289 1110.69,-289"/>
<polygon fill="black" stroke="black" points="1110.7,-292.5 1120.7,-289 1110.7,-285.5 1110.7,-292.5"/>
</g>
<!-- n3_modcall -->
<g id="node40" class="node">
<title>n3_modcall</title>
<polygon fill="white" stroke="black" points="1064.48,-154 861.48,-154 861.48,-118 1064.48,-118 1064.48,-154"/>
<text text-anchor="middle" x="962.98" y="-132.3" font-family="Times,serif" font-size="14.00">singular_template.leadsyz</text>
</g>
<!-- n4_condition -->
<g id="node41" class="node">
<title>n4_condition</title>
<polygon fill="white" stroke="black" points="924.48,-1297 924.48,-1333 1001.48,-1333 1001.48,-1297 924.48,-1297"/>
<text text-anchor="middle" x="962.98" y="-1311.3" font-family="Times,serif" font-size="14.00">All_Lead</text>
</g>
<!-- n4_port_2 -->
<g id="node46" class="node">
<title>n4_port_2</title>
<polygon fill="white" stroke="black" points="893.89,-898.67 962.98,-875.57 1032.08,-898.67 1032.01,-936.04 893.95,-936.04 893.89,-898.67"/>
<text text-anchor="middle" x="962.98" y="-912.8" font-family="Times,serif" font-size="14.00">OUTPUT</text>
<text text-anchor="middle" x="962.98" y="-897.8" font-family="Times,serif" font-size="14.00">list</text>
</g>
<!-- n4_port_2&#45;&gt;n0_place_6 -->
<g id="edge18" class="edge">
<title>n4_port_2&#45;&gt;n0_place_6</title>
<path fill="none" stroke="black" d="M1032.13,-905.28C1055.55,-904.69 1082.2,-904.02 1107.34,-903.39"/>
<path fill="none" stroke="transparent" d="M1032.18,-907.28C1055.6,-906.69 1082.25,-906.02 1107.39,-905.38"/>
<path fill="none" stroke="black" d="M1032.23,-909.28C1055.65,-908.69 1082.31,-908.02 1107.44,-907.38"/>
<polygon fill="black" stroke="black" points="1107.77,-908.88 1117.68,-905.13 1107.59,-901.88 1107.77,-908.88"/>
</g>
<!-- n4_port_5 -->
<g id="node47" class="node">
<title>n4_port_5</title>
<polygon fill="white" stroke="black" points="900.87,-814.67 962.98,-791.57 1025.09,-814.67 1025.04,-852.04 900.93,-852.04 900.87,-814.67"/>
<text text-anchor="middle" x="962.98" y="-828.8" font-family="Times,serif" font-size="14.00">counter</text>
<text text-anchor="middle" x="962.98" y="-813.8" font-family="Times,serif" font-size="14.00">int</text>
</g>
<!-- n4_port_5&#45;&gt;n0_place_11 -->
<g id="edge17" class="edge">
<title>n4_port_5&#45;&gt;n0_place_11</title>
<path fill="none" stroke="black" d="M1025.27,-825C1046.24,-825 1070.36,-825 1093.91,-825"/>
<polygon fill="black" stroke="black" points="1093.96,-828.5 1103.96,-825 1093.96,-821.5 1093.96,-828.5"/>
</g>
<!-- n4_modcall -->
<g id="node48" class="node">
<title>n4_modcall</title>
<polygon fill="white" stroke="black" points="1067.98,-774 857.98,-774 857.98,-738 1067.98,-738 1067.98,-774"/>
<text text-anchor="middle" x="962.98" y="-752.3" font-family="Times,serif" font-size="14.00">singular_template.All_Lead</text>
</g>
<!-- n5_condition -->
<g id="node49" class="node">
<title>n5_condition</title>
<polygon fill="white" stroke="black" points="397.99,-593 397.99,-629 465.99,-629 465.99,-593 397.99,-593"/>
<text text-anchor="middle" x="431.99" y="-607.3" font-family="Times,serif" font-size="14.00">Initiate</text>
</g>
<!-- n5_port_1 -->
<g id="node51" class="node">
<title>n5_port_1</title>
<polygon fill="white" stroke="black" points="376.11,-446.67 431.99,-423.57 487.87,-446.67 487.81,-484.04 376.17,-484.04 376.11,-446.67"/>
<text text-anchor="middle" x="431.99" y="-460.8" font-family="Times,serif" font-size="14.00">output</text>
<text text-anchor="middle" x="431.99" y="-445.8" font-family="Times,serif" font-size="14.00">string</text>
</g>
<!-- n5_port_1&#45;&gt;n0_place_3 -->
<g id="edge24" class="edge">
<title>n5_port_1&#45;&gt;n0_place_3</title>
<path fill="none" stroke="black" d="M487.94,-457C519.23,-457 559.37,-457 595.98,-457"/>
<polygon fill="black" stroke="black" points="596.2,-460.5 606.2,-457 596.2,-453.5 596.2,-460.5"/>
</g>
<!-- n5_port_2 -->
<g id="node52" class="node">
<title>n5_port_2</title>
<polygon fill="white" stroke="black" points="373.37,-362.67 431.99,-339.57 490.61,-362.67 490.56,-400.04 373.42,-400.04 373.37,-362.67"/>
<text text-anchor="middle" x="431.99" y="-376.8" font-family="Times,serif" font-size="14.00">c</text>
<text text-anchor="middle" x="431.99" y="-361.8" font-family="Times,serif" font-size="14.00">control</text>
</g>
<!-- n5_port_2&#45;&gt;n0_place_9 -->
<g id="edge23" class="edge">
<title>n5_port_2&#45;&gt;n0_place_9</title>
<path fill="none" stroke="black" d="M490.84,-373C525.02,-373 568.99,-373 607.38,-373"/>
<polygon fill="black" stroke="black" points="607.52,-376.5 617.52,-373 607.52,-369.5 607.52,-376.5"/>
</g>
<!-- n5_modcall -->
<g id="node53" class="node">
<title>n5_modcall</title>
<polygon fill="white" stroke="black" points="519.49,-322 344.49,-322 344.49,-286 519.49,-286 519.49,-322"/>
<text text-anchor="middle" x="431.99" y="-300.3" font-family="Times,serif" font-size="14.00">singular_template.Init</text>
</g>
</g>
</svg>
