<?xml version="1.0" encoding="UTF-8" standalone="no"?>
<!DOCTYPE svg PUBLIC "-//W3C//DTD SVG 1.1//EN"
 "http://www.w3.org/Graphics/SVG/1.1/DTD/svg11.dtd">
<!-- Generated by graphviz version 2.43.0 (0)
 -->
<!-- Title: template Pages: 1 -->
<svg width="2375pt" height="1664pt"
 viewBox="0.00 0.00 2375.19 1664.36" xmlns="http://www.w3.org/2000/svg" xmlns:xlink="http://www.w3.org/1999/xlink">
<g id="graph0" class="graph" transform="scale(1 1) rotate(0) translate(4 1660.36)">
<title>template</title>
<polygon fill="white" stroke="transparent" points="-4,4 -4,-1660.36 2371.19,-1660.36 2371.19,4 -4,4"/>
<g id="clust1" class="cluster">
<title>cluster_0</title>
<polygon fill="dimgray" stroke="black" points="8,-24.36 8,-1648.36 2359.19,-1648.36 2359.19,-24.36 8,-24.36"/>
</g>
<g id="clust2" class="cluster">
<title>cluster_net_0</title>
<polygon fill="white" stroke="black" points="147.14,-106.36 147.14,-1482.36 2351.19,-1482.36 2351.19,-106.36 147.14,-106.36"/>
</g>
<g id="clust3" class="cluster">
<title>cluster_place_9</title>
</g>
<g id="clust4" class="cluster">
<title>cluster_1</title>
<polygon fill="yellow" stroke="black" points="1494.53,-1016.36 1494.53,-1376.36 1772.53,-1376.36 1772.53,-1016.36 1494.53,-1016.36"/>
</g>
<g id="clust5" class="cluster">
<title>cluster_2</title>
<polygon fill="yellow" stroke="black" points="890,-146.36 890,-842.36 1110.52,-842.36 1110.52,-146.36 890,-146.36"/>
</g>
<g id="clust6" class="cluster">
<title>cluster_3</title>
<polygon fill="yellow" stroke="black" points="887.26,-850.36 887.26,-1462.36 1113.26,-1462.36 1113.26,-850.36 887.26,-850.36"/>
</g>
<g id="clust7" class="cluster">
<title>cluster_4</title>
<polygon fill="yellow" stroke="black" points="2073.19,-1133.36 2073.19,-1435.36 2343.19,-1435.36 2343.19,-1133.36 2073.19,-1133.36"/>
</g>
<g id="clust8" class="cluster">
<title>cluster_5</title>
<polygon fill="yellow" stroke="black" points="1518.02,-309.36 1518.02,-921.36 1749.03,-921.36 1749.03,-309.36 1518.02,-309.36"/>
</g>
<g id="clust9" class="cluster">
<title>cluster_6</title>
<polygon fill="yellow" stroke="black" points="341.53,-314.36 341.53,-758.36 579.53,-758.36 579.53,-314.36 341.53,-314.36"/>
</g>
<!-- n0_condition -->
<g id="node1" class="node">
<title>n0_condition</title>
<polygon fill="white" stroke="black" points="27.57,-1158.36 27.57,-1194.36 107.57,-1194.36 107.57,-1158.36 27.57,-1158.36"/>
<text text-anchor="middle" x="67.57" y="-1172.66" font-family="Times,serif" font-size="14.00">template</text>
</g>
<!-- n0_port_0 -->
<g id="node2" class="node">
<title>n0_port_0</title>
<polygon fill="white" stroke="black" points="562.55,-1617.69 460.53,-1640.79 358.5,-1617.69 358.6,-1580.32 562.46,-1580.32 562.55,-1617.69"/>
<text text-anchor="middle" x="460.53" y="-1611.16" font-family="Times,serif" font-size="14.00">base_filename</text>
<text text-anchor="middle" x="460.53" y="-1596.16" font-family="Times,serif" font-size="14.00">string</text>
</g>
<!-- n0_place_8 -->
<g id="node11" class="node">
<title>n0_place_8</title>
<ellipse fill="white" stroke="black" cx="733.39" cy="-1406.36" rx="113.69" ry="26.74"/>
<text text-anchor="middle" x="733.39" y="-1410.16" font-family="Times,serif" font-size="14.00">place_base_filename</text>
<text text-anchor="middle" x="733.39" y="-1395.16" font-family="Times,serif" font-size="14.00">string</text>
</g>
<!-- n0_port_0&#45;&gt;n0_place_8 -->
<g id="edge30" class="edge">
<title>n0_port_0&#45;&gt;n0_place_8</title>
<path fill="none" stroke="black" stroke-dasharray="1,5" d="M551.58,-1580.31C561.33,-1575.94 570.85,-1570.97 579.53,-1565.36 635.98,-1528.9 686.87,-1467.7 713.3,-1432.82"/>
</g>
<!-- n0_port_1 -->
<g id="node3" class="node">
<title>n0_port_1</title>
<polygon fill="white" stroke="black" points="556.81,-1533.69 460.53,-1556.79 364.24,-1533.69 364.33,-1496.32 556.73,-1496.32 556.81,-1533.69"/>
<text text-anchor="middle" x="460.53" y="-1527.16" font-family="Times,serif" font-size="14.00">library_name</text>
<text text-anchor="middle" x="460.53" y="-1512.16" font-family="Times,serif" font-size="14.00">string</text>
</g>
<!-- n0_place_10 -->
<g id="node8" class="node">
<title>n0_place_10</title>
<ellipse fill="white" stroke="black" cx="733.39" cy="-929.36" rx="109.7" ry="26.74"/>
<text text-anchor="middle" x="733.39" y="-933.16" font-family="Times,serif" font-size="14.00">place_library_name</text>
<text text-anchor="middle" x="733.39" y="-918.16" font-family="Times,serif" font-size="14.00">string</text>
</g>
<!-- n0_port_1&#45;&gt;n0_place_10 -->
<g id="edge31" class="edge">
<title>n0_port_1&#45;&gt;n0_place_10</title>
<path fill="none" stroke="black" stroke-dasharray="1,5" d="M473.87,-1496.29C519.05,-1397.23 675.09,-1055.02 720.13,-956.25"/>
</g>
<!-- n0_port_2 -->
<g id="node4" class="node">
<title>n0_port_2</title>
<polygon fill="white" stroke="black" points="119.2,-671.69 67.57,-694.79 15.93,-671.69 15.98,-634.32 119.16,-634.32 119.2,-671.69"/>
<text text-anchor="middle" x="67.57" y="-665.16" font-family="Times,serif" font-size="14.00">input</text>
<text text-anchor="middle" x="67.57" y="-650.16" font-family="Times,serif" font-size="14.00">string</text>
</g>
<!-- n0_place_3 -->
<g id="node16" class="node">
<title>n0_place_3</title>
<ellipse fill="white" stroke="black" cx="234.33" cy="-661.36" rx="79.39" ry="26.74"/>
<text text-anchor="middle" x="234.33" y="-665.16" font-family="Times,serif" font-size="14.00">place_initiate</text>
<text text-anchor="middle" x="234.33" y="-650.16" font-family="Times,serif" font-size="14.00">string</text>
</g>
<!-- n0_port_2&#45;&gt;n0_place_3 -->
<g id="edge32" class="edge">
<title>n0_port_2&#45;&gt;n0_place_3</title>
<path fill="none" stroke="black" stroke-dasharray="1,5" d="M119.35,-661.36C130.6,-661.36 142.78,-661.36 154.85,-661.36"/>
</g>
<!-- n0_port_3 -->
<g id="node5" class="node">
<title>n0_port_3</title>
<polygon fill="white" stroke="black" points="1564.43,-55.03 1633.53,-31.93 1702.62,-55.03 1702.56,-92.4 1564.49,-92.4 1564.43,-55.03"/>
<text text-anchor="middle" x="1633.53" y="-69.16" font-family="Times,serif" font-size="14.00">OUTPUT</text>
<text text-anchor="middle" x="1633.53" y="-54.16" font-family="Times,serif" font-size="14.00">string</text>
</g>
<!-- n0_place_5 -->
<g id="node14" class="node">
<title>n0_place_5</title>
<ellipse fill="white" stroke="black" cx="1922.86" cy="-229.36" rx="60.62" ry="26.74"/>
<text text-anchor="middle" x="1922.86" y="-233.16" font-family="Times,serif" font-size="14.00">place_Tau</text>
<text text-anchor="middle" x="1922.86" y="-218.16" font-family="Times,serif" font-size="14.00">string</text>
</g>
<!-- n0_port_3&#45;&gt;n0_place_5 -->
<g id="edge33" class="edge">
<title>n0_port_3&#45;&gt;n0_place_5</title>
<path fill="none" stroke="black" stroke-dasharray="1,5" d="M1681.97,-92.44C1738.88,-124.92 1833.05,-178.67 1884.86,-208.24"/>
</g>
<!-- n0_place_12 -->
<g id="node6" class="node">
<title>n0_place_12</title>
<ellipse fill="white" stroke="black" cx="1303.89" cy="-325.36" rx="79.81" ry="26.74"/>
<text text-anchor="middle" x="1303.89" y="-329.16" font-family="Times,serif" font-size="14.00">place_SubLift</text>
<text text-anchor="middle" x="1303.89" y="-314.16" font-family="Times,serif" font-size="14.00">string</text>
</g>
<!-- n0_place_11 -->
<g id="node7" class="node">
<title>n0_place_11</title>
<ellipse fill="white" stroke="black" cx="1303.89" cy="-800.36" rx="85.62" ry="26.74"/>
<text text-anchor="middle" x="1303.89" y="-804.16" font-family="Times,serif" font-size="14.00">place_All_Lead</text>
<text text-anchor="middle" x="1303.89" y="-789.16" font-family="Times,serif" font-size="14.00">string</text>
</g>
<!-- n5_port_4 -->
<g id="node52" class="node">
<title>n5_port_4</title>
<polygon fill="white" stroke="black" points="1695.64,-666.69 1633.53,-689.79 1571.41,-666.69 1571.47,-629.32 1695.58,-629.32 1695.64,-666.69"/>
<text text-anchor="middle" x="1633.53" y="-660.16" font-family="Times,serif" font-size="14.00">all_lead</text>
<text text-anchor="middle" x="1633.53" y="-645.16" font-family="Times,serif" font-size="14.00">string</text>
</g>
<!-- n0_place_11&#45;&gt;n5_port_4 -->
<g id="edge22" class="edge">
<title>n0_place_11&#45;&gt;n5_port_4</title>
<path fill="none" stroke="black" stroke-dasharray="5,2" d="M1343.73,-776.52C1381.29,-754.17 1440.34,-720.92 1494.53,-698.36 1518.61,-688.34 1545.93,-679.52 1569.88,-672.58"/>
<polygon fill="black" stroke="black" points="1570.91,-675.93 1579.57,-669.82 1568.99,-669.2 1570.91,-675.93"/>
</g>
<!-- n2_port_0 -->
<g id="node28" class="node">
<title>n2_port_0</title>
<polygon fill="white" stroke="black" points="1096.54,-671.69 1000.26,-694.79 903.97,-671.69 904.06,-634.32 1096.46,-634.32 1096.54,-671.69"/>
<text text-anchor="middle" x="1000.26" y="-665.16" font-family="Times,serif" font-size="14.00">library_name</text>
<text text-anchor="middle" x="1000.26" y="-650.16" font-family="Times,serif" font-size="14.00">string</text>
</g>
<!-- n0_place_10&#45;&gt;n2_port_0 -->
<g id="edge11" class="edge">
<title>n0_place_10&#45;&gt;n2_port_0</title>
<path fill="none" stroke="black" stroke-dasharray="5,2" d="M745.87,-902.41C767.13,-855.55 816.94,-758.78 887.26,-703.36 897.95,-694.93 910.52,-688.06 923.3,-682.51"/>
<polygon fill="black" stroke="black" points="924.68,-685.73 932.61,-678.7 922.03,-679.25 924.68,-685.73"/>
</g>
<!-- n3_port_0 -->
<g id="node37" class="node">
<title>n3_port_0</title>
<polygon fill="white" stroke="black" points="1096.54,-1207.69 1000.26,-1230.79 903.97,-1207.69 904.06,-1170.32 1096.46,-1170.32 1096.54,-1207.69"/>
<text text-anchor="middle" x="1000.26" y="-1201.16" font-family="Times,serif" font-size="14.00">library_name</text>
<text text-anchor="middle" x="1000.26" y="-1186.16" font-family="Times,serif" font-size="14.00">string</text>
</g>
<!-- n0_place_10&#45;&gt;n3_port_0 -->
<g id="edge17" class="edge">
<title>n0_place_10&#45;&gt;n3_port_0</title>
<path fill="none" stroke="black" stroke-dasharray="5,2" d="M745.87,-956.31C767.13,-1003.17 816.94,-1099.95 887.26,-1155.36 891.86,-1158.98 896.8,-1162.32 901.95,-1165.38"/>
<polygon fill="black" stroke="black" points="900.37,-1168.51 910.81,-1170.29 903.76,-1162.38 900.37,-1168.51"/>
</g>
<!-- n5_port_0 -->
<g id="node49" class="node">
<title>n5_port_0</title>
<polygon fill="white" stroke="black" points="1741.04,-582.69 1633.53,-605.79 1526.01,-582.69 1526.12,-545.32 1740.94,-545.32 1741.04,-582.69"/>
<text text-anchor="middle" x="1633.53" y="-576.16" font-family="Times,serif" font-size="14.00">needed_library</text>
<text text-anchor="middle" x="1633.53" y="-561.16" font-family="Times,serif" font-size="14.00">string</text>
</g>
<!-- n0_place_10&#45;&gt;n5_port_0 -->
<g id="edge25" class="edge">
<title>n0_place_10&#45;&gt;n5_port_0</title>
<path fill="none" stroke="black" stroke-dasharray="5,2" d="M748.46,-902.4C775.57,-848.95 834.52,-725.09 859.26,-613.36 870.59,-562.17 849.1,-178.31 887.26,-142.36 973.44,-61.15 1441.58,-178.05 1466.53,-205.36 1515.41,-258.89 1448.91,-474.02 1494.53,-530.36 1500.85,-538.17 1508.58,-544.56 1517.12,-549.79"/>
<polygon fill="black" stroke="black" points="1515.47,-552.88 1525.92,-554.64 1518.85,-546.75 1515.47,-552.88"/>
</g>
<!-- n0_place_9 -->
<g id="node9" class="node">
<title>n0_place_9</title>
<ellipse fill="white" stroke="black" cx="1303.89" cy="-1420.36" rx="64.19" ry="26.74"/>
<text text-anchor="middle" x="1303.89" y="-1424.16" font-family="Times,serif" font-size="14.00">place_lead</text>
<text text-anchor="middle" x="1303.89" y="-1409.16" font-family="Times,serif" font-size="14.00">string</text>
</g>
<!-- n0_place_15 -->
<g id="node10" class="node">
<title>n0_place_15</title>
<ellipse fill="orange" stroke="black" cx="1633.53" cy="-1429.36" rx="82.96" ry="37.45"/>
<text text-anchor="middle" x="1633.53" y="-1440.66" font-family="Times,serif" font-size="14.00">#place_lead</text>
<text text-anchor="middle" x="1633.53" y="-1425.66" font-family="Times,serif" font-size="14.00">unsigned long</text>
<text text-anchor="middle" x="1633.53" y="-1410.66" font-family="Times,serif" font-size="14.00">0UL</text>
</g>
<!-- n0_place_9&#45;&gt;n0_place_15 -->
<g id="edge1" class="edge">
<title>n0_place_9&#45;&gt;n0_place_15</title>
<path fill="none" stroke="black" stroke-dasharray="1,5" d="M1368.45,-1422.11C1420.46,-1423.54 1494.39,-1425.57 1550.8,-1427.12"/>
</g>
<!-- n1_port_1 -->
<g id="node24" class="node">
<title>n1_port_1</title>
<polygon fill="white" stroke="black" points="1685.16,-1289.69 1633.53,-1312.79 1581.89,-1289.69 1581.94,-1252.32 1685.11,-1252.32 1685.16,-1289.69"/>
<text text-anchor="middle" x="1633.53" y="-1283.16" font-family="Times,serif" font-size="14.00">in</text>
<text text-anchor="middle" x="1633.53" y="-1268.16" font-family="Times,serif" font-size="14.00">string</text>
</g>
<!-- n0_place_9&#45;&gt;n1_port_1 -->
<g id="edge4" class="edge">
<title>n0_place_9&#45;&gt;n1_port_1</title>
<path fill="none" stroke="black" stroke-dasharray="5,2" d="M1368.35,-1421.9C1400.87,-1419.54 1439.25,-1411.52 1466.53,-1389.36 1491.58,-1369.01 1470.66,-1344.09 1494.53,-1322.36 1515.67,-1303.11 1545.33,-1292.48 1571.74,-1286.61"/>
<polygon fill="black" stroke="black" points="1572.58,-1290.01 1581.68,-1284.58 1571.18,-1283.15 1572.58,-1290.01"/>
</g>
<!-- n5_port_2 -->
<g id="node51" class="node">
<title>n5_port_2</title>
<polygon fill="white" stroke="black" points="1685.16,-834.69 1633.53,-857.79 1581.89,-834.69 1581.94,-797.32 1685.11,-797.32 1685.16,-834.69"/>
<text text-anchor="middle" x="1633.53" y="-828.16" font-family="Times,serif" font-size="14.00">lead</text>
<text text-anchor="middle" x="1633.53" y="-813.16" font-family="Times,serif" font-size="14.00">string</text>
</g>
<!-- n0_place_9&#45;&gt;n5_port_2 -->
<g id="edge21" class="edge">
<title>n0_place_9&#45;&gt;n5_port_2</title>
<path fill="none" stroke="black" d="M1367.27,-1425.54C1401.76,-1424.73 1442.39,-1417.03 1466.53,-1389.36 1542.9,-1301.83 1423.2,-959.05 1494.53,-867.36 1512.78,-843.9 1543.69,-832.94 1571.63,-827.94"/>
<polygon fill="black" stroke="black" points="1572.42,-831.36 1581.76,-826.36 1571.34,-824.45 1572.42,-831.36"/>
</g>
<!-- n4_port_1 -->
<g id="node46" class="node">
<title>n4_port_1</title>
<polygon fill="white" stroke="black" points="2310.21,-1322.69 2208.19,-1345.79 2106.16,-1322.69 2106.26,-1285.32 2310.11,-1285.32 2310.21,-1322.69"/>
<text text-anchor="middle" x="2208.19" y="-1316.16" font-family="Times,serif" font-size="14.00">k2</text>
<text text-anchor="middle" x="2208.19" y="-1301.16" font-family="Times,serif" font-size="14.00">unsigned long</text>
</g>
<!-- n0_place_15&#45;&gt;n4_port_1 -->
<g id="edge18" class="edge">
<title>n0_place_15&#45;&gt;n4_port_1</title>
<path fill="none" stroke="black" stroke-dasharray="5,2" d="M1714.76,-1436.76C1801.04,-1441.19 1939.99,-1437.91 2045.19,-1385.36 2061.5,-1377.21 2057.78,-1365.13 2073.19,-1355.36 2088.42,-1345.7 2106.01,-1338.04 2123.33,-1332.02"/>
<polygon fill="black" stroke="black" points="2124.52,-1335.31 2132.91,-1328.84 2122.32,-1328.67 2124.52,-1335.31"/>
</g>
<!-- n2_port_1 -->
<g id="node29" class="node">
<title>n2_port_1</title>
<polygon fill="white" stroke="black" points="1102.28,-755.69 1000.26,-778.79 898.23,-755.69 898.33,-718.32 1102.19,-718.32 1102.28,-755.69"/>
<text text-anchor="middle" x="1000.26" y="-749.16" font-family="Times,serif" font-size="14.00">base_filename</text>
<text text-anchor="middle" x="1000.26" y="-734.16" font-family="Times,serif" font-size="14.00">string</text>
</g>
<!-- n0_place_8&#45;&gt;n2_port_1 -->
<g id="edge10" class="edge">
<title>n0_place_8&#45;&gt;n2_port_1</title>
<path fill="none" stroke="black" stroke-dasharray="5,2" d="M793.72,-1383.54C818.35,-1370.87 844.56,-1352.49 859.26,-1327.36 919.82,-1223.83 816.78,-885.41 887.26,-788.36 894.07,-778.98 903.22,-771.64 913.37,-765.9"/>
<polygon fill="black" stroke="black" points="915.18,-768.91 922.51,-761.26 912.01,-762.67 915.18,-768.91"/>
</g>
<!-- n3_port_1 -->
<g id="node38" class="node">
<title>n3_port_1</title>
<polygon fill="white" stroke="black" points="1102.28,-1375.69 1000.26,-1398.79 898.23,-1375.69 898.33,-1338.32 1102.19,-1338.32 1102.28,-1375.69"/>
<text text-anchor="middle" x="1000.26" y="-1369.16" font-family="Times,serif" font-size="14.00">base_filename</text>
<text text-anchor="middle" x="1000.26" y="-1354.16" font-family="Times,serif" font-size="14.00">string</text>
</g>
<!-- n0_place_8&#45;&gt;n3_port_1 -->
<g id="edge16" class="edge">
<title>n0_place_8&#45;&gt;n3_port_1</title>
<path fill="none" stroke="black" stroke-dasharray="5,2" d="M828.89,-1391.73C852.55,-1388.07 877.98,-1384.13 901.78,-1380.45"/>
<polygon fill="black" stroke="black" points="902.52,-1383.88 911.87,-1378.89 901.45,-1376.96 902.52,-1383.88"/>
</g>
<!-- n5_port_1 -->
<g id="node50" class="node">
<title>n5_port_1</title>
<polygon fill="white" stroke="black" points="1735.55,-750.69 1633.53,-773.79 1531.5,-750.69 1531.6,-713.32 1735.46,-713.32 1735.55,-750.69"/>
<text text-anchor="middle" x="1633.53" y="-744.16" font-family="Times,serif" font-size="14.00">base_filename</text>
<text text-anchor="middle" x="1633.53" y="-729.16" font-family="Times,serif" font-size="14.00">string</text>
</g>
<!-- n0_place_8&#45;&gt;n5_port_1 -->
<g id="edge24" class="edge">
<title>n0_place_8&#45;&gt;n5_port_1</title>
<path fill="none" stroke="black" stroke-dasharray="5,2" d="M775.64,-1431.45C851.91,-1474.27 1016.05,-1549.17 1113.26,-1466.36 1172.88,-1415.56 1099.62,-1358.7 1141.26,-1292.36 1234.98,-1143.05 1377.4,-1217.46 1466.53,-1065.36 1498.48,-1010.84 1454.45,-831.22 1494.53,-782.36 1503.88,-770.96 1516.24,-762.57 1529.72,-756.43"/>
<polygon fill="black" stroke="black" points="1531.3,-759.57 1539.21,-752.53 1528.63,-753.09 1531.3,-759.57"/>
</g>
<!-- n0_place_7 -->
<g id="node12" class="node">
<title>n0_place_7</title>
<ellipse fill="white" stroke="black" cx="733.39" cy="-493.36" rx="89.61" ry="26.74"/>
<text text-anchor="middle" x="733.39" y="-497.16" font-family="Times,serif" font-size="14.00">place_input_GB</text>
<text text-anchor="middle" x="733.39" y="-482.16" font-family="Times,serif" font-size="14.00">string</text>
</g>
<!-- n2_port_2 -->
<g id="node30" class="node">
<title>n2_port_2</title>
<polygon fill="white" stroke="black" points="1051.89,-503.69 1000.26,-526.79 948.62,-503.69 948.67,-466.32 1051.85,-466.32 1051.89,-503.69"/>
<text text-anchor="middle" x="1000.26" y="-497.16" font-family="Times,serif" font-size="14.00">input</text>
<text text-anchor="middle" x="1000.26" y="-482.16" font-family="Times,serif" font-size="14.00">string</text>
</g>
<!-- n0_place_7&#45;&gt;n2_port_2 -->
<g id="edge9" class="edge">
<title>n0_place_7&#45;&gt;n2_port_2</title>
<path fill="none" stroke="black" stroke-dasharray="5,2" d="M823.33,-493.36C861.05,-493.36 904.08,-493.36 938.13,-493.36"/>
<polygon fill="black" stroke="black" points="938.4,-496.86 948.4,-493.36 938.4,-489.86 938.4,-496.86"/>
</g>
<!-- n3_port_4 -->
<g id="node40" class="node">
<title>n3_port_4</title>
<polygon fill="white" stroke="black" points="1051.89,-1123.69 1000.26,-1146.79 948.62,-1123.69 948.67,-1086.32 1051.85,-1086.32 1051.89,-1123.69"/>
<text text-anchor="middle" x="1000.26" y="-1117.16" font-family="Times,serif" font-size="14.00">init</text>
<text text-anchor="middle" x="1000.26" y="-1102.16" font-family="Times,serif" font-size="14.00">string</text>
</g>
<!-- n0_place_7&#45;&gt;n3_port_4 -->
<g id="edge15" class="edge">
<title>n0_place_7&#45;&gt;n3_port_4</title>
<path fill="none" stroke="black" stroke-dasharray="5,2" d="M810.59,-507.25C829.37,-514.36 847.45,-525.11 859.26,-541.36 928.58,-636.78 817.54,-976.23 887.26,-1071.36 899.49,-1088.05 919.17,-1098.12 938.65,-1104.18"/>
<polygon fill="black" stroke="black" points="937.9,-1107.6 948.47,-1106.92 939.78,-1100.86 937.9,-1107.6"/>
</g>
<!-- n5_port_5 -->
<g id="node53" class="node">
<title>n5_port_5</title>
<polygon fill="white" stroke="black" points="1720.83,-498.69 1633.53,-521.79 1546.22,-498.69 1546.3,-461.32 1720.75,-461.32 1720.83,-498.69"/>
<text text-anchor="middle" x="1633.53" y="-492.16" font-family="Times,serif" font-size="14.00">input_name</text>
<text text-anchor="middle" x="1633.53" y="-477.16" font-family="Times,serif" font-size="14.00">string</text>
</g>
<!-- n0_place_7&#45;&gt;n5_port_5 -->
<g id="edge23" class="edge">
<title>n0_place_7&#45;&gt;n5_port_5</title>
<path fill="none" stroke="black" stroke-dasharray="5,2" d="M810.21,-479.19C828.98,-472.08 847.16,-461.4 859.26,-445.36 901.58,-389.26 835.41,-177.8 887.26,-130.36 1077.19,43.44 1276.62,43.47 1466.53,-130.36 1518.53,-177.96 1450.1,-391.63 1494.53,-446.36 1505.41,-459.77 1520.45,-469 1536.61,-475.34"/>
<polygon fill="black" stroke="black" points="1535.63,-478.7 1546.23,-478.74 1537.97,-472.1 1535.63,-478.7"/>
</g>
<!-- n0_place_6 -->
<g id="node13" class="node">
<title>n0_place_6</title>
<ellipse fill="white" stroke="black" cx="1303.89" cy="-241.36" rx="82.05" ry="26.74"/>
<text text-anchor="middle" x="1303.89" y="-245.16" font-family="Times,serif" font-size="14.00">place_counter</text>
<text text-anchor="middle" x="1303.89" y="-230.16" font-family="Times,serif" font-size="14.00">int</text>
</g>
<!-- n0_place_4 -->
<g id="node15" class="node">
<title>n0_place_4</title>
<ellipse fill="white" stroke="black" cx="733.39" cy="-577.36" rx="78.48" ry="26.74"/>
<text text-anchor="middle" x="733.39" y="-581.16" font-family="Times,serif" font-size="14.00">place_control</text>
<text text-anchor="middle" x="733.39" y="-566.16" font-family="Times,serif" font-size="14.00">control</text>
</g>
<!-- n2_port_3 -->
<g id="node31" class="node">
<title>n2_port_3</title>
<polygon fill="white" stroke="black" points="1058.88,-587.69 1000.26,-610.79 941.64,-587.69 941.69,-550.32 1058.82,-550.32 1058.88,-587.69"/>
<text text-anchor="middle" x="1000.26" y="-581.16" font-family="Times,serif" font-size="14.00">s</text>
<text text-anchor="middle" x="1000.26" y="-566.16" font-family="Times,serif" font-size="14.00">control</text>
</g>
<!-- n0_place_4&#45;&gt;n2_port_3 -->
<g id="edge8" class="edge">
<title>n0_place_4&#45;&gt;n2_port_3</title>
<path fill="none" stroke="black" d="M812.07,-577.36C849.88,-577.36 894.92,-577.36 931.35,-577.36"/>
<polygon fill="black" stroke="black" points="931.38,-580.86 941.38,-577.36 931.38,-573.86 931.38,-580.86"/>
</g>
<!-- n6_port_1 -->
<g id="node57" class="node">
<title>n6_port_1</title>
<polygon fill="white" stroke="black" points="512.16,-671.69 460.53,-694.79 408.89,-671.69 408.94,-634.32 512.12,-634.32 512.16,-671.69"/>
<text text-anchor="middle" x="460.53" y="-665.16" font-family="Times,serif" font-size="14.00">input</text>
<text text-anchor="middle" x="460.53" y="-650.16" font-family="Times,serif" font-size="14.00">string</text>
</g>
<!-- n0_place_3&#45;&gt;n6_port_1 -->
<g id="edge29" class="edge">
<title>n0_place_3&#45;&gt;n6_port_1</title>
<path fill="none" stroke="black" d="M313.74,-661.36C341.61,-661.36 372.54,-661.36 398.72,-661.36"/>
<polygon fill="black" stroke="black" points="398.87,-664.86 408.87,-661.36 398.87,-657.86 398.87,-664.86"/>
</g>
<!-- n0_place_2 -->
<g id="node17" class="node">
<title>n0_place_2</title>
<ellipse fill="white" stroke="black" cx="1922.86" cy="-1189.36" rx="122.16" ry="26.74"/>
<text text-anchor="middle" x="1922.86" y="-1193.16" font-family="Times,serif" font-size="14.00">place_StartTime_LIFT</text>
<text text-anchor="middle" x="1922.86" y="-1178.16" font-family="Times,serif" font-size="14.00">long</text>
</g>
<!-- n4_port_0 -->
<g id="node45" class="node">
<title>n4_port_0</title>
<polygon fill="white" stroke="black" points="2287.01,-1238.69 2208.19,-1261.79 2129.36,-1238.69 2129.43,-1201.32 2286.94,-1201.32 2287.01,-1238.69"/>
<text text-anchor="middle" x="2208.19" y="-1232.16" font-family="Times,serif" font-size="14.00">start_time</text>
<text text-anchor="middle" x="2208.19" y="-1217.16" font-family="Times,serif" font-size="14.00">long</text>
</g>
<!-- n0_place_2&#45;&gt;n4_port_0 -->
<g id="edge19" class="edge">
<title>n0_place_2&#45;&gt;n4_port_0</title>
<path fill="none" stroke="black" d="M2026.95,-1203.55C2057.24,-1207.72 2090.07,-1212.24 2119.31,-1216.27"/>
<polygon fill="black" stroke="black" points="2119.11,-1219.77 2129.5,-1217.67 2120.07,-1212.84 2119.11,-1219.77"/>
</g>
<!-- n0_place_1 -->
<g id="node18" class="node">
<title>n0_place_1</title>
<ellipse fill="white" stroke="black" cx="733.39" cy="-1281.36" rx="125.73" ry="37.45"/>
<text text-anchor="middle" x="733.39" y="-1292.66" font-family="Times,serif" font-size="14.00">place_control_All_Lead</text>
<text text-anchor="middle" x="733.39" y="-1277.66" font-family="Times,serif" font-size="14.00">control</text>
<text text-anchor="middle" x="733.39" y="-1262.66" font-family="Times,serif" font-size="14.00">[]</text>
</g>
<!-- n3_port_3 -->
<g id="node39" class="node">
<title>n3_port_3</title>
<polygon fill="white" stroke="black" points="1058.88,-1291.69 1000.26,-1314.79 941.64,-1291.69 941.69,-1254.32 1058.82,-1254.32 1058.88,-1291.69"/>
<text text-anchor="middle" x="1000.26" y="-1285.16" font-family="Times,serif" font-size="14.00">C</text>
<text text-anchor="middle" x="1000.26" y="-1270.16" font-family="Times,serif" font-size="14.00">control</text>
</g>
<!-- n0_place_1&#45;&gt;n3_port_3 -->
<g id="edge14" class="edge">
<title>n0_place_1&#45;&gt;n3_port_3</title>
<path fill="none" stroke="black" d="M859.46,-1281.36C884.2,-1281.36 909.29,-1281.36 931.25,-1281.36"/>
<polygon fill="black" stroke="black" points="931.44,-1284.86 941.44,-1281.36 931.44,-1277.86 931.44,-1284.86"/>
</g>
<!-- n0_place_0 -->
<g id="node19" class="node">
<title>n0_place_0</title>
<ellipse fill="white" stroke="black" cx="1303.89" cy="-1029.36" rx="98.99" ry="26.74"/>
<text text-anchor="middle" x="1303.89" y="-1033.16" font-family="Times,serif" font-size="14.00">place_length_Res</text>
<text text-anchor="middle" x="1303.89" y="-1018.16" font-family="Times,serif" font-size="14.00">int</text>
</g>
<!-- n0_place_13 -->
<g id="node20" class="node">
<title>n0_place_13</title>
<ellipse fill="white" stroke="black" cx="733.39" cy="-409.36" rx="94.09" ry="26.74"/>
<text text-anchor="middle" x="733.39" y="-413.16" font-family="Times,serif" font-size="14.00">place_StartTime</text>
<text text-anchor="middle" x="733.39" y="-398.16" font-family="Times,serif" font-size="14.00">long</text>
</g>
<!-- n0_place_14 -->
<g id="node21" class="node">
<title>n0_place_14</title>
<ellipse fill="white" stroke="black" cx="1303.89" cy="-1338.36" rx="162.77" ry="37.45"/>
<text text-anchor="middle" x="1303.89" y="-1349.66" font-family="Times,serif" font-size="14.00">place_control_StartTime_LIFT</text>
<text text-anchor="middle" x="1303.89" y="-1334.66" font-family="Times,serif" font-size="14.00">control</text>
<text text-anchor="middle" x="1303.89" y="-1319.66" font-family="Times,serif" font-size="14.00">[]</text>
</g>
<!-- n1_port_0 -->
<g id="node23" class="node">
<title>n1_port_0</title>
<polygon fill="white" stroke="black" points="1692.15,-1205.69 1633.53,-1228.79 1574.91,-1205.69 1574.96,-1168.32 1692.09,-1168.32 1692.15,-1205.69"/>
<text text-anchor="middle" x="1633.53" y="-1199.16" font-family="Times,serif" font-size="14.00">c</text>
<text text-anchor="middle" x="1633.53" y="-1184.16" font-family="Times,serif" font-size="14.00">control</text>
</g>
<!-- n0_place_14&#45;&gt;n1_port_0 -->
<g id="edge3" class="edge">
<title>n0_place_14&#45;&gt;n1_port_0</title>
<path fill="none" stroke="black" d="M1423.3,-1312.66C1438.82,-1306.05 1453.74,-1297.76 1466.53,-1287.36 1486.28,-1271.29 1474.69,-1253.33 1494.53,-1237.36 1514.59,-1221.21 1540.8,-1211.26 1564.98,-1205.13"/>
<polygon fill="black" stroke="black" points="1565.91,-1208.51 1574.84,-1202.81 1564.3,-1201.69 1565.91,-1208.51"/>
</g>
<!-- n1_condition -->
<g id="node22" class="node">
<title>n1_condition</title>
<polygon fill="white" stroke="black" points="1550.53,-1331.36 1550.53,-1367.36 1716.53,-1367.36 1716.53,-1331.36 1550.53,-1331.36"/>
<text text-anchor="middle" x="1633.53" y="-1345.66" font-family="Times,serif" font-size="14.00">StartTransition_LIFT</text>
</g>
<!-- n1_port_2 -->
<g id="node25" class="node">
<title>n1_port_2</title>
<polygon fill="white" stroke="black" points="1554.7,-1101.03 1633.53,-1077.93 1712.35,-1101.03 1712.28,-1138.4 1554.77,-1138.4 1554.7,-1101.03"/>
<text text-anchor="middle" x="1633.53" y="-1115.16" font-family="Times,serif" font-size="14.00">start_time</text>
<text text-anchor="middle" x="1633.53" y="-1100.16" font-family="Times,serif" font-size="14.00">long</text>
</g>
<!-- n1_port_2&#45;&gt;n0_place_2 -->
<g id="edge2" class="edge">
<title>n1_port_2&#45;&gt;n0_place_2</title>
<path fill="none" stroke="black" d="M1712.28,-1132.47C1750.28,-1142.78 1796.13,-1155.23 1835.24,-1165.85"/>
<polygon fill="black" stroke="black" points="1834.47,-1169.26 1845.03,-1168.51 1836.3,-1162.51 1834.47,-1169.26"/>
</g>
<!-- n1_modcall -->
<g id="node26" class="node">
<title>n1_modcall</title>
<polygon fill="white" stroke="black" points="1764.53,-1060.36 1502.53,-1060.36 1502.53,-1024.36 1764.53,-1024.36 1764.53,-1060.36"/>
<text text-anchor="middle" x="1633.53" y="-1038.66" font-family="Times,serif" font-size="14.00">singular_template.StartTime_LIFT</text>
</g>
<!-- n2_condition -->
<g id="node27" class="node">
<title>n2_condition</title>
<polygon fill="white" stroke="black" points="957.26,-797.36 957.26,-833.36 1043.26,-833.36 1043.26,-797.36 957.26,-797.36"/>
<text text-anchor="middle" x="1000.26" y="-811.66" font-family="Times,serif" font-size="14.00">LEADSYZ</text>
</g>
<!-- n2_port_4 -->
<g id="node32" class="node">
<title>n2_port_4</title>
<polygon fill="white" stroke="black" points="957.6,-399.03 1000.26,-375.93 1042.91,-399.03 1042.87,-436.4 957.64,-436.4 957.6,-399.03"/>
<text text-anchor="middle" x="1000.26" y="-413.16" font-family="Times,serif" font-size="14.00">OUT</text>
<text text-anchor="middle" x="1000.26" y="-398.16" font-family="Times,serif" font-size="14.00">list</text>
</g>
<!-- n2_port_4&#45;&gt;n0_place_9 -->
<g id="edge7" class="edge">
<title>n2_port_4&#45;&gt;n0_place_9</title>
<path fill="none" stroke="black" d="M1043.52,-411.67C1068.48,-416.63 1097.92,-427.1 1114.88,-450.2 1175.9,-536.42 1075.63,-1310.24 1142.78,-1388.06 1163.3,-1412.74 1198.68,-1421.44 1230.48,-1423.35"/>
<path fill="none" stroke="transparent" d="M1043.13,-413.63C1067.81,-418.52 1097.25,-428.98 1113.26,-451.36 1173.92,-536.17 1073.64,-1309.99 1141.26,-1389.36 1162.83,-1414.68 1198.2,-1423.38 1230.36,-1425.35"/>
<path fill="none" stroke="black" d="M1042.74,-415.59C1067.14,-420.4 1096.58,-430.87 1111.63,-452.52 1171.94,-535.91 1071.66,-1309.73 1139.74,-1390.66 1162.35,-1416.62 1197.72,-1425.32 1230.24,-1427.34"/>
<polygon fill="black" stroke="black" points="1230.54,-1428.86 1240.67,-1425.76 1230.82,-1421.86 1230.54,-1428.86"/>
</g>
<!-- n2_port_5 -->
<g id="node33" class="node">
<title>n2_port_5</title>
<polygon fill="white" stroke="black" points="938.15,-231.03 1000.26,-207.93 1062.37,-231.03 1062.31,-268.4 938.2,-268.4 938.15,-231.03"/>
<text text-anchor="middle" x="1000.26" y="-245.16" font-family="Times,serif" font-size="14.00">counter</text>
<text text-anchor="middle" x="1000.26" y="-230.16" font-family="Times,serif" font-size="14.00">int</text>
</g>
<!-- n2_port_5&#45;&gt;n0_place_6 -->
<g id="edge5" class="edge">
<title>n2_port_5&#45;&gt;n0_place_6</title>
<path fill="none" stroke="black" d="M1062.66,-241.36C1105.52,-241.36 1163.45,-241.36 1211.69,-241.36"/>
<polygon fill="black" stroke="black" points="1211.83,-244.86 1221.83,-241.36 1211.83,-237.86 1211.83,-244.86"/>
</g>
<!-- n2_port_6 -->
<g id="node34" class="node">
<title>n2_port_6</title>
<polygon fill="white" stroke="black" points="943.63,-315.03 1000.26,-291.93 1056.88,-315.03 1056.83,-352.4 943.69,-352.4 943.63,-315.03"/>
<text text-anchor="middle" x="1000.26" y="-329.16" font-family="Times,serif" font-size="14.00">Sublift</text>
<text text-anchor="middle" x="1000.26" y="-314.16" font-family="Times,serif" font-size="14.00">list</text>
</g>
<!-- n2_port_6&#45;&gt;n0_place_12 -->
<g id="edge6" class="edge">
<title>n2_port_6&#45;&gt;n0_place_12</title>
<path fill="none" stroke="black" d="M1056.93,-323.36C1100.9,-323.36 1163.1,-323.36 1213.95,-323.36"/>
<path fill="none" stroke="transparent" d="M1056.93,-325.36C1100.9,-325.36 1163.1,-325.36 1213.95,-325.36"/>
<path fill="none" stroke="black" d="M1056.93,-327.36C1100.9,-327.36 1163.1,-327.36 1213.95,-327.36"/>
<polygon fill="black" stroke="black" points="1213.96,-328.86 1223.96,-325.36 1213.96,-321.86 1213.96,-328.86"/>
</g>
<!-- n2_modcall -->
<g id="node35" class="node">
<title>n2_modcall</title>
<polygon fill="white" stroke="black" points="1101.76,-190.36 898.76,-190.36 898.76,-154.36 1101.76,-154.36 1101.76,-190.36"/>
<text text-anchor="middle" x="1000.26" y="-168.66" font-family="Times,serif" font-size="14.00">singular_template.leadsyz</text>
</g>
<!-- n3_condition -->
<g id="node36" class="node">
<title>n3_condition</title>
<polygon fill="white" stroke="black" points="961.76,-1417.36 961.76,-1453.36 1038.76,-1453.36 1038.76,-1417.36 961.76,-1417.36"/>
<text text-anchor="middle" x="1000.26" y="-1431.66" font-family="Times,serif" font-size="14.00">All_Lead</text>
</g>
<!-- n3_port_2 -->
<g id="node41" class="node">
<title>n3_port_2</title>
<polygon fill="white" stroke="black" points="931.16,-935.03 1000.26,-911.93 1069.35,-935.03 1069.29,-972.4 931.23,-972.4 931.16,-935.03"/>
<text text-anchor="middle" x="1000.26" y="-949.16" font-family="Times,serif" font-size="14.00">OUTPUT</text>
<text text-anchor="middle" x="1000.26" y="-934.16" font-family="Times,serif" font-size="14.00">list</text>
</g>
<!-- n3_port_2&#45;&gt;n0_place_11 -->
<g id="edge13" class="edge">
<title>n3_port_2&#45;&gt;n0_place_11</title>
<path fill="none" stroke="black" d="M1049.69,-926.74C1069.44,-919.57 1092.32,-910.72 1112.43,-901.54 1161.51,-879.14 1215.55,-849.25 1253.27,-827.47"/>
<path fill="none" stroke="transparent" d="M1050.37,-928.62C1070.16,-921.44 1093.04,-912.59 1113.26,-903.36 1162.48,-880.89 1216.52,-851 1254.27,-829.2"/>
<path fill="none" stroke="black" d="M1051.05,-930.5C1070.88,-923.3 1093.76,-914.45 1114.09,-905.18 1163.45,-882.64 1217.49,-852.75 1255.27,-830.93"/>
<polygon fill="black" stroke="black" points="1256.14,-832.17 1263.03,-824.12 1252.62,-826.11 1256.14,-832.17"/>
</g>
<!-- n3_port_5 -->
<g id="node42" class="node">
<title>n3_port_5</title>
<polygon fill="white" stroke="black" points="938.15,-1019.03 1000.26,-995.93 1062.37,-1019.03 1062.31,-1056.4 938.2,-1056.4 938.15,-1019.03"/>
<text text-anchor="middle" x="1000.26" y="-1033.16" font-family="Times,serif" font-size="14.00">counter</text>
<text text-anchor="middle" x="1000.26" y="-1018.16" font-family="Times,serif" font-size="14.00">int</text>
</g>
<!-- n3_port_5&#45;&gt;n0_place_0 -->
<g id="edge12" class="edge">
<title>n3_port_5&#45;&gt;n0_place_0</title>
<path fill="none" stroke="black" d="M1062.66,-1029.36C1100.54,-1029.36 1150.18,-1029.36 1194.51,-1029.36"/>
<polygon fill="black" stroke="black" points="1194.76,-1032.86 1204.76,-1029.36 1194.76,-1025.86 1194.76,-1032.86"/>
</g>
<!-- n3_modcall -->
<g id="node43" class="node">
<title>n3_modcall</title>
<polygon fill="white" stroke="black" points="1105.26,-894.36 895.26,-894.36 895.26,-858.36 1105.26,-858.36 1105.26,-894.36"/>
<text text-anchor="middle" x="1000.26" y="-872.66" font-family="Times,serif" font-size="14.00">singular_template.All_Lead</text>
</g>
<!-- n4_condition -->
<g id="node44" class="node">
<title>n4_condition</title>
<polygon fill="white" stroke="black" points="2141.19,-1364.36 2141.19,-1426.36 2275.19,-1426.36 2275.19,-1364.36 2141.19,-1364.36"/>
<text text-anchor="middle" x="2208.19" y="-1411.16" font-family="Times,serif" font-size="14.00">EndTime_LIFT</text>
<polyline fill="none" stroke="black" points="2141.19,-1403.36 2275.19,-1403.36 "/>
<text text-anchor="middle" x="2208.19" y="-1388.16" font-family="Times,serif" font-size="14.00">(${k2} == 0UL)</text>
</g>
<!-- n4_modcall -->
<g id="node47" class="node">
<title>n4_modcall</title>
<polygon fill="white" stroke="black" points="2335.19,-1177.36 2081.19,-1177.36 2081.19,-1141.36 2335.19,-1141.36 2335.19,-1177.36"/>
<text text-anchor="middle" x="2208.19" y="-1155.66" font-family="Times,serif" font-size="14.00">singular_template.EndTime_LIFT</text>
</g>
<!-- n5_condition -->
<g id="node48" class="node">
<title>n5_condition</title>
<polygon fill="white" stroke="black" points="1606.53,-876.36 1606.53,-912.36 1660.53,-912.36 1660.53,-876.36 1606.53,-876.36"/>
<text text-anchor="middle" x="1633.53" y="-890.66" font-family="Times,serif" font-size="14.00">LIFT</text>
</g>
<!-- n5_port_3 -->
<g id="node54" class="node">
<title>n5_port_3</title>
<polygon fill="white" stroke="black" points="1589.62,-394.03 1633.53,-370.93 1677.43,-394.03 1677.39,-431.4 1589.66,-431.4 1589.62,-394.03"/>
<text text-anchor="middle" x="1633.53" y="-408.16" font-family="Times,serif" font-size="14.00">LIFT</text>
<text text-anchor="middle" x="1633.53" y="-393.16" font-family="Times,serif" font-size="14.00">list</text>
</g>
<!-- n5_port_3&#45;&gt;n0_place_5 -->
<g id="edge20" class="edge">
<title>n5_port_3&#45;&gt;n0_place_5</title>
<path fill="none" stroke="black" d="M1677.04,-394.37C1705.18,-387.92 1742.27,-377.11 1771.55,-360.62 1818.38,-334.4 1863.52,-290.79 1891.49,-260.86"/>
<path fill="none" stroke="transparent" d="M1677.49,-396.32C1705.74,-389.84 1742.83,-379.03 1772.53,-362.36 1819.77,-335.84 1864.91,-292.23 1892.95,-262.22"/>
<path fill="none" stroke="black" d="M1677.94,-398.27C1706.3,-391.76 1743.39,-380.95 1773.51,-364.1 1821.16,-337.28 1866.3,-293.67 1894.41,-263.59"/>
<polygon fill="black" stroke="black" points="1895.84,-264.25 1900.05,-254.52 1890.69,-259.5 1895.84,-264.25"/>
</g>
<!-- n5_modcall -->
<g id="node55" class="node">
<title>n5_modcall</title>
<polygon fill="white" stroke="black" points="1725.03,-353.36 1542.03,-353.36 1542.03,-317.36 1725.03,-317.36 1725.03,-353.36"/>
<text text-anchor="middle" x="1633.53" y="-331.66" font-family="Times,serif" font-size="14.00">singular_template.LIFT</text>
</g>
<!-- n6_condition -->
<g id="node56" class="node">
<title>n6_condition</title>
<polygon fill="white" stroke="black" points="416.03,-713.36 416.03,-749.36 505.03,-749.36 505.03,-713.36 416.03,-713.36"/>
<text text-anchor="middle" x="460.53" y="-727.66" font-family="Times,serif" font-size="14.00">StartTime</text>
</g>
<!-- n6_port_0 -->
<g id="node58" class="node">
<title>n6_port_0</title>
<polygon fill="white" stroke="black" points="401.91,-567.03 460.53,-543.93 519.15,-567.03 519.09,-604.4 401.96,-604.4 401.91,-567.03"/>
<text text-anchor="middle" x="460.53" y="-581.16" font-family="Times,serif" font-size="14.00">c</text>
<text text-anchor="middle" x="460.53" y="-566.16" font-family="Times,serif" font-size="14.00">control</text>
</g>
<!-- n6_port_0&#45;&gt;n0_place_4 -->
<g id="edge26" class="edge">
<title>n6_port_0&#45;&gt;n0_place_4</title>
<path fill="none" stroke="black" d="M519.3,-577.36C555.76,-577.36 603.56,-577.36 644.65,-577.36"/>
<polygon fill="black" stroke="black" points="644.66,-580.86 654.66,-577.36 644.66,-573.86 644.66,-580.86"/>
</g>
<!-- n6_port_2 -->
<g id="node59" class="node">
<title>n6_port_2</title>
<polygon fill="white" stroke="black" points="404.65,-483.03 460.53,-459.93 516.4,-483.03 516.35,-520.4 404.7,-520.4 404.65,-483.03"/>
<text text-anchor="middle" x="460.53" y="-497.16" font-family="Times,serif" font-size="14.00">output</text>
<text text-anchor="middle" x="460.53" y="-482.16" font-family="Times,serif" font-size="14.00">string</text>
</g>
<!-- n6_port_2&#45;&gt;n0_place_7 -->
<g id="edge27" class="edge">
<title>n6_port_2&#45;&gt;n0_place_7</title>
<path fill="none" stroke="black" d="M516.67,-493.36C550.18,-493.36 593.95,-493.36 633.31,-493.36"/>
<polygon fill="black" stroke="black" points="633.47,-496.86 643.47,-493.36 633.47,-489.86 633.47,-496.86"/>
</g>
<!-- n6_port_3 -->
<g id="node60" class="node">
<title>n6_port_3</title>
<polygon fill="white" stroke="black" points="381.7,-399.03 460.53,-375.93 539.35,-399.03 539.28,-436.4 381.78,-436.4 381.7,-399.03"/>
<text text-anchor="middle" x="460.53" y="-413.16" font-family="Times,serif" font-size="14.00">start_time</text>
<text text-anchor="middle" x="460.53" y="-398.16" font-family="Times,serif" font-size="14.00">long</text>
</g>
<!-- n6_port_3&#45;&gt;n0_place_13 -->
<g id="edge28" class="edge">
<title>n6_port_3&#45;&gt;n0_place_13</title>
<path fill="none" stroke="black" d="M539.51,-409.36C567.33,-409.36 599.12,-409.36 628.76,-409.36"/>
<polygon fill="black" stroke="black" points="629.14,-412.86 639.14,-409.36 629.14,-405.86 629.14,-412.86"/>
</g>
<!-- n6_modcall -->
<g id="node61" class="node">
<title>n6_modcall</title>
<polygon fill="white" stroke="black" points="571.53,-358.36 349.53,-358.36 349.53,-322.36 571.53,-322.36 571.53,-358.36"/>
<text text-anchor="middle" x="460.53" y="-336.66" font-family="Times,serif" font-size="14.00">singular_template.StartTime</text>
</g>
</g>
</svg>
