<?xml version="1.0" encoding="UTF-8" standalone="no"?>
<!DOCTYPE svg PUBLIC "-//W3C//DTD SVG 1.1//EN"
 "http://www.w3.org/Graphics/SVG/1.1/DTD/svg11.dtd">
<!-- Generated by graphviz version 2.43.0 (0)
 -->
<!-- Title: template Pages: 1 -->
<svg width="2375pt" height="1586pt"
 viewBox="0.00 0.00 2375.19 1586.00" xmlns="http://www.w3.org/2000/svg" xmlns:xlink="http://www.w3.org/1999/xlink">
<g id="graph0" class="graph" transform="scale(1 1) rotate(0) translate(4 1582)">
<title>template</title>
<polygon fill="white" stroke="transparent" points="-4,4 -4,-1582 2371.19,-1582 2371.19,4 -4,4"/>
<g id="clust1" class="cluster">
<title>cluster_0</title>
<polygon fill="dimgray" stroke="black" points="8,-8 8,-1570 2359.19,-1570 2359.19,-8 8,-8"/>
</g>
<g id="clust2" class="cluster">
<title>cluster_net_0</title>
<polygon fill="white" stroke="black" points="147.14,-92 147.14,-1404 2351.19,-1404 2351.19,-92 147.14,-92"/>
</g>
<g id="clust3" class="cluster">
<title>cluster_place_9</title>
</g>
<g id="clust4" class="cluster">
<title>cluster_1</title>
<polygon fill="yellow" stroke="black" points="1494.53,-112 1494.53,-472 1772.53,-472 1772.53,-112 1494.53,-112"/>
</g>
<g id="clust5" class="cluster">
<title>cluster_2</title>
<polygon fill="yellow" stroke="black" points="890,-132 890,-744 1110.52,-744 1110.52,-132 890,-132"/>
</g>
<g id="clust6" class="cluster">
<title>cluster_3</title>
<polygon fill="yellow" stroke="black" points="887.26,-752 887.26,-1364 1113.26,-1364 1113.26,-752 887.26,-752"/>
</g>
<g id="clust7" class="cluster">
<title>cluster_4</title>
<polygon fill="yellow" stroke="black" points="2073.19,-100 2073.19,-486 2343.19,-486 2343.19,-100 2073.19,-100"/>
</g>
<g id="clust8" class="cluster">
<title>cluster_5</title>
<polygon fill="yellow" stroke="black" points="1518.02,-578 1518.02,-1274 1749.03,-1274 1749.03,-578 1518.02,-578"/>
</g>
<g id="clust9" class="cluster">
<title>cluster_6</title>
<polygon fill="yellow" stroke="black" points="341.53,-216 341.53,-660 579.53,-660 579.53,-216 341.53,-216"/>
</g>
<!-- n0_condition -->
<g id="node1" class="node">
<title>n0_condition</title>
<polygon fill="white" stroke="black" points="27.57,-1070 27.57,-1106 107.57,-1106 107.57,-1070 27.57,-1070"/>
<text text-anchor="middle" x="67.57" y="-1084.3" font-family="Times,serif" font-size="14.00">template</text>
</g>
<!-- n0_port_0 -->
<g id="node2" class="node">
<title>n0_port_0</title>
<polygon fill="white" stroke="black" points="562.55,-1539.33 460.53,-1562.43 358.5,-1539.33 358.6,-1501.96 562.46,-1501.96 562.55,-1539.33"/>
<text text-anchor="middle" x="460.53" y="-1532.8" font-family="Times,serif" font-size="14.00">base_filename</text>
<text text-anchor="middle" x="460.53" y="-1517.8" font-family="Times,serif" font-size="14.00">string</text>
</g>
<!-- n0_place_8 -->
<g id="node11" class="node">
<title>n0_place_8</title>
<ellipse fill="white" stroke="black" cx="733.39" cy="-1318" rx="113.69" ry="26.74"/>
<text text-anchor="middle" x="733.39" y="-1321.8" font-family="Times,serif" font-size="14.00">place_base_filename</text>
<text text-anchor="middle" x="733.39" y="-1306.8" font-family="Times,serif" font-size="14.00">string</text>
</g>
<!-- n0_port_0&#45;&gt;n0_place_8 -->
<g id="edge31" class="edge">
<title>n0_port_0&#45;&gt;n0_place_8</title>
<path fill="none" stroke="black" stroke-dasharray="1,5" d="M552.37,-1501.93C561.87,-1497.58 571.12,-1492.61 579.53,-1487 638.09,-1447.9 689.12,-1381.47 714.78,-1344.62"/>
</g>
<!-- n0_port_1 -->
<g id="node3" class="node">
<title>n0_port_1</title>
<polygon fill="white" stroke="black" points="556.81,-1455.33 460.53,-1478.43 364.24,-1455.33 364.33,-1417.96 556.73,-1417.96 556.81,-1455.33"/>
<text text-anchor="middle" x="460.53" y="-1448.8" font-family="Times,serif" font-size="14.00">library_name</text>
<text text-anchor="middle" x="460.53" y="-1433.8" font-family="Times,serif" font-size="14.00">string</text>
</g>
<!-- n0_place_10 -->
<g id="node8" class="node">
<title>n0_place_10</title>
<ellipse fill="white" stroke="black" cx="733.39" cy="-1100" rx="109.7" ry="26.74"/>
<text text-anchor="middle" x="733.39" y="-1103.8" font-family="Times,serif" font-size="14.00">place_library_name</text>
<text text-anchor="middle" x="733.39" y="-1088.8" font-family="Times,serif" font-size="14.00">string</text>
</g>
<!-- n0_port_1&#45;&gt;n0_place_10 -->
<g id="edge32" class="edge">
<title>n0_port_1&#45;&gt;n0_place_10</title>
<path fill="none" stroke="black" stroke-dasharray="1,5" d="M466.62,-1417.83C479.28,-1357.94 517.85,-1213.78 607.53,-1137 618.18,-1127.88 630.99,-1121.01 644.3,-1115.83"/>
</g>
<!-- n0_port_2 -->
<g id="node4" class="node">
<title>n0_port_2</title>
<polygon fill="white" stroke="black" points="119.2,-573.33 67.57,-596.43 15.93,-573.33 15.98,-535.96 119.16,-535.96 119.2,-573.33"/>
<text text-anchor="middle" x="67.57" y="-566.8" font-family="Times,serif" font-size="14.00">input</text>
<text text-anchor="middle" x="67.57" y="-551.8" font-family="Times,serif" font-size="14.00">string</text>
</g>
<!-- n0_place_3 -->
<g id="node16" class="node">
<title>n0_place_3</title>
<ellipse fill="white" stroke="black" cx="234.33" cy="-563" rx="79.39" ry="26.74"/>
<text text-anchor="middle" x="234.33" y="-566.8" font-family="Times,serif" font-size="14.00">place_initiate</text>
<text text-anchor="middle" x="234.33" y="-551.8" font-family="Times,serif" font-size="14.00">string</text>
</g>
<!-- n0_port_2&#45;&gt;n0_place_3 -->
<g id="edge33" class="edge">
<title>n0_port_2&#45;&gt;n0_place_3</title>
<path fill="none" stroke="black" stroke-dasharray="1,5" d="M119.35,-563C130.6,-563 142.78,-563 154.85,-563"/>
</g>
<!-- n0_port_3 -->
<g id="node5" class="node">
<title>n0_port_3</title>
<polygon fill="white" stroke="black" points="931.16,-38.67 1000.26,-15.57 1069.35,-38.67 1069.29,-76.04 931.23,-76.04 931.16,-38.67"/>
<text text-anchor="middle" x="1000.26" y="-52.8" font-family="Times,serif" font-size="14.00">OUTPUT</text>
<text text-anchor="middle" x="1000.26" y="-37.8" font-family="Times,serif" font-size="14.00">string</text>
</g>
<!-- n0_place_11 -->
<g id="node7" class="node">
<title>n0_place_11</title>
<ellipse fill="white" stroke="black" cx="1303.89" cy="-706" rx="85.62" ry="26.74"/>
<text text-anchor="middle" x="1303.89" y="-709.8" font-family="Times,serif" font-size="14.00">place_All_Lead</text>
<text text-anchor="middle" x="1303.89" y="-694.8" font-family="Times,serif" font-size="14.00">string</text>
</g>
<!-- n0_port_3&#45;&gt;n0_place_11 -->
<g id="edge34" class="edge">
<title>n0_port_3&#45;&gt;n0_place_11</title>
<path fill="none" stroke="black" stroke-dasharray="1,5" d="M1059.17,-76.09C1079.84,-88.82 1101.01,-106.09 1113.26,-128 1161.7,-214.69 1095.9,-485.66 1141.26,-574 1166.66,-623.47 1219.71,-661.08 1258.12,-683.26"/>
</g>
<!-- n0_place_12 -->
<g id="node6" class="node">
<title>n0_place_12</title>
<ellipse fill="white" stroke="black" cx="1922.86" cy="-757" rx="79.81" ry="26.74"/>
<text text-anchor="middle" x="1922.86" y="-760.8" font-family="Times,serif" font-size="14.00">place_SubLift</text>
<text text-anchor="middle" x="1922.86" y="-745.8" font-family="Times,serif" font-size="14.00">string</text>
</g>
<!-- n5_port_5 -->
<g id="node52" class="node">
<title>n5_port_5</title>
<polygon fill="white" stroke="black" points="1695.64,-1019.33 1633.53,-1042.43 1571.41,-1019.33 1571.47,-981.96 1695.58,-981.96 1695.64,-1019.33"/>
<text text-anchor="middle" x="1633.53" y="-1012.8" font-family="Times,serif" font-size="14.00">all_lead</text>
<text text-anchor="middle" x="1633.53" y="-997.8" font-family="Times,serif" font-size="14.00">string</text>
</g>
<!-- n0_place_11&#45;&gt;n5_port_5 -->
<g id="edge23" class="edge">
<title>n0_place_11&#45;&gt;n5_port_5</title>
<path fill="none" stroke="black" stroke-dasharray="5,2" d="M1389.84,-706.05C1418.01,-710.48 1447.09,-720.62 1466.53,-742 1534.31,-816.57 1429.64,-889.9 1494.53,-967 1511.11,-986.7 1536.64,-997.35 1561.25,-1003.05"/>
<polygon fill="black" stroke="black" points="1560.84,-1006.54 1571.34,-1005.13 1562.25,-999.68 1560.84,-1006.54"/>
</g>
<!-- n2_port_0 -->
<g id="node28" class="node">
<title>n2_port_0</title>
<polygon fill="white" stroke="black" points="1096.54,-573.33 1000.26,-596.43 903.97,-573.33 904.06,-535.96 1096.46,-535.96 1096.54,-573.33"/>
<text text-anchor="middle" x="1000.26" y="-566.8" font-family="Times,serif" font-size="14.00">library_name</text>
<text text-anchor="middle" x="1000.26" y="-551.8" font-family="Times,serif" font-size="14.00">string</text>
</g>
<!-- n0_place_10&#45;&gt;n2_port_0 -->
<g id="edge10" class="edge">
<title>n0_place_10&#45;&gt;n2_port_0</title>
<path fill="none" stroke="black" stroke-dasharray="5,2" d="M734.82,-1072.88C737.56,-991 756.79,-743.44 887.26,-605 895.8,-595.94 906.48,-588.82 917.84,-583.22"/>
<polygon fill="black" stroke="black" points="919.39,-586.36 927.06,-579.06 916.51,-579.98 919.39,-586.36"/>
</g>
<!-- n3_port_0 -->
<g id="node36" class="node">
<title>n3_port_0</title>
<polygon fill="white" stroke="black" points="1096.54,-1109.33 1000.26,-1132.43 903.97,-1109.33 904.06,-1071.96 1096.46,-1071.96 1096.54,-1109.33"/>
<text text-anchor="middle" x="1000.26" y="-1102.8" font-family="Times,serif" font-size="14.00">library_name</text>
<text text-anchor="middle" x="1000.26" y="-1087.8" font-family="Times,serif" font-size="14.00">string</text>
</g>
<!-- n0_place_10&#45;&gt;n3_port_0 -->
<g id="edge16" class="edge">
<title>n0_place_10&#45;&gt;n3_port_0</title>
<path fill="none" stroke="black" stroke-dasharray="5,2" d="M843.27,-1099.59C859.93,-1099.53 877.1,-1099.46 893.69,-1099.4"/>
<polygon fill="black" stroke="black" points="893.95,-1102.9 903.93,-1099.36 893.92,-1095.9 893.95,-1102.9"/>
</g>
<!-- n5_port_0 -->
<g id="node49" class="node">
<title>n5_port_0</title>
<polygon fill="white" stroke="black" points="1741.04,-1103.33 1633.53,-1126.43 1526.01,-1103.33 1526.12,-1065.96 1740.94,-1065.96 1741.04,-1103.33"/>
<text text-anchor="middle" x="1633.53" y="-1096.8" font-family="Times,serif" font-size="14.00">needed_library</text>
<text text-anchor="middle" x="1633.53" y="-1081.8" font-family="Times,serif" font-size="14.00">string</text>
</g>
<!-- n0_place_10&#45;&gt;n5_port_0 -->
<g id="edge26" class="edge">
<title>n0_place_10&#45;&gt;n5_port_0</title>
<path fill="none" stroke="black" stroke-dasharray="5,2" d="M827.43,-1114.05C839.56,-1119.48 850.72,-1126.9 859.26,-1137 926.01,-1215.99 809.86,-1299.41 887.26,-1368 924.85,-1401.31 1064.91,-1381.6 1113.26,-1368 1304.42,-1314.21 1313.36,-1216.34 1494.53,-1135 1512.43,-1126.96 1532.29,-1119.91 1551.25,-1114"/>
<polygon fill="black" stroke="black" points="1552.52,-1117.27 1561.06,-1111.01 1550.48,-1110.57 1552.52,-1117.27"/>
</g>
<!-- n0_place_9 -->
<g id="node9" class="node">
<title>n0_place_9</title>
<ellipse fill="white" stroke="black" cx="1303.89" cy="-520" rx="64.19" ry="26.74"/>
<text text-anchor="middle" x="1303.89" y="-523.8" font-family="Times,serif" font-size="14.00">place_lead</text>
<text text-anchor="middle" x="1303.89" y="-508.8" font-family="Times,serif" font-size="14.00">string</text>
</g>
<!-- n0_place_15 -->
<g id="node10" class="node">
<title>n0_place_15</title>
<ellipse fill="orange" stroke="black" cx="1633.53" cy="-525" rx="82.96" ry="37.45"/>
<text text-anchor="middle" x="1633.53" y="-536.3" font-family="Times,serif" font-size="14.00">#place_lead</text>
<text text-anchor="middle" x="1633.53" y="-521.3" font-family="Times,serif" font-size="14.00">unsigned long</text>
<text text-anchor="middle" x="1633.53" y="-506.3" font-family="Times,serif" font-size="14.00">0UL</text>
</g>
<!-- n0_place_9&#45;&gt;n0_place_15 -->
<g id="edge1" class="edge">
<title>n0_place_9&#45;&gt;n0_place_15</title>
<path fill="none" stroke="black" stroke-dasharray="1,5" d="M1368.45,-520.97C1420.46,-521.76 1494.39,-522.89 1550.8,-523.75"/>
</g>
<!-- n1_port_1 -->
<g id="node24" class="node">
<title>n1_port_1</title>
<polygon fill="white" stroke="black" points="1685.16,-385.33 1633.53,-408.43 1581.89,-385.33 1581.94,-347.96 1685.11,-347.96 1685.16,-385.33"/>
<text text-anchor="middle" x="1633.53" y="-378.8" font-family="Times,serif" font-size="14.00">in</text>
<text text-anchor="middle" x="1633.53" y="-363.8" font-family="Times,serif" font-size="14.00">string</text>
</g>
<!-- n0_place_9&#45;&gt;n1_port_1 -->
<g id="edge4" class="edge">
<title>n0_place_9&#45;&gt;n1_port_1</title>
<path fill="none" stroke="black" stroke-dasharray="5,2" d="M1368.14,-521.79C1400.79,-519.53 1439.36,-511.53 1466.53,-489 1492.64,-467.35 1469.68,-441.09 1494.53,-418 1515.56,-398.46 1545.35,-387.8 1571.87,-381.98"/>
<polygon fill="black" stroke="black" points="1572.73,-385.38 1581.85,-379.98 1571.35,-378.52 1572.73,-385.38"/>
</g>
<!-- n5_port_3 -->
<g id="node51" class="node">
<title>n5_port_3</title>
<polygon fill="white" stroke="black" points="1685.16,-851.33 1633.53,-874.43 1581.89,-851.33 1581.94,-813.96 1685.11,-813.96 1685.16,-851.33"/>
<text text-anchor="middle" x="1633.53" y="-844.8" font-family="Times,serif" font-size="14.00">lead</text>
<text text-anchor="middle" x="1633.53" y="-829.8" font-family="Times,serif" font-size="14.00">string</text>
</g>
<!-- n0_place_9&#45;&gt;n5_port_3 -->
<g id="edge22" class="edge">
<title>n0_place_9&#45;&gt;n5_port_3</title>
<path fill="none" stroke="black" d="M1367.48,-515.38C1401.59,-516.47 1441.78,-524.27 1466.53,-551 1541.88,-632.4 1423.59,-713.73 1494.53,-799 1513.36,-821.63 1543.99,-832.34 1571.62,-837.29"/>
<polygon fill="black" stroke="black" points="1571.22,-840.77 1581.64,-838.87 1572.31,-833.86 1571.22,-840.77"/>
</g>
<!-- n4_port_2 -->
<g id="node46" class="node">
<title>n4_port_2</title>
<polygon fill="white" stroke="black" points="2310.21,-373.33 2208.19,-396.43 2106.16,-373.33 2106.26,-335.96 2310.11,-335.96 2310.21,-373.33"/>
<text text-anchor="middle" x="2208.19" y="-366.8" font-family="Times,serif" font-size="14.00">k2</text>
<text text-anchor="middle" x="2208.19" y="-351.8" font-family="Times,serif" font-size="14.00">unsigned long</text>
</g>
<!-- n0_place_15&#45;&gt;n4_port_2 -->
<g id="edge18" class="edge">
<title>n0_place_15&#45;&gt;n4_port_2</title>
<path fill="none" stroke="black" stroke-dasharray="5,2" d="M1705.25,-506.32C1727.69,-498.74 1751.99,-488.71 1772.53,-476 1787.23,-466.9 1784.63,-455.8 1800.53,-449 1850.56,-427.61 1996.28,-462.86 2045.19,-439 2062.47,-430.56 2057.19,-416.68 2073.19,-406 2087.88,-396.19 2104.96,-388.49 2121.91,-382.49"/>
<polygon fill="black" stroke="black" points="2123.49,-385.65 2131.86,-379.15 2121.26,-379.02 2123.49,-385.65"/>
</g>
<!-- n2_port_1 -->
<g id="node29" class="node">
<title>n2_port_1</title>
<polygon fill="white" stroke="black" points="1102.28,-657.33 1000.26,-680.43 898.23,-657.33 898.33,-619.96 1102.19,-619.96 1102.28,-657.33"/>
<text text-anchor="middle" x="1000.26" y="-650.8" font-family="Times,serif" font-size="14.00">base_filename</text>
<text text-anchor="middle" x="1000.26" y="-635.8" font-family="Times,serif" font-size="14.00">string</text>
</g>
<!-- n0_place_8&#45;&gt;n2_port_1 -->
<g id="edge9" class="edge">
<title>n0_place_8&#45;&gt;n2_port_1</title>
<path fill="none" stroke="black" stroke-dasharray="5,2" d="M787.41,-1294.32C813.83,-1279.55 843.45,-1257.82 859.26,-1229 916.94,-1123.84 816.78,-787.05 887.26,-690 894.07,-680.61 903.22,-673.28 913.37,-667.54"/>
<polygon fill="black" stroke="black" points="915.18,-670.55 922.51,-662.9 912.01,-664.31 915.18,-670.55"/>
</g>
<!-- n3_port_1 -->
<g id="node37" class="node">
<title>n3_port_1</title>
<polygon fill="white" stroke="black" points="1102.28,-1277.33 1000.26,-1300.43 898.23,-1277.33 898.33,-1239.96 1102.19,-1239.96 1102.28,-1277.33"/>
<text text-anchor="middle" x="1000.26" y="-1270.8" font-family="Times,serif" font-size="14.00">base_filename</text>
<text text-anchor="middle" x="1000.26" y="-1255.8" font-family="Times,serif" font-size="14.00">string</text>
</g>
<!-- n0_place_8&#45;&gt;n3_port_1 -->
<g id="edge15" class="edge">
<title>n0_place_8&#45;&gt;n3_port_1</title>
<path fill="none" stroke="black" stroke-dasharray="5,2" d="M822.22,-1301.09C850.37,-1295.67 881.57,-1289.66 909.84,-1284.22"/>
<polygon fill="black" stroke="black" points="910.55,-1287.65 919.7,-1282.32 909.22,-1280.77 910.55,-1287.65"/>
</g>
<!-- n5_port_2 -->
<g id="node50" class="node">
<title>n5_port_2</title>
<polygon fill="white" stroke="black" points="1735.55,-1187.33 1633.53,-1210.43 1531.5,-1187.33 1531.6,-1149.96 1735.46,-1149.96 1735.55,-1187.33"/>
<text text-anchor="middle" x="1633.53" y="-1180.8" font-family="Times,serif" font-size="14.00">base_filename</text>
<text text-anchor="middle" x="1633.53" y="-1165.8" font-family="Times,serif" font-size="14.00">string</text>
</g>
<!-- n0_place_8&#45;&gt;n5_port_2 -->
<g id="edge25" class="edge">
<title>n0_place_8&#45;&gt;n5_port_2</title>
<path fill="none" stroke="black" stroke-dasharray="5,2" d="M779.7,-1342.58C809.35,-1357.23 849.46,-1374.41 887.26,-1382 985.73,-1401.78 1014.24,-1398.87 1113.26,-1382 1277.29,-1354.05 1332.73,-1356.93 1466.53,-1258 1483.4,-1245.53 1477.44,-1232.17 1494.53,-1220 1509.19,-1209.56 1526.46,-1201.59 1543.74,-1195.54"/>
<polygon fill="black" stroke="black" points="1544.93,-1198.83 1553.32,-1192.36 1542.73,-1192.18 1544.93,-1198.83"/>
</g>
<!-- n0_place_7 -->
<g id="node12" class="node">
<title>n0_place_7</title>
<ellipse fill="white" stroke="black" cx="733.39" cy="-395" rx="89.61" ry="26.74"/>
<text text-anchor="middle" x="733.39" y="-398.8" font-family="Times,serif" font-size="14.00">place_input_GB</text>
<text text-anchor="middle" x="733.39" y="-383.8" font-family="Times,serif" font-size="14.00">string</text>
</g>
<!-- n2_port_2 -->
<g id="node30" class="node">
<title>n2_port_2</title>
<polygon fill="white" stroke="black" points="1051.89,-405.33 1000.26,-428.43 948.62,-405.33 948.67,-367.96 1051.85,-367.96 1051.89,-405.33"/>
<text text-anchor="middle" x="1000.26" y="-398.8" font-family="Times,serif" font-size="14.00">input</text>
<text text-anchor="middle" x="1000.26" y="-383.8" font-family="Times,serif" font-size="14.00">string</text>
</g>
<!-- n0_place_7&#45;&gt;n2_port_2 -->
<g id="edge8" class="edge">
<title>n0_place_7&#45;&gt;n2_port_2</title>
<path fill="none" stroke="black" stroke-dasharray="5,2" d="M823.33,-395C861.05,-395 904.08,-395 938.13,-395"/>
<polygon fill="black" stroke="black" points="938.4,-398.5 948.4,-395 938.4,-391.5 938.4,-398.5"/>
</g>
<!-- n3_port_4 -->
<g id="node39" class="node">
<title>n3_port_4</title>
<polygon fill="white" stroke="black" points="1051.89,-1025.33 1000.26,-1048.43 948.62,-1025.33 948.67,-987.96 1051.85,-987.96 1051.89,-1025.33"/>
<text text-anchor="middle" x="1000.26" y="-1018.8" font-family="Times,serif" font-size="14.00">init</text>
<text text-anchor="middle" x="1000.26" y="-1003.8" font-family="Times,serif" font-size="14.00">string</text>
</g>
<!-- n0_place_7&#45;&gt;n3_port_4 -->
<g id="edge14" class="edge">
<title>n0_place_7&#45;&gt;n3_port_4</title>
<path fill="none" stroke="black" stroke-dasharray="5,2" d="M810.59,-408.89C829.37,-416 847.45,-426.75 859.26,-443 928.58,-538.42 817.54,-877.87 887.26,-973 899.49,-989.69 919.17,-999.76 938.65,-1005.82"/>
<polygon fill="black" stroke="black" points="937.9,-1009.24 948.47,-1008.56 939.78,-1002.5 937.9,-1009.24"/>
</g>
<!-- n5_port_6 -->
<g id="node53" class="node">
<title>n5_port_6</title>
<polygon fill="white" stroke="black" points="1720.83,-935.33 1633.53,-958.43 1546.22,-935.33 1546.3,-897.96 1720.75,-897.96 1720.83,-935.33"/>
<text text-anchor="middle" x="1633.53" y="-928.8" font-family="Times,serif" font-size="14.00">input_name</text>
<text text-anchor="middle" x="1633.53" y="-913.8" font-family="Times,serif" font-size="14.00">string</text>
</g>
<!-- n0_place_7&#45;&gt;n5_port_6 -->
<g id="edge24" class="edge">
<title>n0_place_7&#45;&gt;n5_port_6</title>
<path fill="none" stroke="black" stroke-dasharray="5,2" d="M740.39,-367.83C754.56,-311.1 795.99,-180.91 887.26,-128 908.98,-115.41 1094.95,-110.81 1113.26,-128 1185.64,-195.98 1079.34,-496.36 1141.26,-574 1235.24,-691.84 1368.59,-555.42 1466.53,-670 1528.57,-742.58 1432.8,-810.16 1494.53,-883 1505.56,-896.02 1520.49,-905.08 1536.47,-911.37"/>
<polygon fill="black" stroke="black" points="1535.38,-914.7 1545.98,-914.76 1537.73,-908.11 1535.38,-914.7"/>
</g>
<!-- n0_place_6 -->
<g id="node13" class="node">
<title>n0_place_6</title>
<ellipse fill="white" stroke="black" cx="1303.89" cy="-778" rx="82.05" ry="26.74"/>
<text text-anchor="middle" x="1303.89" y="-781.8" font-family="Times,serif" font-size="14.00">place_counter</text>
<text text-anchor="middle" x="1303.89" y="-766.8" font-family="Times,serif" font-size="14.00">int</text>
</g>
<!-- n0_place_5 -->
<g id="node14" class="node">
<title>n0_place_5</title>
<ellipse fill="white" stroke="black" cx="1922.86" cy="-673" rx="60.62" ry="26.74"/>
<text text-anchor="middle" x="1922.86" y="-676.8" font-family="Times,serif" font-size="14.00">place_Tau</text>
<text text-anchor="middle" x="1922.86" y="-661.8" font-family="Times,serif" font-size="14.00">string</text>
</g>
<!-- n0_place_4 -->
<g id="node15" class="node">
<title>n0_place_4</title>
<ellipse fill="white" stroke="black" cx="733.39" cy="-479" rx="78.48" ry="26.74"/>
<text text-anchor="middle" x="733.39" y="-482.8" font-family="Times,serif" font-size="14.00">place_control</text>
<text text-anchor="middle" x="733.39" y="-467.8" font-family="Times,serif" font-size="14.00">control</text>
</g>
<!-- n2_port_3 -->
<g id="node31" class="node">
<title>n2_port_3</title>
<polygon fill="white" stroke="black" points="1058.88,-489.33 1000.26,-512.43 941.64,-489.33 941.69,-451.96 1058.82,-451.96 1058.88,-489.33"/>
<text text-anchor="middle" x="1000.26" y="-482.8" font-family="Times,serif" font-size="14.00">s</text>
<text text-anchor="middle" x="1000.26" y="-467.8" font-family="Times,serif" font-size="14.00">control</text>
</g>
<!-- n0_place_4&#45;&gt;n2_port_3 -->
<g id="edge7" class="edge">
<title>n0_place_4&#45;&gt;n2_port_3</title>
<path fill="none" stroke="black" d="M812.07,-479C849.88,-479 894.92,-479 931.35,-479"/>
<polygon fill="black" stroke="black" points="931.38,-482.5 941.38,-479 931.38,-475.5 931.38,-482.5"/>
</g>
<!-- n6_port_1 -->
<g id="node58" class="node">
<title>n6_port_1</title>
<polygon fill="white" stroke="black" points="512.16,-573.33 460.53,-596.43 408.89,-573.33 408.94,-535.96 512.12,-535.96 512.16,-573.33"/>
<text text-anchor="middle" x="460.53" y="-566.8" font-family="Times,serif" font-size="14.00">input</text>
<text text-anchor="middle" x="460.53" y="-551.8" font-family="Times,serif" font-size="14.00">string</text>
</g>
<!-- n0_place_3&#45;&gt;n6_port_1 -->
<g id="edge30" class="edge">
<title>n0_place_3&#45;&gt;n6_port_1</title>
<path fill="none" stroke="black" d="M313.74,-563C341.61,-563 372.54,-563 398.72,-563"/>
<polygon fill="black" stroke="black" points="398.87,-566.5 408.87,-563 398.87,-559.5 398.87,-566.5"/>
</g>
<!-- n0_place_2 -->
<g id="node17" class="node">
<title>n0_place_2</title>
<ellipse fill="white" stroke="black" cx="1922.86" cy="-239" rx="122.16" ry="26.74"/>
<text text-anchor="middle" x="1922.86" y="-242.8" font-family="Times,serif" font-size="14.00">place_StartTime_LIFT</text>
<text text-anchor="middle" x="1922.86" y="-227.8" font-family="Times,serif" font-size="14.00">long</text>
</g>
<!-- n4_port_0 -->
<g id="node44" class="node">
<title>n4_port_0</title>
<polygon fill="white" stroke="black" points="2287.01,-289.33 2208.19,-312.43 2129.36,-289.33 2129.43,-251.96 2286.94,-251.96 2287.01,-289.33"/>
<text text-anchor="middle" x="2208.19" y="-282.8" font-family="Times,serif" font-size="14.00">start_time</text>
<text text-anchor="middle" x="2208.19" y="-267.8" font-family="Times,serif" font-size="14.00">long</text>
</g>
<!-- n0_place_2&#45;&gt;n4_port_0 -->
<g id="edge19" class="edge">
<title>n0_place_2&#45;&gt;n4_port_0</title>
<path fill="none" stroke="black" d="M2026.14,-253.44C2056.63,-257.74 2089.76,-262.42 2119.24,-266.58"/>
<polygon fill="black" stroke="black" points="2119.12,-270.1 2129.51,-268.03 2120.09,-263.17 2119.12,-270.1"/>
</g>
<!-- n0_place_1 -->
<g id="node18" class="node">
<title>n0_place_1</title>
<ellipse fill="white" stroke="black" cx="733.39" cy="-1183" rx="125.73" ry="37.45"/>
<text text-anchor="middle" x="733.39" y="-1194.3" font-family="Times,serif" font-size="14.00">place_control_All_Lead</text>
<text text-anchor="middle" x="733.39" y="-1179.3" font-family="Times,serif" font-size="14.00">control</text>
<text text-anchor="middle" x="733.39" y="-1164.3" font-family="Times,serif" font-size="14.00">[]</text>
</g>
<!-- n3_port_3 -->
<g id="node38" class="node">
<title>n3_port_3</title>
<polygon fill="white" stroke="black" points="1058.88,-1193.33 1000.26,-1216.43 941.64,-1193.33 941.69,-1155.96 1058.82,-1155.96 1058.88,-1193.33"/>
<text text-anchor="middle" x="1000.26" y="-1186.8" font-family="Times,serif" font-size="14.00">C</text>
<text text-anchor="middle" x="1000.26" y="-1171.8" font-family="Times,serif" font-size="14.00">control</text>
</g>
<!-- n0_place_1&#45;&gt;n3_port_3 -->
<g id="edge13" class="edge">
<title>n0_place_1&#45;&gt;n3_port_3</title>
<path fill="none" stroke="black" d="M859.46,-1183C884.2,-1183 909.29,-1183 931.25,-1183"/>
<polygon fill="black" stroke="black" points="931.44,-1186.5 941.44,-1183 931.44,-1179.5 931.44,-1186.5"/>
</g>
<!-- n0_place_0 -->
<g id="node19" class="node">
<title>n0_place_0</title>
<ellipse fill="white" stroke="black" cx="1303.89" cy="-931" rx="98.99" ry="26.74"/>
<text text-anchor="middle" x="1303.89" y="-934.8" font-family="Times,serif" font-size="14.00">place_length_Res</text>
<text text-anchor="middle" x="1303.89" y="-919.8" font-family="Times,serif" font-size="14.00">int</text>
</g>
<!-- n0_place_13 -->
<g id="node20" class="node">
<title>n0_place_13</title>
<ellipse fill="white" stroke="black" cx="1922.86" cy="-163" rx="94.09" ry="26.74"/>
<text text-anchor="middle" x="1922.86" y="-166.8" font-family="Times,serif" font-size="14.00">place_StartTime</text>
<text text-anchor="middle" x="1922.86" y="-151.8" font-family="Times,serif" font-size="14.00">long</text>
</g>
<!-- n4_port_1 -->
<g id="node45" class="node">
<title>n4_port_1</title>
<polygon fill="white" stroke="black" points="2288.51,-205.33 2208.19,-228.43 2127.86,-205.33 2127.94,-167.96 2288.43,-167.96 2288.51,-205.33"/>
<text text-anchor="middle" x="2208.19" y="-198.8" font-family="Times,serif" font-size="14.00">bigin_time</text>
<text text-anchor="middle" x="2208.19" y="-183.8" font-family="Times,serif" font-size="14.00">long</text>
</g>
<!-- n0_place_13&#45;&gt;n4_port_1 -->
<g id="edge17" class="edge">
<title>n0_place_13&#45;&gt;n4_port_1</title>
<path fill="none" stroke="black" d="M2010.79,-172.82C2044.69,-176.65 2083.54,-181.04 2117.69,-184.89"/>
<polygon fill="black" stroke="black" points="2117.32,-188.37 2127.65,-186.02 2118.11,-181.42 2117.32,-188.37"/>
</g>
<!-- n0_place_14 -->
<g id="node21" class="node">
<title>n0_place_14</title>
<ellipse fill="white" stroke="black" cx="1303.89" cy="-291" rx="162.77" ry="37.45"/>
<text text-anchor="middle" x="1303.89" y="-302.3" font-family="Times,serif" font-size="14.00">place_control_StartTime_LIFT</text>
<text text-anchor="middle" x="1303.89" y="-287.3" font-family="Times,serif" font-size="14.00">control</text>
<text text-anchor="middle" x="1303.89" y="-272.3" font-family="Times,serif" font-size="14.00">[]</text>
</g>
<!-- n1_port_0 -->
<g id="node23" class="node">
<title>n1_port_0</title>
<polygon fill="white" stroke="black" points="1692.15,-301.33 1633.53,-324.43 1574.91,-301.33 1574.96,-263.96 1692.09,-263.96 1692.15,-301.33"/>
<text text-anchor="middle" x="1633.53" y="-294.8" font-family="Times,serif" font-size="14.00">c</text>
<text text-anchor="middle" x="1633.53" y="-279.8" font-family="Times,serif" font-size="14.00">control</text>
</g>
<!-- n0_place_14&#45;&gt;n1_port_0 -->
<g id="edge3" class="edge">
<title>n0_place_14&#45;&gt;n1_port_0</title>
<path fill="none" stroke="black" d="M1466.79,-291C1501.25,-291 1535.82,-291 1564.41,-291"/>
<polygon fill="black" stroke="black" points="1564.66,-294.5 1574.66,-291 1564.66,-287.5 1564.66,-294.5"/>
</g>
<!-- n1_condition -->
<g id="node22" class="node">
<title>n1_condition</title>
<polygon fill="white" stroke="black" points="1550.53,-427 1550.53,-463 1716.53,-463 1716.53,-427 1550.53,-427"/>
<text text-anchor="middle" x="1633.53" y="-441.3" font-family="Times,serif" font-size="14.00">StartTransition_LIFT</text>
</g>
<!-- n1_port_2 -->
<g id="node25" class="node">
<title>n1_port_2</title>
<polygon fill="white" stroke="black" points="1554.7,-196.67 1633.53,-173.57 1712.35,-196.67 1712.28,-234.04 1554.77,-234.04 1554.7,-196.67"/>
<text text-anchor="middle" x="1633.53" y="-210.8" font-family="Times,serif" font-size="14.00">start_time</text>
<text text-anchor="middle" x="1633.53" y="-195.8" font-family="Times,serif" font-size="14.00">long</text>
</g>
<!-- n1_port_2&#45;&gt;n0_place_2 -->
<g id="edge2" class="edge">
<title>n1_port_2&#45;&gt;n0_place_2</title>
<path fill="none" stroke="black" d="M1712.28,-215.66C1740.21,-218.77 1772.37,-222.35 1802.98,-225.76"/>
<polygon fill="black" stroke="black" points="1802.97,-229.28 1813.3,-226.91 1803.75,-222.32 1802.97,-229.28"/>
</g>
<!-- n1_modcall -->
<g id="node26" class="node">
<title>n1_modcall</title>
<polygon fill="white" stroke="black" points="1764.53,-156 1502.53,-156 1502.53,-120 1764.53,-120 1764.53,-156"/>
<text text-anchor="middle" x="1633.53" y="-134.3" font-family="Times,serif" font-size="14.00">singular_template.StartTime_LIFT</text>
</g>
<!-- n2_condition -->
<g id="node27" class="node">
<title>n2_condition</title>
<polygon fill="white" stroke="black" points="957.26,-699 957.26,-735 1043.26,-735 1043.26,-699 957.26,-699"/>
<text text-anchor="middle" x="1000.26" y="-713.3" font-family="Times,serif" font-size="14.00">LEADSYZ</text>
</g>
<!-- n2_port_4 -->
<g id="node32" class="node">
<title>n2_port_4</title>
<polygon fill="white" stroke="black" points="957.6,-216.67 1000.26,-193.57 1042.91,-216.67 1042.87,-254.04 957.64,-254.04 957.6,-216.67"/>
<text text-anchor="middle" x="1000.26" y="-230.8" font-family="Times,serif" font-size="14.00">OUT</text>
<text text-anchor="middle" x="1000.26" y="-215.8" font-family="Times,serif" font-size="14.00">list</text>
</g>
<!-- n2_port_4&#45;&gt;n0_place_9 -->
<g id="edge6" class="edge">
<title>n2_port_4&#45;&gt;n0_place_9</title>
<path fill="none" stroke="black" d="M1043.35,-229.99C1067.9,-235.21 1096.99,-245.7 1114.83,-267.76 1175.56,-347.94 1074.94,-418.78 1142.72,-487.63 1164.16,-510.93 1198.89,-519.64 1230.09,-521.93"/>
<path fill="none" stroke="transparent" d="M1042.94,-231.94C1067.23,-237.09 1096.31,-247.58 1113.26,-269 1174.41,-346.3 1073.79,-417.15 1141.26,-489 1163.67,-512.87 1198.41,-521.58 1229.94,-523.92"/>
<path fill="none" stroke="black" d="M1042.53,-233.9C1066.55,-238.97 1095.64,-249.46 1111.69,-270.24 1173.26,-344.67 1072.64,-415.51 1139.8,-490.37 1163.19,-514.81 1197.92,-523.52 1229.8,-525.92"/>
<polygon fill="black" stroke="black" points="1229.88,-527.42 1240.05,-524.47 1230.25,-520.43 1229.88,-527.42"/>
</g>
<!-- n2_port_5 -->
<g id="node33" class="node">
<title>n2_port_5</title>
<polygon fill="white" stroke="black" points="938.15,-300.67 1000.26,-277.57 1062.37,-300.67 1062.31,-338.04 938.2,-338.04 938.15,-300.67"/>
<text text-anchor="middle" x="1000.26" y="-314.8" font-family="Times,serif" font-size="14.00">counter</text>
<text text-anchor="middle" x="1000.26" y="-299.8" font-family="Times,serif" font-size="14.00">int</text>
</g>
<!-- n2_port_5&#45;&gt;n0_place_6 -->
<g id="edge5" class="edge">
<title>n2_port_5&#45;&gt;n0_place_6</title>
<path fill="none" stroke="black" d="M1062.37,-320.53C1081.61,-326.62 1101.01,-336.62 1113.26,-353 1165.15,-422.42 1084.65,-676.37 1141.26,-742 1158.91,-762.46 1185.39,-772.75 1211.83,-777.58"/>
<polygon fill="black" stroke="black" points="1211.52,-781.07 1221.95,-779.17 1212.61,-774.16 1211.52,-781.07"/>
</g>
<!-- n2_modcall -->
<g id="node34" class="node">
<title>n2_modcall</title>
<polygon fill="white" stroke="black" points="1101.76,-176 898.76,-176 898.76,-140 1101.76,-140 1101.76,-176"/>
<text text-anchor="middle" x="1000.26" y="-154.3" font-family="Times,serif" font-size="14.00">singular_template.leadsyz</text>
</g>
<!-- n3_condition -->
<g id="node35" class="node">
<title>n3_condition</title>
<polygon fill="white" stroke="black" points="961.76,-1319 961.76,-1355 1038.76,-1355 1038.76,-1319 961.76,-1319"/>
<text text-anchor="middle" x="1000.26" y="-1333.3" font-family="Times,serif" font-size="14.00">All_Lead</text>
</g>
<!-- n3_port_2 -->
<g id="node40" class="node">
<title>n3_port_2</title>
<polygon fill="white" stroke="black" points="931.16,-836.67 1000.26,-813.57 1069.35,-836.67 1069.29,-874.04 931.23,-874.04 931.16,-836.67"/>
<text text-anchor="middle" x="1000.26" y="-850.8" font-family="Times,serif" font-size="14.00">OUTPUT</text>
<text text-anchor="middle" x="1000.26" y="-835.8" font-family="Times,serif" font-size="14.00">list</text>
</g>
<!-- n3_port_2&#45;&gt;n0_place_11 -->
<g id="edge12" class="edge">
<title>n3_port_2&#45;&gt;n0_place_11</title>
<path fill="none" stroke="black" d="M1061.03,-832.12C1079.1,-825.91 1098.1,-816.66 1111.89,-803.54 1134,-785.23 1115.98,-762.65 1139.99,-740.45 1159.72,-724.44 1184.28,-715.24 1208.72,-709.85"/>
<path fill="none" stroke="transparent" d="M1061.69,-834.01C1079.98,-827.7 1098.97,-818.46 1113.26,-805 1135.56,-783.99 1117.55,-761.41 1141.26,-742 1160.42,-726.32 1184.99,-717.11 1209.15,-711.8"/>
<path fill="none" stroke="black" d="M1062.34,-835.9C1080.85,-829.5 1099.85,-820.26 1114.63,-806.46 1137.12,-782.74 1119.11,-760.16 1142.52,-743.55 1161.12,-728.19 1185.69,-718.98 1209.58,-713.75"/>
<polygon fill="black" stroke="black" points="1209.97,-715.21 1219.1,-709.82 1208.61,-708.34 1209.97,-715.21"/>
</g>
<!-- n3_port_5 -->
<g id="node41" class="node">
<title>n3_port_5</title>
<polygon fill="white" stroke="black" points="938.15,-920.67 1000.26,-897.57 1062.37,-920.67 1062.31,-958.04 938.2,-958.04 938.15,-920.67"/>
<text text-anchor="middle" x="1000.26" y="-934.8" font-family="Times,serif" font-size="14.00">counter</text>
<text text-anchor="middle" x="1000.26" y="-919.8" font-family="Times,serif" font-size="14.00">int</text>
</g>
<!-- n3_port_5&#45;&gt;n0_place_0 -->
<g id="edge11" class="edge">
<title>n3_port_5&#45;&gt;n0_place_0</title>
<path fill="none" stroke="black" d="M1062.66,-931C1100.54,-931 1150.18,-931 1194.51,-931"/>
<polygon fill="black" stroke="black" points="1194.76,-934.5 1204.76,-931 1194.76,-927.5 1194.76,-934.5"/>
</g>
<!-- n3_modcall -->
<g id="node42" class="node">
<title>n3_modcall</title>
<polygon fill="white" stroke="black" points="1105.26,-796 895.26,-796 895.26,-760 1105.26,-760 1105.26,-796"/>
<text text-anchor="middle" x="1000.26" y="-774.3" font-family="Times,serif" font-size="14.00">singular_template.All_Lead</text>
</g>
<!-- n4_condition -->
<g id="node43" class="node">
<title>n4_condition</title>
<polygon fill="white" stroke="black" points="2141.19,-415 2141.19,-477 2275.19,-477 2275.19,-415 2141.19,-415"/>
<text text-anchor="middle" x="2208.19" y="-461.8" font-family="Times,serif" font-size="14.00">EndTime_LIFT</text>
<polyline fill="none" stroke="black" points="2141.19,-454 2275.19,-454 "/>
<text text-anchor="middle" x="2208.19" y="-438.8" font-family="Times,serif" font-size="14.00">(${k2} == 0UL)</text>
</g>
<!-- n4_modcall -->
<g id="node47" class="node">
<title>n4_modcall</title>
<polygon fill="white" stroke="black" points="2335.19,-144 2081.19,-144 2081.19,-108 2335.19,-108 2335.19,-144"/>
<text text-anchor="middle" x="2208.19" y="-122.3" font-family="Times,serif" font-size="14.00">singular_template.EndTime_LIFT</text>
</g>
<!-- n5_condition -->
<g id="node48" class="node">
<title>n5_condition</title>
<polygon fill="white" stroke="black" points="1606.53,-1229 1606.53,-1265 1660.53,-1265 1660.53,-1229 1606.53,-1229"/>
<text text-anchor="middle" x="1633.53" y="-1243.3" font-family="Times,serif" font-size="14.00">LIFT</text>
</g>
<!-- n5_port_1 -->
<g id="node54" class="node">
<title>n5_port_1</title>
<polygon fill="white" stroke="black" points="1561.69,-746.67 1633.53,-723.57 1705.37,-746.67 1705.3,-784.04 1561.75,-784.04 1561.69,-746.67"/>
<text text-anchor="middle" x="1633.53" y="-760.8" font-family="Times,serif" font-size="14.00">SUBLIFT</text>
<text text-anchor="middle" x="1633.53" y="-745.8" font-family="Times,serif" font-size="14.00">string</text>
</g>
<!-- n5_port_1&#45;&gt;n0_place_12 -->
<g id="edge20" class="edge">
<title>n5_port_1&#45;&gt;n0_place_12</title>
<path fill="none" stroke="black" d="M1705.55,-757C1743.93,-757 1791.69,-757 1832.56,-757"/>
<polygon fill="black" stroke="black" points="1832.8,-760.5 1842.8,-757 1832.8,-753.5 1832.8,-760.5"/>
</g>
<!-- n5_port_4 -->
<g id="node55" class="node">
<title>n5_port_4</title>
<polygon fill="white" stroke="black" points="1589.62,-662.67 1633.53,-639.57 1677.43,-662.67 1677.39,-700.04 1589.66,-700.04 1589.62,-662.67"/>
<text text-anchor="middle" x="1633.53" y="-676.8" font-family="Times,serif" font-size="14.00">LIFT</text>
<text text-anchor="middle" x="1633.53" y="-661.8" font-family="Times,serif" font-size="14.00">list</text>
</g>
<!-- n5_port_4&#45;&gt;n0_place_5 -->
<g id="edge21" class="edge">
<title>n5_port_4&#45;&gt;n0_place_5</title>
<path fill="none" stroke="black" d="M1677.23,-671C1723.2,-671 1797.06,-671 1851.6,-671"/>
<path fill="none" stroke="transparent" d="M1677.23,-673C1723.2,-673 1797.06,-673 1851.6,-673"/>
<path fill="none" stroke="black" d="M1677.23,-675C1723.2,-675 1797.06,-675 1851.6,-675"/>
<polygon fill="black" stroke="black" points="1851.9,-676.5 1861.9,-673 1851.9,-669.5 1851.9,-676.5"/>
</g>
<!-- n5_modcall -->
<g id="node56" class="node">
<title>n5_modcall</title>
<polygon fill="white" stroke="black" points="1725.03,-622 1542.03,-622 1542.03,-586 1725.03,-586 1725.03,-622"/>
<text text-anchor="middle" x="1633.53" y="-600.3" font-family="Times,serif" font-size="14.00">singular_template.LIFT</text>
</g>
<!-- n6_condition -->
<g id="node57" class="node">
<title>n6_condition</title>
<polygon fill="white" stroke="black" points="416.03,-615 416.03,-651 505.03,-651 505.03,-615 416.03,-615"/>
<text text-anchor="middle" x="460.53" y="-629.3" font-family="Times,serif" font-size="14.00">StartTime</text>
</g>
<!-- n6_port_0 -->
<g id="node59" class="node">
<title>n6_port_0</title>
<polygon fill="white" stroke="black" points="401.91,-468.67 460.53,-445.57 519.15,-468.67 519.09,-506.04 401.96,-506.04 401.91,-468.67"/>
<text text-anchor="middle" x="460.53" y="-482.8" font-family="Times,serif" font-size="14.00">c</text>
<text text-anchor="middle" x="460.53" y="-467.8" font-family="Times,serif" font-size="14.00">control</text>
</g>
<!-- n6_port_0&#45;&gt;n0_place_4 -->
<g id="edge27" class="edge">
<title>n6_port_0&#45;&gt;n0_place_4</title>
<path fill="none" stroke="black" d="M519.3,-479C555.76,-479 603.56,-479 644.65,-479"/>
<polygon fill="black" stroke="black" points="644.66,-482.5 654.66,-479 644.66,-475.5 644.66,-482.5"/>
</g>
<!-- n6_port_2 -->
<g id="node60" class="node">
<title>n6_port_2</title>
<polygon fill="white" stroke="black" points="404.65,-384.67 460.53,-361.57 516.4,-384.67 516.35,-422.04 404.7,-422.04 404.65,-384.67"/>
<text text-anchor="middle" x="460.53" y="-398.8" font-family="Times,serif" font-size="14.00">output</text>
<text text-anchor="middle" x="460.53" y="-383.8" font-family="Times,serif" font-size="14.00">string</text>
</g>
<!-- n6_port_2&#45;&gt;n0_place_7 -->
<g id="edge28" class="edge">
<title>n6_port_2&#45;&gt;n0_place_7</title>
<path fill="none" stroke="black" d="M516.67,-395C550.18,-395 593.95,-395 633.31,-395"/>
<polygon fill="black" stroke="black" points="633.47,-398.5 643.47,-395 633.47,-391.5 633.47,-398.5"/>
</g>
<!-- n6_port_3 -->
<g id="node61" class="node">
<title>n6_port_3</title>
<polygon fill="white" stroke="black" points="381.7,-300.67 460.53,-277.57 539.35,-300.67 539.28,-338.04 381.78,-338.04 381.7,-300.67"/>
<text text-anchor="middle" x="460.53" y="-314.8" font-family="Times,serif" font-size="14.00">start_time</text>
<text text-anchor="middle" x="460.53" y="-299.8" font-family="Times,serif" font-size="14.00">long</text>
</g>
<!-- n6_port_3&#45;&gt;n0_place_13 -->
<g id="edge29" class="edge">
<title>n6_port_3&#45;&gt;n0_place_13</title>
<path fill="none" stroke="black" d="M515.26,-293.53C535.61,-286.48 558.86,-277.91 579.53,-269 720.53,-208.24 739.9,-155.14 887.26,-112 935.26,-97.95 949.24,-101 999.26,-101 999.26,-101 999.26,-101 1304.89,-101 1512.75,-101 1568.17,-69.98 1772.53,-108 1803.51,-113.76 1836.52,-125.31 1863.61,-136.34"/>
<polygon fill="black" stroke="black" points="1862.35,-139.61 1872.93,-140.21 1865.04,-133.14 1862.35,-139.61"/>
</g>
<!-- n6_modcall -->
<g id="node62" class="node">
<title>n6_modcall</title>
<polygon fill="white" stroke="black" points="571.53,-260 349.53,-260 349.53,-224 571.53,-224 571.53,-260"/>
<text text-anchor="middle" x="460.53" y="-238.3" font-family="Times,serif" font-size="14.00">singular_template.StartTime</text>
</g>
</g>
</svg>
