<?xml version="1.0" encoding="UTF-8" standalone="no"?>
<!DOCTYPE svg PUBLIC "-//W3C//DTD SVG 1.1//EN"
 "http://www.w3.org/Graphics/SVG/1.1/DTD/svg11.dtd">
<!-- Generated by graphviz version 2.43.0 (0)
 -->
<!-- Title: template Pages: 1 -->
<svg width="2902pt" height="1688pt"
 viewBox="0.00 0.00 2902.12 1688.00" xmlns="http://www.w3.org/2000/svg" xmlns:xlink="http://www.w3.org/1999/xlink">
<g id="graph0" class="graph" transform="scale(1 1) rotate(0) translate(4 1684)">
<title>template</title>
<polygon fill="white" stroke="transparent" points="-4,4 -4,-1684 2898.12,-1684 2898.12,4 -4,4"/>
<g id="clust1" class="cluster">
<title>cluster_0</title>
<polygon fill="dimgray" stroke="black" points="8,-8 8,-1672 2886.12,-1672 2886.12,-8 8,-8"/>
</g>
<g id="clust2" class="cluster">
<title>cluster_net_0</title>
<polygon fill="white" stroke="black" points="147.14,-90 147.14,-1506 2878.12,-1506 2878.12,-90 147.14,-90"/>
</g>
<g id="clust3" class="cluster">
<title>cluster_place_2</title>
</g>
<g id="clust4" class="cluster">
<title>cluster_1</title>
<polygon fill="yellow" stroke="black" points="2618.12,-371 2618.12,-815 2870.12,-815 2870.12,-371 2618.12,-371"/>
</g>
<g id="clust5" class="cluster">
<title>cluster_2</title>
<polygon fill="yellow" stroke="black" points="2048.06,-408 2048.06,-794 2357.06,-794 2357.06,-408 2048.06,-408"/>
</g>
<g id="clust6" class="cluster">
<title>cluster_3</title>
<polygon fill="yellow" stroke="black" points="1367.25,-802 1367.25,-1498 1598.26,-1498 1598.26,-802 1367.25,-802"/>
</g>
<g id="clust7" class="cluster">
<title>cluster_4</title>
<polygon fill="yellow" stroke="black" points="890,-284 890,-812 1110.52,-812 1110.52,-284 890,-284"/>
</g>
<g id="clust8" class="cluster">
<title>cluster_5</title>
<polygon fill="yellow" stroke="black" points="887.26,-854 887.26,-1466 1113.26,-1466 1113.26,-854 887.26,-854"/>
</g>
<g id="clust9" class="cluster">
<title>cluster_6</title>
<polygon fill="yellow" stroke="black" points="1367.25,-98 1367.25,-794 1598.26,-794 1598.26,-98 1367.25,-98"/>
</g>
<g id="clust10" class="cluster">
<title>cluster_7</title>
<polygon fill="yellow" stroke="black" points="341.53,-368 341.53,-728 579.53,-728 579.53,-368 341.53,-368"/>
</g>
<!-- n0_condition -->
<g id="node1" class="node">
<title>n0_condition</title>
<polygon fill="white" stroke="black" points="27.57,-1155 27.57,-1191 107.57,-1191 107.57,-1155 27.57,-1155"/>
<text text-anchor="middle" x="67.57" y="-1169.3" font-family="Times,serif" font-size="14.00">template</text>
</g>
<!-- n0_port_0 -->
<g id="node2" class="node">
<title>n0_port_0</title>
<polygon fill="white" stroke="black" points="562.55,-1641.33 460.53,-1664.43 358.5,-1641.33 358.6,-1603.96 562.46,-1603.96 562.55,-1641.33"/>
<text text-anchor="middle" x="460.53" y="-1634.8" font-family="Times,serif" font-size="14.00">base_filename</text>
<text text-anchor="middle" x="460.53" y="-1619.8" font-family="Times,serif" font-size="14.00">string</text>
</g>
<!-- n0_place_6 -->
<g id="node12" class="node">
<title>n0_place_6</title>
<ellipse fill="white" stroke="black" cx="733.39" cy="-1471" rx="113.69" ry="26.74"/>
<text text-anchor="middle" x="733.39" y="-1474.8" font-family="Times,serif" font-size="14.00">place_base_filename</text>
<text text-anchor="middle" x="733.39" y="-1459.8" font-family="Times,serif" font-size="14.00">string</text>
</g>
<!-- n0_port_0&#45;&gt;n0_place_6 -->
<g id="edge37" class="edge">
<title>n0_port_0&#45;&gt;n0_place_6</title>
<path fill="none" stroke="black" stroke-dasharray="1,5" d="M547.68,-1603.94C558.63,-1599.46 569.51,-1594.47 579.53,-1589 626.91,-1563.14 675.15,-1523.13 704.44,-1497"/>
</g>
<!-- n0_port_1 -->
<g id="node3" class="node">
<title>n0_port_1</title>
<polygon fill="white" stroke="black" points="556.81,-1557.33 460.53,-1580.43 364.24,-1557.33 364.33,-1519.96 556.73,-1519.96 556.81,-1557.33"/>
<text text-anchor="middle" x="460.53" y="-1550.8" font-family="Times,serif" font-size="14.00">library_name</text>
<text text-anchor="middle" x="460.53" y="-1535.8" font-family="Times,serif" font-size="14.00">string</text>
</g>
<!-- n0_place_8 -->
<g id="node10" class="node">
<title>n0_place_8</title>
<ellipse fill="white" stroke="black" cx="733.39" cy="-843" rx="109.7" ry="26.74"/>
<text text-anchor="middle" x="733.39" y="-846.8" font-family="Times,serif" font-size="14.00">place_library_name</text>
<text text-anchor="middle" x="733.39" y="-831.8" font-family="Times,serif" font-size="14.00">string</text>
</g>
<!-- n0_port_1&#45;&gt;n0_place_8 -->
<g id="edge38" class="edge">
<title>n0_port_1&#45;&gt;n0_place_8</title>
<path fill="none" stroke="black" stroke-dasharray="1,5" d="M471.98,-1519.83C515.1,-1407.76 678.91,-982 721.97,-870.09"/>
</g>
<!-- n0_port_2 -->
<g id="node4" class="node">
<title>n0_port_2</title>
<polygon fill="white" stroke="black" points="119.2,-641.33 67.57,-664.43 15.93,-641.33 15.98,-603.96 119.16,-603.96 119.2,-641.33"/>
<text text-anchor="middle" x="67.57" y="-634.8" font-family="Times,serif" font-size="14.00">input</text>
<text text-anchor="middle" x="67.57" y="-619.8" font-family="Times,serif" font-size="14.00">string</text>
</g>
<!-- n0_place_3 -->
<g id="node15" class="node">
<title>n0_place_3</title>
<ellipse fill="white" stroke="black" cx="234.33" cy="-631" rx="79.39" ry="26.74"/>
<text text-anchor="middle" x="234.33" y="-634.8" font-family="Times,serif" font-size="14.00">place_initiate</text>
<text text-anchor="middle" x="234.33" y="-619.8" font-family="Times,serif" font-size="14.00">string</text>
</g>
<!-- n0_port_2&#45;&gt;n0_place_3 -->
<g id="edge39" class="edge">
<title>n0_port_2&#45;&gt;n0_place_3</title>
<path fill="none" stroke="black" stroke-dasharray="1,5" d="M119.35,-631C130.6,-631 142.78,-631 154.85,-631"/>
</g>
<!-- n0_port_3 -->
<g id="node5" class="node">
<title>n0_port_3</title>
<polygon fill="white" stroke="black" points="931.16,-38.67 1000.26,-15.57 1069.35,-38.67 1069.29,-76.04 931.23,-76.04 931.16,-38.67"/>
<text text-anchor="middle" x="1000.26" y="-52.8" font-family="Times,serif" font-size="14.00">OUTPUT</text>
<text text-anchor="middle" x="1000.26" y="-37.8" font-family="Times,serif" font-size="14.00">string</text>
</g>
<!-- n0_place_9 -->
<g id="node9" class="node">
<title>n0_place_9</title>
<ellipse fill="white" stroke="black" cx="1240.25" cy="-695" rx="85.62" ry="26.74"/>
<text text-anchor="middle" x="1240.25" y="-698.8" font-family="Times,serif" font-size="14.00">place_All_Lead</text>
<text text-anchor="middle" x="1240.25" y="-683.8" font-family="Times,serif" font-size="14.00">string</text>
</g>
<!-- n0_port_3&#45;&gt;n0_place_9 -->
<g id="edge40" class="edge">
<title>n0_port_3&#45;&gt;n0_place_9</title>
<path fill="none" stroke="black" stroke-dasharray="1,5" d="M1069.46,-57.94C1086.2,-63.41 1102.4,-72.14 1113.26,-86 1163.01,-149.52 1123.06,-369.39 1141.26,-448 1160.61,-531.6 1203.57,-624.11 1225.62,-668.45"/>
</g>
<!-- n0_place_12 -->
<g id="node6" class="node">
<title>n0_place_12</title>
<ellipse fill="white" stroke="black" cx="733.39" cy="-1285" rx="125.73" ry="37.45"/>
<text text-anchor="middle" x="733.39" y="-1296.3" font-family="Times,serif" font-size="14.00">place_control_All_Lead</text>
<text text-anchor="middle" x="733.39" y="-1281.3" font-family="Times,serif" font-size="14.00">control</text>
<text text-anchor="middle" x="733.39" y="-1266.3" font-family="Times,serif" font-size="14.00">[]</text>
</g>
<!-- n5_port_3 -->
<g id="node51" class="node">
<title>n5_port_3</title>
<polygon fill="white" stroke="black" points="1058.88,-1295.33 1000.26,-1318.43 941.64,-1295.33 941.69,-1257.96 1058.82,-1257.96 1058.88,-1295.33"/>
<text text-anchor="middle" x="1000.26" y="-1288.8" font-family="Times,serif" font-size="14.00">C</text>
<text text-anchor="middle" x="1000.26" y="-1273.8" font-family="Times,serif" font-size="14.00">control</text>
</g>
<!-- n0_place_12&#45;&gt;n5_port_3 -->
<g id="edge23" class="edge">
<title>n0_place_12&#45;&gt;n5_port_3</title>
<path fill="none" stroke="black" d="M859.46,-1285C884.2,-1285 909.29,-1285 931.25,-1285"/>
<polygon fill="black" stroke="black" points="931.44,-1288.5 941.44,-1285 931.44,-1281.5 931.44,-1288.5"/>
</g>
<!-- n0_place_11 -->
<g id="node7" class="node">
<title>n0_place_11</title>
<ellipse fill="white" stroke="black" cx="1706.16" cy="-981" rx="60.62" ry="26.74"/>
<text text-anchor="middle" x="1706.16" y="-984.8" font-family="Times,serif" font-size="14.00">place_Tau</text>
<text text-anchor="middle" x="1706.16" y="-969.8" font-family="Times,serif" font-size="14.00">string</text>
</g>
<!-- n3_port_5 -->
<g id="node36" class="node">
<title>n3_port_5</title>
<polygon fill="white" stroke="black" points="1558.09,-991.33 1482.75,-1014.43 1407.42,-991.33 1407.49,-953.96 1558.02,-953.96 1558.09,-991.33"/>
<text text-anchor="middle" x="1482.75" y="-984.8" font-family="Times,serif" font-size="14.00">place_Tau</text>
<text text-anchor="middle" x="1482.75" y="-969.8" font-family="Times,serif" font-size="14.00">string</text>
</g>
<!-- n0_place_11&#45;&gt;n3_port_5 -->
<g id="edge14" class="edge">
<title>n0_place_11&#45;&gt;n3_port_5</title>
<path fill="none" stroke="black" d="M1645.34,-981C1621.62,-981 1593.91,-981 1568.21,-981"/>
<polygon fill="black" stroke="black" points="1568.1,-977.5 1558.1,-981 1568.1,-984.5 1568.1,-977.5"/>
</g>
<!-- n0_place_10 -->
<g id="node8" class="node">
<title>n0_place_10</title>
<ellipse fill="white" stroke="black" cx="1921.06" cy="-680" rx="98.99" ry="37.45"/>
<text text-anchor="middle" x="1921.06" y="-691.3" font-family="Times,serif" font-size="14.00">place_file_control</text>
<text text-anchor="middle" x="1921.06" y="-676.3" font-family="Times,serif" font-size="14.00">control</text>
<text text-anchor="middle" x="1921.06" y="-661.3" font-family="Times,serif" font-size="14.00">[]</text>
</g>
<!-- n2_port_0 -->
<g id="node28" class="node">
<title>n2_port_0</title>
<polygon fill="white" stroke="black" points="2261.18,-681.33 2202.56,-704.43 2143.94,-681.33 2143.99,-643.96 2261.12,-643.96 2261.18,-681.33"/>
<text text-anchor="middle" x="2202.56" y="-674.8" font-family="Times,serif" font-size="14.00">IN</text>
<text text-anchor="middle" x="2202.56" y="-659.8" font-family="Times,serif" font-size="14.00">control</text>
</g>
<!-- n0_place_10&#45;&gt;n2_port_0 -->
<g id="edge7" class="edge">
<title>n0_place_10&#45;&gt;n2_port_0</title>
<path fill="none" stroke="black" d="M2019.81,-676.85C2057.33,-675.64 2099.31,-674.29 2133.45,-673.19"/>
<polygon fill="black" stroke="black" points="2133.9,-676.68 2143.79,-672.86 2133.68,-669.68 2133.9,-676.68"/>
</g>
<!-- n3_port_4 -->
<g id="node35" class="node">
<title>n3_port_4</title>
<polygon fill="white" stroke="black" points="1544.87,-1075.33 1482.75,-1098.43 1420.64,-1075.33 1420.7,-1037.96 1544.81,-1037.96 1544.87,-1075.33"/>
<text text-anchor="middle" x="1482.75" y="-1068.8" font-family="Times,serif" font-size="14.00">all_lead</text>
<text text-anchor="middle" x="1482.75" y="-1053.8" font-family="Times,serif" font-size="14.00">string</text>
</g>
<!-- n0_place_9&#45;&gt;n3_port_4 -->
<g id="edge11" class="edge">
<title>n0_place_9&#45;&gt;n3_port_4</title>
<path fill="none" stroke="black" stroke-dasharray="5,2" d="M1308.13,-711.54C1320.16,-717.4 1331.36,-725.32 1339.25,-736 1415.36,-839.11 1288.85,-921.62 1367.25,-1023 1378.08,-1037 1394.04,-1046.34 1410.64,-1052.56"/>
<polygon fill="black" stroke="black" points="1409.85,-1055.99 1420.44,-1055.88 1412.09,-1049.36 1409.85,-1055.99"/>
</g>
<!-- n6_port_5 -->
<g id="node60" class="node">
<title>n6_port_5</title>
<polygon fill="white" stroke="black" points="1544.87,-623.33 1482.75,-646.43 1420.64,-623.33 1420.7,-585.96 1544.81,-585.96 1544.87,-623.33"/>
<text text-anchor="middle" x="1482.75" y="-616.8" font-family="Times,serif" font-size="14.00">all_lead</text>
<text text-anchor="middle" x="1482.75" y="-601.8" font-family="Times,serif" font-size="14.00">string</text>
</g>
<!-- n0_place_9&#45;&gt;n6_port_5 -->
<g id="edge30" class="edge">
<title>n0_place_9&#45;&gt;n6_port_5</title>
<path fill="none" stroke="black" stroke-dasharray="5,2" d="M1298.86,-675.36C1337.13,-662.31 1387.14,-645.26 1425.2,-632.28"/>
<polygon fill="black" stroke="black" points="1426.76,-635.45 1435.09,-628.91 1424.5,-628.82 1426.76,-635.45"/>
</g>
<!-- n3_port_0 -->
<g id="node33" class="node">
<title>n3_port_0</title>
<polygon fill="white" stroke="black" points="1590.27,-1327.33 1482.75,-1350.43 1375.24,-1327.33 1375.34,-1289.96 1590.17,-1289.96 1590.27,-1327.33"/>
<text text-anchor="middle" x="1482.75" y="-1320.8" font-family="Times,serif" font-size="14.00">needed_library</text>
<text text-anchor="middle" x="1482.75" y="-1305.8" font-family="Times,serif" font-size="14.00">string</text>
</g>
<!-- n0_place_8&#45;&gt;n3_port_0 -->
<g id="edge15" class="edge">
<title>n0_place_8&#45;&gt;n3_port_0</title>
<path fill="none" stroke="black" stroke-dasharray="5,2" d="M841.56,-838.44C935.49,-835.64 1064.44,-835.03 1113.26,-850 1227.81,-885.13 1276.9,-894.68 1339.25,-997 1403.86,-1103.05 1291.13,-1176.88 1367.25,-1275 1369.59,-1278.02 1372.18,-1280.83 1374.95,-1283.43"/>
<polygon fill="black" stroke="black" points="1372.79,-1286.18 1382.73,-1289.86 1377.25,-1280.79 1372.79,-1286.18"/>
</g>
<!-- n4_port_0 -->
<g id="node42" class="node">
<title>n4_port_0</title>
<polygon fill="white" stroke="black" points="1096.54,-641.33 1000.26,-664.43 903.97,-641.33 904.06,-603.96 1096.46,-603.96 1096.54,-641.33"/>
<text text-anchor="middle" x="1000.26" y="-634.8" font-family="Times,serif" font-size="14.00">library_name</text>
<text text-anchor="middle" x="1000.26" y="-619.8" font-family="Times,serif" font-size="14.00">string</text>
</g>
<!-- n0_place_8&#45;&gt;n4_port_0 -->
<g id="edge20" class="edge">
<title>n0_place_8&#45;&gt;n4_port_0</title>
<path fill="none" stroke="black" stroke-dasharray="5,2" d="M752.06,-816.36C777.79,-779.45 828.89,-712.81 887.26,-673 898.92,-665.04 912.29,-658.35 925.64,-652.81"/>
<polygon fill="black" stroke="black" points="927.32,-655.91 935.33,-648.98 924.74,-649.4 927.32,-655.91"/>
</g>
<!-- n5_port_0 -->
<g id="node49" class="node">
<title>n5_port_0</title>
<polygon fill="white" stroke="black" points="1096.54,-1211.33 1000.26,-1234.43 903.97,-1211.33 904.06,-1173.96 1096.46,-1173.96 1096.54,-1211.33"/>
<text text-anchor="middle" x="1000.26" y="-1204.8" font-family="Times,serif" font-size="14.00">library_name</text>
<text text-anchor="middle" x="1000.26" y="-1189.8" font-family="Times,serif" font-size="14.00">string</text>
</g>
<!-- n0_place_8&#45;&gt;n5_port_0 -->
<g id="edge26" class="edge">
<title>n0_place_8&#45;&gt;n5_port_0</title>
<path fill="none" stroke="black" stroke-dasharray="5,2" d="M740.21,-869.96C754.56,-930.19 797.21,-1076.86 887.26,-1159 891.04,-1162.45 895.14,-1165.63 899.45,-1168.56"/>
<polygon fill="black" stroke="black" points="897.65,-1171.56 907.99,-1173.87 901.35,-1165.61 897.65,-1171.56"/>
</g>
<!-- n6_port_0 -->
<g id="node57" class="node">
<title>n6_port_0</title>
<polygon fill="white" stroke="black" points="1590.27,-539.33 1482.75,-562.43 1375.24,-539.33 1375.34,-501.96 1590.17,-501.96 1590.27,-539.33"/>
<text text-anchor="middle" x="1482.75" y="-532.8" font-family="Times,serif" font-size="14.00">needed_library</text>
<text text-anchor="middle" x="1482.75" y="-517.8" font-family="Times,serif" font-size="14.00">string</text>
</g>
<!-- n0_place_8&#45;&gt;n6_port_0 -->
<g id="edge33" class="edge">
<title>n0_place_8&#45;&gt;n6_port_0</title>
<path fill="none" stroke="black" stroke-dasharray="5,2" d="M841.63,-838.57C950.08,-833.61 1103.19,-825.06 1113.26,-816 1165.95,-768.59 1096.25,-713.76 1141.26,-659 1197.69,-590.35 1294.68,-557.9 1370.75,-542.59"/>
<polygon fill="black" stroke="black" points="1371.71,-545.96 1380.86,-540.63 1370.38,-539.09 1371.71,-545.96"/>
</g>
<!-- n0_place_7 -->
<g id="node11" class="node">
<title>n0_place_7</title>
<ellipse fill="white" stroke="black" cx="1240.25" cy="-412" rx="64.19" ry="26.74"/>
<text text-anchor="middle" x="1240.25" y="-415.8" font-family="Times,serif" font-size="14.00">place_lead</text>
<text text-anchor="middle" x="1240.25" y="-400.8" font-family="Times,serif" font-size="14.00">string</text>
</g>
<!-- n6_port_3 -->
<g id="node59" class="node">
<title>n6_port_3</title>
<polygon fill="white" stroke="black" points="1534.39,-455.33 1482.75,-478.43 1431.12,-455.33 1431.17,-417.96 1534.34,-417.96 1534.39,-455.33"/>
<text text-anchor="middle" x="1482.75" y="-448.8" font-family="Times,serif" font-size="14.00">lead</text>
<text text-anchor="middle" x="1482.75" y="-433.8" font-family="Times,serif" font-size="14.00">string</text>
</g>
<!-- n0_place_7&#45;&gt;n6_port_3 -->
<g id="edge29" class="edge">
<title>n0_place_7&#45;&gt;n6_port_3</title>
<path fill="none" stroke="black" d="M1301.63,-420.28C1338.13,-425.29 1384.52,-431.66 1421.07,-436.67"/>
<polygon fill="black" stroke="black" points="1420.72,-440.16 1431.11,-438.05 1421.68,-433.22 1420.72,-440.16"/>
</g>
<!-- n3_port_2 -->
<g id="node34" class="node">
<title>n3_port_2</title>
<polygon fill="white" stroke="black" points="1584.78,-1411.33 1482.75,-1434.43 1380.73,-1411.33 1380.82,-1373.96 1584.68,-1373.96 1584.78,-1411.33"/>
<text text-anchor="middle" x="1482.75" y="-1404.8" font-family="Times,serif" font-size="14.00">base_filename</text>
<text text-anchor="middle" x="1482.75" y="-1389.8" font-family="Times,serif" font-size="14.00">string</text>
</g>
<!-- n0_place_6&#45;&gt;n3_port_2 -->
<g id="edge13" class="edge">
<title>n0_place_6&#45;&gt;n3_port_2</title>
<path fill="none" stroke="black" stroke-dasharray="5,2" d="M803.85,-1492.14C921.37,-1523.75 1163.72,-1570.69 1339.25,-1482 1357.97,-1472.54 1350.52,-1456.65 1367.25,-1444 1378.42,-1435.55 1391.45,-1428.6 1404.62,-1422.93"/>
<polygon fill="black" stroke="black" points="1406.27,-1426.04 1414.21,-1419.03 1403.63,-1419.56 1406.27,-1426.04"/>
</g>
<!-- n4_port_1 -->
<g id="node43" class="node">
<title>n4_port_1</title>
<polygon fill="white" stroke="black" points="1102.28,-725.33 1000.26,-748.43 898.23,-725.33 898.33,-687.96 1102.19,-687.96 1102.28,-725.33"/>
<text text-anchor="middle" x="1000.26" y="-718.8" font-family="Times,serif" font-size="14.00">base_filename</text>
<text text-anchor="middle" x="1000.26" y="-703.8" font-family="Times,serif" font-size="14.00">string</text>
</g>
<!-- n0_place_6&#45;&gt;n4_port_1 -->
<g id="edge19" class="edge">
<title>n0_place_6&#45;&gt;n4_port_1</title>
<path fill="none" stroke="black" stroke-dasharray="5,2" d="M767.85,-1445.13C797.85,-1419.72 840.01,-1378.02 859.26,-1331 883.41,-1272.01 849.88,-809.64 887.26,-758 894.06,-748.6 903.2,-741.26 913.34,-735.52"/>
<polygon fill="black" stroke="black" points="915.15,-738.53 922.48,-730.88 911.98,-732.29 915.15,-738.53"/>
</g>
<!-- n5_port_1 -->
<g id="node50" class="node">
<title>n5_port_1</title>
<polygon fill="white" stroke="black" points="1102.28,-1379.33 1000.26,-1402.43 898.23,-1379.33 898.33,-1341.96 1102.19,-1341.96 1102.28,-1379.33"/>
<text text-anchor="middle" x="1000.26" y="-1372.8" font-family="Times,serif" font-size="14.00">base_filename</text>
<text text-anchor="middle" x="1000.26" y="-1357.8" font-family="Times,serif" font-size="14.00">string</text>
</g>
<!-- n0_place_6&#45;&gt;n5_port_1 -->
<g id="edge25" class="edge">
<title>n0_place_6&#45;&gt;n5_port_1</title>
<path fill="none" stroke="black" stroke-dasharray="5,2" d="M793.55,-1448.14C821.89,-1437.19 856.33,-1423.91 887.26,-1412 902.71,-1406.05 919.37,-1399.65 934.99,-1393.65"/>
<polygon fill="black" stroke="black" points="936.48,-1396.83 944.56,-1389.98 933.97,-1390.29 936.48,-1396.83"/>
</g>
<!-- n6_port_2 -->
<g id="node58" class="node">
<title>n6_port_2</title>
<polygon fill="white" stroke="black" points="1584.78,-707.33 1482.75,-730.43 1380.73,-707.33 1380.82,-669.96 1584.68,-669.96 1584.78,-707.33"/>
<text text-anchor="middle" x="1482.75" y="-700.8" font-family="Times,serif" font-size="14.00">base_filename</text>
<text text-anchor="middle" x="1482.75" y="-685.8" font-family="Times,serif" font-size="14.00">string</text>
</g>
<!-- n0_place_6&#45;&gt;n6_port_2 -->
<g id="edge32" class="edge">
<title>n0_place_6&#45;&gt;n6_port_2</title>
<path fill="none" stroke="black" stroke-dasharray="5,2" d="M837.38,-1482.11C933.34,-1490.44 1068.21,-1496.4 1113.26,-1470 1289.76,-1366.56 1278.98,-1264.5 1339.25,-1069 1360.86,-998.88 1322.95,-798.49 1367.25,-740 1374.51,-730.41 1384.16,-722.96 1394.8,-717.17"/>
<polygon fill="black" stroke="black" points="1396.49,-720.24 1403.93,-712.69 1393.41,-713.96 1396.49,-720.24"/>
</g>
<!-- n0_place_5 -->
<g id="node13" class="node">
<title>n0_place_5</title>
<ellipse fill="white" stroke="black" cx="733.39" cy="-463" rx="89.61" ry="26.74"/>
<text text-anchor="middle" x="733.39" y="-466.8" font-family="Times,serif" font-size="14.00">place_input_GB</text>
<text text-anchor="middle" x="733.39" y="-451.8" font-family="Times,serif" font-size="14.00">string</text>
</g>
<!-- n3_port_6 -->
<g id="node37" class="node">
<title>n3_port_6</title>
<polygon fill="white" stroke="black" points="1570.06,-1243.33 1482.75,-1266.43 1395.45,-1243.33 1395.53,-1205.96 1569.98,-1205.96 1570.06,-1243.33"/>
<text text-anchor="middle" x="1482.75" y="-1236.8" font-family="Times,serif" font-size="14.00">input_name</text>
<text text-anchor="middle" x="1482.75" y="-1221.8" font-family="Times,serif" font-size="14.00">string</text>
</g>
<!-- n0_place_5&#45;&gt;n3_port_6 -->
<g id="edge12" class="edge">
<title>n0_place_5&#45;&gt;n3_port_6</title>
<path fill="none" stroke="black" stroke-dasharray="5,2" d="M746.96,-436.41C768.68,-394 817.7,-312.53 887.26,-280 910,-269.36 1094.96,-262.8 1113.26,-280 1149.84,-314.38 1115.51,-687.9 1141.26,-731 1194.38,-819.94 1285.2,-765.62 1339.25,-854 1378.46,-918.11 1321.71,-1131.23 1367.25,-1191 1372.55,-1197.96 1379.13,-1203.77 1386.42,-1208.61"/>
<polygon fill="black" stroke="black" points="1384.91,-1211.78 1395.29,-1213.87 1388.48,-1205.76 1384.91,-1211.78"/>
</g>
<!-- n4_port_2 -->
<g id="node44" class="node">
<title>n4_port_2</title>
<polygon fill="white" stroke="black" points="1051.89,-473.33 1000.26,-496.43 948.62,-473.33 948.67,-435.96 1051.85,-435.96 1051.89,-473.33"/>
<text text-anchor="middle" x="1000.26" y="-466.8" font-family="Times,serif" font-size="14.00">input</text>
<text text-anchor="middle" x="1000.26" y="-451.8" font-family="Times,serif" font-size="14.00">string</text>
</g>
<!-- n0_place_5&#45;&gt;n4_port_2 -->
<g id="edge18" class="edge">
<title>n0_place_5&#45;&gt;n4_port_2</title>
<path fill="none" stroke="black" stroke-dasharray="5,2" d="M823.33,-463C861.05,-463 904.08,-463 938.13,-463"/>
<polygon fill="black" stroke="black" points="938.4,-466.5 948.4,-463 938.4,-459.5 938.4,-466.5"/>
</g>
<!-- n5_port_4 -->
<g id="node52" class="node">
<title>n5_port_4</title>
<polygon fill="white" stroke="black" points="1051.89,-1127.33 1000.26,-1150.43 948.62,-1127.33 948.67,-1089.96 1051.85,-1089.96 1051.89,-1127.33"/>
<text text-anchor="middle" x="1000.26" y="-1120.8" font-family="Times,serif" font-size="14.00">init</text>
<text text-anchor="middle" x="1000.26" y="-1105.8" font-family="Times,serif" font-size="14.00">string</text>
</g>
<!-- n0_place_5&#45;&gt;n5_port_4 -->
<g id="edge24" class="edge">
<title>n0_place_5&#45;&gt;n5_port_4</title>
<path fill="none" stroke="black" stroke-dasharray="5,2" d="M810.63,-476.86C829.4,-483.97 847.48,-494.73 859.26,-511 932.85,-612.64 813.24,-973.66 887.26,-1075 899.46,-1091.71 919.14,-1101.78 938.62,-1107.84"/>
<polygon fill="black" stroke="black" points="937.87,-1111.26 948.44,-1110.58 939.75,-1104.52 937.87,-1111.26"/>
</g>
<!-- n6_port_6 -->
<g id="node61" class="node">
<title>n6_port_6</title>
<polygon fill="white" stroke="black" points="1570.06,-371.33 1482.75,-394.43 1395.45,-371.33 1395.53,-333.96 1569.98,-333.96 1570.06,-371.33"/>
<text text-anchor="middle" x="1482.75" y="-364.8" font-family="Times,serif" font-size="14.00">input_name</text>
<text text-anchor="middle" x="1482.75" y="-349.8" font-family="Times,serif" font-size="14.00">string</text>
</g>
<!-- n0_place_5&#45;&gt;n6_port_6 -->
<g id="edge31" class="edge">
<title>n0_place_5&#45;&gt;n6_port_6</title>
<path fill="none" stroke="black" stroke-dasharray="5,2" d="M745.79,-436.17C766.44,-391.5 814.74,-303.3 887.26,-268 932.42,-246.02 1063.42,-261.81 1113.26,-268 1208.98,-279.89 1315.54,-308.53 1389.35,-330.91"/>
<polygon fill="black" stroke="black" points="1388.5,-334.31 1399.09,-333.88 1390.55,-327.61 1388.5,-334.31"/>
</g>
<!-- n0_place_4 -->
<g id="node14" class="node">
<title>n0_place_4</title>
<ellipse fill="white" stroke="black" cx="733.39" cy="-547" rx="78.48" ry="26.74"/>
<text text-anchor="middle" x="733.39" y="-550.8" font-family="Times,serif" font-size="14.00">place_control</text>
<text text-anchor="middle" x="733.39" y="-535.8" font-family="Times,serif" font-size="14.00">control</text>
</g>
<!-- n4_port_3 -->
<g id="node45" class="node">
<title>n4_port_3</title>
<polygon fill="white" stroke="black" points="1058.88,-557.33 1000.26,-580.43 941.64,-557.33 941.69,-519.96 1058.82,-519.96 1058.88,-557.33"/>
<text text-anchor="middle" x="1000.26" y="-550.8" font-family="Times,serif" font-size="14.00">s</text>
<text text-anchor="middle" x="1000.26" y="-535.8" font-family="Times,serif" font-size="14.00">control</text>
</g>
<!-- n0_place_4&#45;&gt;n4_port_3 -->
<g id="edge17" class="edge">
<title>n0_place_4&#45;&gt;n4_port_3</title>
<path fill="none" stroke="black" d="M812.07,-547C849.88,-547 894.92,-547 931.35,-547"/>
<polygon fill="black" stroke="black" points="931.38,-550.5 941.38,-547 931.38,-543.5 931.38,-550.5"/>
</g>
<!-- n7_port_1 -->
<g id="node66" class="node">
<title>n7_port_1</title>
<polygon fill="white" stroke="black" points="512.16,-641.33 460.53,-664.43 408.89,-641.33 408.94,-603.96 512.12,-603.96 512.16,-641.33"/>
<text text-anchor="middle" x="460.53" y="-634.8" font-family="Times,serif" font-size="14.00">input</text>
<text text-anchor="middle" x="460.53" y="-619.8" font-family="Times,serif" font-size="14.00">string</text>
</g>
<!-- n0_place_3&#45;&gt;n7_port_1 -->
<g id="edge36" class="edge">
<title>n0_place_3&#45;&gt;n7_port_1</title>
<path fill="none" stroke="black" d="M313.74,-631C341.61,-631 372.54,-631 398.72,-631"/>
<polygon fill="black" stroke="black" points="398.87,-634.5 408.87,-631 398.87,-627.5 398.87,-634.5"/>
</g>
<!-- n0_place_2 -->
<g id="node16" class="node">
<title>n0_place_2</title>
<ellipse fill="white" stroke="black" cx="1706.16" cy="-592" rx="79.81" ry="26.74"/>
<text text-anchor="middle" x="1706.16" y="-595.8" font-family="Times,serif" font-size="14.00">place_SubLift</text>
<text text-anchor="middle" x="1706.16" y="-580.8" font-family="Times,serif" font-size="14.00">string</text>
</g>
<!-- n0_place_14 -->
<g id="node17" class="node">
<title>n0_place_14</title>
<ellipse fill="orange" stroke="black" cx="1921.06" cy="-587" rx="88.28" ry="37.45"/>
<text text-anchor="middle" x="1921.06" y="-598.3" font-family="Times,serif" font-size="14.00">#place_SubLift</text>
<text text-anchor="middle" x="1921.06" y="-583.3" font-family="Times,serif" font-size="14.00">unsigned long</text>
<text text-anchor="middle" x="1921.06" y="-568.3" font-family="Times,serif" font-size="14.00">0UL</text>
</g>
<!-- n0_place_2&#45;&gt;n0_place_14 -->
<g id="edge1" class="edge">
<title>n0_place_2&#45;&gt;n0_place_14</title>
<path fill="none" stroke="black" stroke-dasharray="1,5" d="M1786.14,-590.15C1801.28,-589.79 1817.23,-589.42 1832.62,-589.05"/>
</g>
<!-- n1_port_3 -->
<g id="node24" class="node">
<title>n1_port_3</title>
<polygon fill="white" stroke="black" points="2800.74,-728.33 2744.12,-751.43 2687.49,-728.33 2687.54,-690.96 2800.69,-690.96 2800.74,-728.33"/>
<text text-anchor="middle" x="2744.12" y="-721.8" font-family="Times,serif" font-size="14.00">Sublift</text>
<text text-anchor="middle" x="2744.12" y="-706.8" font-family="Times,serif" font-size="14.00">string</text>
</g>
<!-- n0_place_2&#45;&gt;n1_port_3 -->
<g id="edge5" class="edge">
<title>n0_place_2&#45;&gt;n1_port_3</title>
<path fill="none" stroke="black" d="M1769.02,-608.97C1775.44,-612.75 1781.33,-617.36 1786.07,-623 1837.69,-684.47 1759.9,-749.21 1822.07,-800 2086.4,-1015.99 2286.4,-955.83 2590.12,-800 2609.1,-790.26 2601,-773.74 2618.12,-761 2635.92,-747.75 2658.1,-738.38 2678.82,-731.84"/>
<polygon fill="black" stroke="black" points="2679.95,-735.16 2688.53,-728.95 2677.95,-728.45 2679.95,-735.16"/>
</g>
<!-- n2_port_2 -->
<g id="node29" class="node">
<title>n2_port_2</title>
<polygon fill="white" stroke="black" points="2304.58,-597.33 2202.56,-620.43 2100.53,-597.33 2100.63,-559.96 2304.48,-559.96 2304.58,-597.33"/>
<text text-anchor="middle" x="2202.56" y="-590.8" font-family="Times,serif" font-size="14.00">k4</text>
<text text-anchor="middle" x="2202.56" y="-575.8" font-family="Times,serif" font-size="14.00">unsigned long</text>
</g>
<!-- n0_place_14&#45;&gt;n2_port_2 -->
<g id="edge8" class="edge">
<title>n0_place_14&#45;&gt;n2_port_2</title>
<path fill="none" stroke="black" stroke-dasharray="5,2" d="M2009.73,-587C2035.28,-587 2063.54,-587 2090.34,-587"/>
<polygon fill="black" stroke="black" points="2090.53,-590.5 2100.53,-587 2090.53,-583.5 2090.53,-590.5"/>
</g>
<!-- n0_place_1 -->
<g id="node18" class="node">
<title>n0_place_1</title>
<ellipse fill="white" stroke="black" cx="2487.59" cy="-487" rx="102.56" ry="37.45"/>
<text text-anchor="middle" x="2487.59" y="-498.3" font-family="Times,serif" font-size="14.00">place_file_number</text>
<text text-anchor="middle" x="2487.59" y="-483.3" font-family="Times,serif" font-size="14.00">int</text>
<text text-anchor="middle" x="2487.59" y="-468.3" font-family="Times,serif" font-size="14.00">0</text>
</g>
<!-- n1_port_0 -->
<g id="node22" class="node">
<title>n1_port_0</title>
<polygon fill="white" stroke="black" points="2775.55,-560.33 2744.12,-583.43 2712.69,-560.33 2712.72,-522.96 2775.52,-522.96 2775.55,-560.33"/>
<text text-anchor="middle" x="2744.12" y="-553.8" font-family="Times,serif" font-size="14.00">N</text>
<text text-anchor="middle" x="2744.12" y="-538.8" font-family="Times,serif" font-size="14.00">int</text>
</g>
<!-- n0_place_1&#45;&gt;n1_port_0 -->
<g id="edge3" class="edge">
<title>n0_place_1&#45;&gt;n1_port_0</title>
<path fill="none" stroke="black" d="M2572.99,-507.89C2616.71,-518.71 2668.09,-531.43 2702.85,-540.03"/>
<polygon fill="black" stroke="black" points="2702.09,-543.45 2712.63,-542.46 2703.77,-536.65 2702.09,-543.45"/>
</g>
<!-- n0_place_0 -->
<g id="node19" class="node">
<title>n0_place_0</title>
<ellipse fill="white" stroke="black" cx="2487.59" cy="-591" rx="88.28" ry="26.74"/>
<text text-anchor="middle" x="2487.59" y="-594.8" font-family="Times,serif" font-size="14.00">place_file_Read</text>
<text text-anchor="middle" x="2487.59" y="-579.8" font-family="Times,serif" font-size="14.00">control</text>
</g>
<!-- n1_port_1 -->
<g id="node23" class="node">
<title>n1_port_1</title>
<polygon fill="white" stroke="black" points="2802.74,-644.33 2744.12,-667.43 2685.5,-644.33 2685.55,-606.96 2802.68,-606.96 2802.74,-644.33"/>
<text text-anchor="middle" x="2744.12" y="-637.8" font-family="Times,serif" font-size="14.00">k</text>
<text text-anchor="middle" x="2744.12" y="-622.8" font-family="Times,serif" font-size="14.00">control</text>
</g>
<!-- n0_place_0&#45;&gt;n1_port_1 -->
<g id="edge4" class="edge">
<title>n0_place_0&#45;&gt;n1_port_1</title>
<path fill="none" stroke="black" stroke-dasharray="5,2" d="M2565.3,-603.96C2600.19,-609.85 2641.13,-616.77 2674.92,-622.48"/>
<polygon fill="black" stroke="black" points="2674.73,-626 2685.17,-624.21 2675.89,-619.09 2674.73,-626"/>
</g>
<!-- n0_place_13 -->
<g id="node20" class="node">
<title>n0_place_13</title>
<ellipse fill="white" stroke="black" cx="1240.25" cy="-1033" rx="98.99" ry="26.74"/>
<text text-anchor="middle" x="1240.25" y="-1036.8" font-family="Times,serif" font-size="14.00">place_length_Res</text>
<text text-anchor="middle" x="1240.25" y="-1021.8" font-family="Times,serif" font-size="14.00">int</text>
</g>
<!-- n1_condition -->
<g id="node21" class="node">
<title>n1_condition</title>
<polygon fill="white" stroke="black" points="2690.12,-770 2690.12,-806 2798.12,-806 2798.12,-770 2690.12,-770"/>
<text text-anchor="middle" x="2744.12" y="-784.3" font-family="Times,serif" font-size="14.00">Rename_File</text>
</g>
<!-- n1_port_2 -->
<g id="node25" class="node">
<title>n1_port_2</title>
<polygon fill="white" stroke="black" points="2712.69,-455.67 2744.12,-432.57 2775.55,-455.67 2775.52,-493.04 2712.72,-493.04 2712.69,-455.67"/>
<text text-anchor="middle" x="2744.12" y="-469.8" font-family="Times,serif" font-size="14.00">N</text>
<text text-anchor="middle" x="2744.12" y="-454.8" font-family="Times,serif" font-size="14.00">int</text>
</g>
<!-- n1_port_2&#45;&gt;n0_place_1 -->
<g id="edge2" class="edge">
<title>n1_port_2&#45;&gt;n0_place_1</title>
<path fill="none" stroke="black" d="M2712.5,-468.53C2683.91,-470.89 2639.48,-474.55 2597.71,-478"/>
<polygon fill="black" stroke="black" points="2597.4,-474.51 2587.72,-478.82 2597.98,-481.49 2597.4,-474.51"/>
</g>
<!-- n1_modcall -->
<g id="node26" class="node">
<title>n1_modcall</title>
<polygon fill="white" stroke="black" points="2862.12,-415 2626.12,-415 2626.12,-379 2862.12,-379 2862.12,-415"/>
<text text-anchor="middle" x="2744.12" y="-393.3" font-family="Times,serif" font-size="14.00">singular_template.Rename_file</text>
</g>
<!-- n2_condition -->
<g id="node27" class="node">
<title>n2_condition</title>
<polygon fill="white" stroke="black" points="2120.06,-723 2120.06,-785 2285.06,-785 2285.06,-723 2120.06,-723"/>
<text text-anchor="middle" x="2202.56" y="-769.8" font-family="Times,serif" font-size="14.00">control_Rename_File</text>
<polyline fill="none" stroke="black" points="2120.06,-762 2285.06,-762 "/>
<text text-anchor="middle" x="2202.56" y="-746.8" font-family="Times,serif" font-size="14.00">(${k4} == 7047UL)</text>
</g>
<!-- n2_port_1 -->
<g id="node30" class="node">
<title>n2_port_1</title>
<polygon fill="white" stroke="black" points="2143.94,-492.67 2202.56,-469.57 2261.18,-492.67 2261.12,-530.04 2143.99,-530.04 2143.94,-492.67"/>
<text text-anchor="middle" x="2202.56" y="-506.8" font-family="Times,serif" font-size="14.00">N</text>
<text text-anchor="middle" x="2202.56" y="-491.8" font-family="Times,serif" font-size="14.00">control</text>
</g>
<!-- n2_port_1&#45;&gt;n0_place_0 -->
<g id="edge6" class="edge">
<title>n2_port_1&#45;&gt;n0_place_0</title>
<path fill="none" stroke="black" d="M2261.44,-517.75C2290.31,-525.39 2325.69,-535.15 2357.06,-545 2378.19,-551.63 2401.02,-559.5 2421.54,-566.84"/>
<polygon fill="black" stroke="black" points="2420.51,-570.19 2431.1,-570.28 2422.88,-563.6 2420.51,-570.19"/>
</g>
<!-- n2_modcall -->
<g id="node31" class="node">
<title>n2_modcall</title>
<polygon fill="white" stroke="black" points="2349.06,-452 2056.06,-452 2056.06,-416 2349.06,-416 2349.06,-452"/>
<text text-anchor="middle" x="2202.56" y="-430.3" font-family="Times,serif" font-size="14.00">singular_template.control_Rename_file</text>
</g>
<!-- n3_condition -->
<g id="node32" class="node">
<title>n3_condition</title>
<polygon fill="white" stroke="black" points="1444.25,-1453 1444.25,-1489 1521.25,-1489 1521.25,-1453 1444.25,-1453"/>
<text text-anchor="middle" x="1482.75" y="-1467.3" font-family="Times,serif" font-size="14.00">SubLIFT</text>
</g>
<!-- n3_port_1 -->
<g id="node38" class="node">
<title>n3_port_1</title>
<polygon fill="white" stroke="black" points="1410.91,-886.67 1482.75,-863.57 1554.6,-886.67 1554.53,-924.04 1410.98,-924.04 1410.91,-886.67"/>
<text text-anchor="middle" x="1482.75" y="-900.8" font-family="Times,serif" font-size="14.00">SUBLIFT</text>
<text text-anchor="middle" x="1482.75" y="-885.8" font-family="Times,serif" font-size="14.00">string</text>
</g>
<!-- n3_port_1&#45;&gt;n0_place_2 -->
<g id="edge9" class="edge">
<title>n3_port_1&#45;&gt;n0_place_2</title>
<path fill="none" stroke="black" d="M1552.05,-885.71C1569.68,-879.5 1586.88,-869.89 1598.26,-855 1629.68,-813.89 1586.65,-663.97 1618.26,-623 1621.54,-618.75 1625.45,-615.08 1629.77,-611.91"/>
<polygon fill="black" stroke="black" points="1631.91,-614.7 1638.52,-606.42 1628.19,-608.77 1631.91,-614.7"/>
</g>
<!-- n3_port_3 -->
<g id="node39" class="node">
<title>n3_port_3</title>
<polygon fill="white" stroke="black" points="1438.85,-1138.67 1482.75,-1115.57 1526.66,-1138.67 1526.62,-1176.04 1438.89,-1176.04 1438.85,-1138.67"/>
<text text-anchor="middle" x="1482.75" y="-1152.8" font-family="Times,serif" font-size="14.00">LIFT</text>
<text text-anchor="middle" x="1482.75" y="-1137.8" font-family="Times,serif" font-size="14.00">list</text>
</g>
<!-- n3_port_3&#45;&gt;n0_place_11 -->
<g id="edge10" class="edge">
<title>n3_port_3&#45;&gt;n0_place_11</title>
<path fill="none" stroke="black" d="M1525.95,-1137.08C1548.49,-1130.48 1576.03,-1120.16 1597.11,-1105.36 1631.97,-1081.14 1662.6,-1042.12 1681.85,-1014.13"/>
<path fill="none" stroke="transparent" d="M1526.52,-1139C1549.19,-1132.35 1576.73,-1122.03 1598.26,-1107 1633.54,-1082.37 1664.18,-1043.35 1683.5,-1015.26"/>
<path fill="none" stroke="black" d="M1527.08,-1140.92C1549.89,-1134.22 1577.43,-1123.9 1599.4,-1108.64 1635.11,-1083.61 1665.75,-1044.59 1685.15,-1016.39"/>
<polygon fill="black" stroke="black" points="1686.43,-1017.17 1689.12,-1006.92 1680.63,-1013.25 1686.43,-1017.17"/>
</g>
<!-- n3_modcall -->
<g id="node40" class="node">
<title>n3_modcall</title>
<polygon fill="white" stroke="black" points="1590.25,-846 1375.25,-846 1375.25,-810 1590.25,-810 1590.25,-846"/>
<text text-anchor="middle" x="1482.75" y="-824.3" font-family="Times,serif" font-size="14.00">singular_template.SUBLIFT</text>
</g>
<!-- n4_condition -->
<g id="node41" class="node">
<title>n4_condition</title>
<polygon fill="white" stroke="black" points="957.26,-767 957.26,-803 1043.26,-803 1043.26,-767 957.26,-767"/>
<text text-anchor="middle" x="1000.26" y="-781.3" font-family="Times,serif" font-size="14.00">LEADSYZ</text>
</g>
<!-- n4_port_4 -->
<g id="node46" class="node">
<title>n4_port_4</title>
<polygon fill="white" stroke="black" points="957.6,-368.67 1000.26,-345.57 1042.91,-368.67 1042.87,-406.04 957.64,-406.04 957.6,-368.67"/>
<text text-anchor="middle" x="1000.26" y="-382.8" font-family="Times,serif" font-size="14.00">OUT</text>
<text text-anchor="middle" x="1000.26" y="-367.8" font-family="Times,serif" font-size="14.00">list</text>
</g>
<!-- n4_port_4&#45;&gt;n0_place_7 -->
<g id="edge16" class="edge">
<title>n4_port_4&#45;&gt;n0_place_7</title>
<path fill="none" stroke="black" d="M1043.26,-382.8C1077.99,-387.62 1128.19,-394.58 1169.13,-400.26"/>
<path fill="none" stroke="transparent" d="M1042.99,-384.79C1077.72,-389.6 1127.92,-396.56 1168.85,-402.24"/>
<path fill="none" stroke="black" d="M1042.71,-386.77C1077.44,-391.58 1127.64,-398.54 1168.58,-404.22"/>
<polygon fill="black" stroke="black" points="1168.39,-405.71 1178.78,-403.61 1169.35,-398.77 1168.39,-405.71"/>
</g>
<!-- n4_modcall -->
<g id="node47" class="node">
<title>n4_modcall</title>
<polygon fill="white" stroke="black" points="1101.76,-328 898.76,-328 898.76,-292 1101.76,-292 1101.76,-328"/>
<text text-anchor="middle" x="1000.26" y="-306.3" font-family="Times,serif" font-size="14.00">singular_template.leadsyz</text>
</g>
<!-- n5_condition -->
<g id="node48" class="node">
<title>n5_condition</title>
<polygon fill="white" stroke="black" points="961.76,-1421 961.76,-1457 1038.76,-1457 1038.76,-1421 961.76,-1421"/>
<text text-anchor="middle" x="1000.26" y="-1435.3" font-family="Times,serif" font-size="14.00">All_Lead</text>
</g>
<!-- n5_port_2 -->
<g id="node53" class="node">
<title>n5_port_2</title>
<polygon fill="white" stroke="black" points="931.16,-938.67 1000.26,-915.57 1069.35,-938.67 1069.29,-976.04 931.23,-976.04 931.16,-938.67"/>
<text text-anchor="middle" x="1000.26" y="-952.8" font-family="Times,serif" font-size="14.00">OUTPUT</text>
<text text-anchor="middle" x="1000.26" y="-937.8" font-family="Times,serif" font-size="14.00">list</text>
</g>
<!-- n5_port_2&#45;&gt;n0_place_9 -->
<g id="edge22" class="edge">
<title>n5_port_2&#45;&gt;n0_place_9</title>
<path fill="none" stroke="black" d="M1058.96,-933.49C1077.35,-927.18 1097.05,-918.04 1111.97,-905.47 1168.77,-858.19 1206.51,-777.05 1224.66,-730.41"/>
<path fill="none" stroke="transparent" d="M1059.61,-935.38C1078.19,-928.99 1097.89,-919.86 1113.26,-907 1170.59,-859.04 1208.32,-777.9 1226.52,-731.14"/>
<path fill="none" stroke="black" d="M1060.26,-937.27C1079.03,-930.81 1098.73,-921.67 1114.54,-908.53 1172.4,-859.88 1210.13,-778.74 1228.39,-731.86"/>
<polygon fill="black" stroke="black" points="1229.83,-732.3 1230.11,-721.7 1223.28,-729.81 1229.83,-732.3"/>
</g>
<!-- n5_port_5 -->
<g id="node54" class="node">
<title>n5_port_5</title>
<polygon fill="white" stroke="black" points="938.15,-1022.67 1000.26,-999.57 1062.37,-1022.67 1062.31,-1060.04 938.2,-1060.04 938.15,-1022.67"/>
<text text-anchor="middle" x="1000.26" y="-1036.8" font-family="Times,serif" font-size="14.00">counter</text>
<text text-anchor="middle" x="1000.26" y="-1021.8" font-family="Times,serif" font-size="14.00">int</text>
</g>
<!-- n5_port_5&#45;&gt;n0_place_13 -->
<g id="edge21" class="edge">
<title>n5_port_5&#45;&gt;n0_place_13</title>
<path fill="none" stroke="black" d="M1062.55,-1033C1083.52,-1033 1107.64,-1033 1131.19,-1033"/>
<polygon fill="black" stroke="black" points="1131.23,-1036.5 1141.23,-1033 1131.23,-1029.5 1131.23,-1036.5"/>
</g>
<!-- n5_modcall -->
<g id="node55" class="node">
<title>n5_modcall</title>
<polygon fill="white" stroke="black" points="1105.26,-898 895.26,-898 895.26,-862 1105.26,-862 1105.26,-898"/>
<text text-anchor="middle" x="1000.26" y="-876.3" font-family="Times,serif" font-size="14.00">singular_template.All_Lead</text>
</g>
<!-- n6_condition -->
<g id="node56" class="node">
<title>n6_condition</title>
<polygon fill="white" stroke="black" points="1455.75,-749 1455.75,-785 1509.75,-785 1509.75,-749 1455.75,-749"/>
<text text-anchor="middle" x="1482.75" y="-763.3" font-family="Times,serif" font-size="14.00">LIFT</text>
</g>
<!-- n6_port_1 -->
<g id="node62" class="node">
<title>n6_port_1</title>
<polygon fill="white" stroke="black" points="1410.91,-182.67 1482.75,-159.57 1554.6,-182.67 1554.53,-220.04 1410.98,-220.04 1410.91,-182.67"/>
<text text-anchor="middle" x="1482.75" y="-196.8" font-family="Times,serif" font-size="14.00">SUBLIFT</text>
<text text-anchor="middle" x="1482.75" y="-181.8" font-family="Times,serif" font-size="14.00">string</text>
</g>
<!-- n6_port_1&#45;&gt;n0_place_2 -->
<g id="edge27" class="edge">
<title>n6_port_1&#45;&gt;n0_place_2</title>
<path fill="none" stroke="black" d="M1554.64,-207.54C1570.72,-213.72 1586.5,-222.51 1598.26,-235 1683.88,-325.97 1701.16,-482.81 1704.48,-554.4"/>
<polygon fill="black" stroke="black" points="1701,-554.87 1704.89,-564.73 1707.99,-554.6 1701,-554.87"/>
</g>
<!-- n6_port_4 -->
<g id="node63" class="node">
<title>n6_port_4</title>
<polygon fill="white" stroke="black" points="1438.85,-266.67 1482.75,-243.57 1526.66,-266.67 1526.62,-304.04 1438.89,-304.04 1438.85,-266.67"/>
<text text-anchor="middle" x="1482.75" y="-280.8" font-family="Times,serif" font-size="14.00">LIFT</text>
<text text-anchor="middle" x="1482.75" y="-265.8" font-family="Times,serif" font-size="14.00">list</text>
</g>
<!-- n6_port_4&#45;&gt;n0_place_11 -->
<g id="edge28" class="edge">
<title>n6_port_4&#45;&gt;n0_place_11</title>
<path fill="none" stroke="black" d="M1526.94,-279.29C1552.28,-284.25 1582.2,-294.71 1599.86,-317.8 1621.37,-347.34 1614.81,-601.18 1620.24,-635.69 1638.01,-749.62 1676.19,-881.17 1695.45,-943.69"/>
<path fill="none" stroke="transparent" d="M1526.56,-281.25C1551.62,-286.13 1581.54,-296.6 1598.26,-319 1619.37,-347.28 1612.82,-601.13 1618.26,-636 1636.09,-750.17 1674.27,-881.72 1693.54,-944.28"/>
<path fill="none" stroke="black" d="M1526.17,-283.21C1550.96,-288.02 1580.88,-298.49 1596.66,-320.2 1617.37,-347.23 1610.82,-601.08 1616.28,-636.31 1634.17,-750.73 1672.35,-882.28 1691.62,-944.87"/>
<polygon fill="black" stroke="black" points="1690.27,-945.55 1696.57,-954.07 1696.95,-943.48 1690.27,-945.55"/>
</g>
<!-- n6_modcall -->
<g id="node64" class="node">
<title>n6_modcall</title>
<polygon fill="white" stroke="black" points="1574.25,-142 1391.25,-142 1391.25,-106 1574.25,-106 1574.25,-142"/>
<text text-anchor="middle" x="1482.75" y="-120.3" font-family="Times,serif" font-size="14.00">singular_template.LIFT</text>
</g>
<!-- n7_condition -->
<g id="node65" class="node">
<title>n7_condition</title>
<polygon fill="white" stroke="black" points="416.03,-683 416.03,-719 505.03,-719 505.03,-683 416.03,-683"/>
<text text-anchor="middle" x="460.53" y="-697.3" font-family="Times,serif" font-size="14.00">StartTime</text>
</g>
<!-- n7_port_0 -->
<g id="node67" class="node">
<title>n7_port_0</title>
<polygon fill="white" stroke="black" points="401.91,-536.67 460.53,-513.57 519.15,-536.67 519.09,-574.04 401.96,-574.04 401.91,-536.67"/>
<text text-anchor="middle" x="460.53" y="-550.8" font-family="Times,serif" font-size="14.00">c</text>
<text text-anchor="middle" x="460.53" y="-535.8" font-family="Times,serif" font-size="14.00">control</text>
</g>
<!-- n7_port_0&#45;&gt;n0_place_4 -->
<g id="edge34" class="edge">
<title>n7_port_0&#45;&gt;n0_place_4</title>
<path fill="none" stroke="black" d="M519.3,-547C555.76,-547 603.56,-547 644.65,-547"/>
<polygon fill="black" stroke="black" points="644.66,-550.5 654.66,-547 644.66,-543.5 644.66,-550.5"/>
</g>
<!-- n7_port_2 -->
<g id="node68" class="node">
<title>n7_port_2</title>
<polygon fill="white" stroke="black" points="404.65,-452.67 460.53,-429.57 516.4,-452.67 516.35,-490.04 404.7,-490.04 404.65,-452.67"/>
<text text-anchor="middle" x="460.53" y="-466.8" font-family="Times,serif" font-size="14.00">output</text>
<text text-anchor="middle" x="460.53" y="-451.8" font-family="Times,serif" font-size="14.00">string</text>
</g>
<!-- n7_port_2&#45;&gt;n0_place_5 -->
<g id="edge35" class="edge">
<title>n7_port_2&#45;&gt;n0_place_5</title>
<path fill="none" stroke="black" d="M516.67,-463C550.18,-463 593.95,-463 633.31,-463"/>
<polygon fill="black" stroke="black" points="633.47,-466.5 643.47,-463 633.47,-459.5 633.47,-466.5"/>
</g>
<!-- n7_modcall -->
<g id="node69" class="node">
<title>n7_modcall</title>
<polygon fill="white" stroke="black" points="571.53,-412 349.53,-412 349.53,-376 571.53,-376 571.53,-412"/>
<text text-anchor="middle" x="460.53" y="-390.3" font-family="Times,serif" font-size="14.00">singular_template.StartTime</text>
</g>
</g>
</svg>
