<?xml version="1.0" encoding="UTF-8" standalone="no"?>
<!DOCTYPE svg PUBLIC "-//W3C//DTD SVG 1.1//EN"
 "http://www.w3.org/Graphics/SVG/1.1/DTD/svg11.dtd">
<!-- Generated by graphviz version 2.43.0 (0)
 -->
<!-- Title: template Pages: 1 -->
<svg width="2500pt" height="788pt"
 viewBox="0.00 0.00 2499.73 788.00" xmlns="http://www.w3.org/2000/svg" xmlns:xlink="http://www.w3.org/1999/xlink">
<g id="graph0" class="graph" transform="scale(1 1) rotate(0) translate(4 784)">
<title>template</title>
<polygon fill="white" stroke="transparent" points="-4,4 -4,-784 2495.73,-784 2495.73,4 -4,4"/>
<g id="clust1" class="cluster">
<title>cluster_0</title>
<polygon fill="dimgray" stroke="black" points="8,-8 8,-772 2483.73,-772 2483.73,-8 8,-8"/>
</g>
<g id="clust2" class="cluster">
<title>cluster_net_0</title>
<polygon fill="white" stroke="black" points="248.52,-92 248.52,-764 2475.73,-764 2475.73,-92 248.52,-92"/>
</g>
<g id="clust3" class="cluster">
<title>cluster_1</title>
<polygon fill="yellow" stroke="black" points="1450.1,-112 1450.1,-724 1695.1,-724 1695.1,-112 1450.1,-112"/>
</g>
<g id="clust4" class="cluster">
<title>cluster_2</title>
<polygon fill="yellow" stroke="black" points="2012.73,-122 2012.73,-734 2233.25,-734 2233.25,-122 2012.73,-122"/>
</g>
<g id="clust5" class="cluster">
<title>cluster_3</title>
<polygon fill="yellow" stroke="black" points="1023.49,-312 1023.49,-588 1214.49,-588 1214.49,-312 1023.49,-312"/>
</g>
<g id="clust6" class="cluster">
<title>cluster_4</title>
<polygon fill="yellow" stroke="black" points="512.21,-196 512.21,-724 732.74,-724 732.74,-196 512.21,-196"/>
</g>
<!-- n0_condition -->
<g id="node1" class="node">
<title>n0_condition</title>
<polygon fill="white" stroke="black" points="78.26,-727 78.26,-763 158.26,-763 158.26,-727 78.26,-727"/>
<text text-anchor="middle" x="118.26" y="-741.3" font-family="Times,serif" font-size="14.00">template</text>
</g>
<!-- n0_port_0 -->
<g id="node2" class="node">
<title>n0_port_0</title>
<polygon fill="white" stroke="black" points="220.29,-685.33 118.26,-708.43 16.24,-685.33 16.33,-647.96 220.19,-647.96 220.29,-685.33"/>
<text text-anchor="middle" x="118.26" y="-678.8" font-family="Times,serif" font-size="14.00">base_filename</text>
<text text-anchor="middle" x="118.26" y="-663.8" font-family="Times,serif" font-size="14.00">string</text>
</g>
<!-- n0_place_2 -->
<g id="node8" class="node">
<title>n0_place_2</title>
<ellipse fill="white" stroke="black" cx="370.37" cy="-702" rx="113.69" ry="26.74"/>
<text text-anchor="middle" x="370.37" y="-705.8" font-family="Times,serif" font-size="14.00">place_base_filename</text>
<text text-anchor="middle" x="370.37" y="-690.8" font-family="Times,serif" font-size="14.00">string</text>
</g>
<!-- n0_port_0&#45;&gt;n0_place_2 -->
<g id="edge20" class="edge">
<title>n0_port_0&#45;&gt;n0_place_2</title>
<path fill="none" stroke="black" stroke-dasharray="1,5" d="M218.83,-685.75C234.49,-687.44 250.72,-689.19 266.46,-690.89"/>
</g>
<!-- n0_port_1 -->
<g id="node3" class="node">
<title>n0_port_1</title>
<polygon fill="white" stroke="black" points="214.55,-195.33 118.26,-218.43 21.97,-195.33 22.06,-157.96 214.46,-157.96 214.55,-195.33"/>
<text text-anchor="middle" x="118.26" y="-188.8" font-family="Times,serif" font-size="14.00">library_name</text>
<text text-anchor="middle" x="118.26" y="-173.8" font-family="Times,serif" font-size="14.00">string</text>
</g>
<!-- n0_place_7 -->
<g id="node13" class="node">
<title>n0_place_7</title>
<ellipse fill="white" stroke="black" cx="370.37" cy="-185" rx="109.7" ry="26.74"/>
<text text-anchor="middle" x="370.37" y="-188.8" font-family="Times,serif" font-size="14.00">place_library_name</text>
<text text-anchor="middle" x="370.37" y="-173.8" font-family="Times,serif" font-size="14.00">string</text>
</g>
<!-- n0_port_1&#45;&gt;n0_place_7 -->
<g id="edge21" class="edge">
<title>n0_port_1&#45;&gt;n0_place_7</title>
<path fill="none" stroke="black" stroke-dasharray="1,5" d="M214.53,-185C229.58,-185 245.23,-185 260.56,-185"/>
</g>
<!-- n0_port_2 -->
<g id="node4" class="node">
<title>n0_port_2</title>
<polygon fill="white" stroke="black" points="169.9,-553.33 118.26,-576.43 66.63,-553.33 66.67,-515.96 169.85,-515.96 169.9,-553.33"/>
<text text-anchor="middle" x="118.26" y="-546.8" font-family="Times,serif" font-size="14.00">input</text>
<text text-anchor="middle" x="118.26" y="-531.8" font-family="Times,serif" font-size="14.00">string</text>
</g>
<!-- n0_place_1 -->
<g id="node7" class="node">
<title>n0_place_1</title>
<ellipse fill="white" stroke="black" cx="370.37" cy="-543" rx="69.09" ry="26.74"/>
<text text-anchor="middle" x="370.37" y="-546.8" font-family="Times,serif" font-size="14.00">place_input</text>
<text text-anchor="middle" x="370.37" y="-531.8" font-family="Times,serif" font-size="14.00">string</text>
</g>
<!-- n0_port_2&#45;&gt;n0_place_1 -->
<g id="edge22" class="edge">
<title>n0_port_2&#45;&gt;n0_place_1</title>
<path fill="none" stroke="black" stroke-dasharray="1,5" d="M169.87,-543C207.56,-543 259.42,-543 300.82,-543"/>
</g>
<!-- n0_port_3 -->
<g id="node5" class="node">
<title>n0_port_3</title>
<polygon fill="white" stroke="black" points="1503.5,-38.67 1572.6,-15.57 1641.7,-38.67 1641.63,-76.04 1503.57,-76.04 1503.5,-38.67"/>
<text text-anchor="middle" x="1572.6" y="-52.8" font-family="Times,serif" font-size="14.00">OUTPUT</text>
<text text-anchor="middle" x="1572.6" y="-37.8" font-family="Times,serif" font-size="14.00">string</text>
</g>
<!-- n0_place_3 -->
<g id="node9" class="node">
<title>n0_place_3</title>
<ellipse fill="white" stroke="black" cx="1853.91" cy="-207" rx="64.19" ry="26.74"/>
<text text-anchor="middle" x="1853.91" y="-210.8" font-family="Times,serif" font-size="14.00">place_lead</text>
<text text-anchor="middle" x="1853.91" y="-195.8" font-family="Times,serif" font-size="14.00">string</text>
</g>
<!-- n0_port_3&#45;&gt;n0_place_3 -->
<g id="edge23" class="edge">
<title>n0_port_3&#45;&gt;n0_place_3</title>
<path fill="none" stroke="black" stroke-dasharray="1,5" d="M1632.66,-76.1C1652.71,-85.72 1675.1,-96.92 1695.1,-108 1738.95,-132.31 1787.55,-163.47 1819.08,-184.28"/>
</g>
<!-- n0_place_0 -->
<g id="node6" class="node">
<title>n0_place_0</title>
<ellipse fill="white" stroke="black" cx="878.12" cy="-297" rx="86.03" ry="26.74"/>
<text text-anchor="middle" x="878.12" y="-300.8" font-family="Times,serif" font-size="14.00">place_initialise</text>
<text text-anchor="middle" x="878.12" y="-285.8" font-family="Times,serif" font-size="14.00">string</text>
</g>
<!-- n3_port_0 -->
<g id="node34" class="node">
<title>n3_port_0</title>
<polygon fill="white" stroke="black" points="1170.63,-501.33 1118.99,-524.43 1067.36,-501.33 1067.41,-463.96 1170.58,-463.96 1170.63,-501.33"/>
<text text-anchor="middle" x="1118.99" y="-494.8" font-family="Times,serif" font-size="14.00">input</text>
<text text-anchor="middle" x="1118.99" y="-479.8" font-family="Times,serif" font-size="14.00">string</text>
</g>
<!-- n0_place_0&#45;&gt;n3_port_0 -->
<g id="edge14" class="edge">
<title>n0_place_0&#45;&gt;n3_port_0</title>
<path fill="none" stroke="black" d="M898.58,-323.12C924.2,-356.04 972.05,-412.69 1023.49,-449 1033.91,-456.35 1045.82,-462.86 1057.59,-468.42"/>
<polygon fill="black" stroke="black" points="1056.42,-471.73 1066.97,-472.68 1059.31,-465.36 1056.42,-471.73"/>
</g>
<!-- n4_port_2 -->
<g id="node40" class="node">
<title>n4_port_2</title>
<polygon fill="white" stroke="black" points="674.11,-553.33 622.47,-576.43 570.84,-553.33 570.89,-515.96 674.06,-515.96 674.11,-553.33"/>
<text text-anchor="middle" x="622.47" y="-546.8" font-family="Times,serif" font-size="14.00">input</text>
<text text-anchor="middle" x="622.47" y="-531.8" font-family="Times,serif" font-size="14.00">string</text>
</g>
<!-- n0_place_1&#45;&gt;n4_port_2 -->
<g id="edge17" class="edge">
<title>n0_place_1&#45;&gt;n4_port_2</title>
<path fill="none" stroke="black" d="M439.71,-543C477.52,-543 524.11,-543 560.65,-543"/>
<polygon fill="black" stroke="black" points="560.67,-546.5 570.67,-543 560.67,-539.5 560.67,-546.5"/>
</g>
<!-- n1_port_1 -->
<g id="node19" class="node">
<title>n1_port_1</title>
<polygon fill="white" stroke="black" points="1674.62,-637.33 1572.6,-660.43 1470.58,-637.33 1470.67,-599.96 1674.53,-599.96 1674.62,-637.33"/>
<text text-anchor="middle" x="1572.6" y="-630.8" font-family="Times,serif" font-size="14.00">base_filename</text>
<text text-anchor="middle" x="1572.6" y="-615.8" font-family="Times,serif" font-size="14.00">string</text>
</g>
<!-- n0_place_2&#45;&gt;n1_port_1 -->
<g id="edge5" class="edge">
<title>n0_place_2&#45;&gt;n1_port_1</title>
<path fill="none" stroke="black" stroke-dasharray="5,2" d="M455.58,-719.86C474.15,-723.15 493.78,-726.13 512.21,-728 673.6,-744.33 714.91,-735 877.12,-735 877.12,-735 877.12,-735 1119.99,-735 1193.38,-735 1390.8,-680.37 1498.72,-648.82"/>
<polygon fill="black" stroke="black" points="1499.95,-652.11 1508.56,-645.94 1497.98,-645.39 1499.95,-652.11"/>
</g>
<!-- n2_port_1 -->
<g id="node27" class="node">
<title>n2_port_1</title>
<polygon fill="white" stroke="black" points="2225.02,-647.33 2122.99,-670.43 2020.97,-647.33 2021.06,-609.96 2224.92,-609.96 2225.02,-647.33"/>
<text text-anchor="middle" x="2122.99" y="-640.8" font-family="Times,serif" font-size="14.00">base_filename</text>
<text text-anchor="middle" x="2122.99" y="-625.8" font-family="Times,serif" font-size="14.00">string</text>
</g>
<!-- n0_place_2&#45;&gt;n2_port_1 -->
<g id="edge11" class="edge">
<title>n0_place_2&#45;&gt;n2_port_1</title>
<path fill="none" stroke="black" stroke-dasharray="5,2" d="M443.21,-722.71C465.18,-728.27 489.53,-733.65 512.21,-737 672.85,-760.69 714.74,-755 877.12,-755 877.12,-755 877.12,-755 1573.6,-755 1750.96,-755 1953.52,-695.28 2055.66,-660.81"/>
<polygon fill="black" stroke="black" points="2056.88,-664.09 2065.22,-657.55 2054.63,-657.46 2056.88,-664.09"/>
</g>
<!-- n4_port_1 -->
<g id="node39" class="node">
<title>n4_port_1</title>
<polygon fill="white" stroke="black" points="724.5,-637.33 622.47,-660.43 520.45,-637.33 520.54,-599.96 724.4,-599.96 724.5,-637.33"/>
<text text-anchor="middle" x="622.47" y="-630.8" font-family="Times,serif" font-size="14.00">base_filename</text>
<text text-anchor="middle" x="622.47" y="-615.8" font-family="Times,serif" font-size="14.00">string</text>
</g>
<!-- n0_place_2&#45;&gt;n4_port_1 -->
<g id="edge18" class="edge">
<title>n0_place_2&#45;&gt;n4_port_1</title>
<path fill="none" stroke="black" stroke-dasharray="5,2" d="M441.7,-680.91C474.97,-670.93 514.68,-659.03 548.3,-648.94"/>
<polygon fill="black" stroke="black" points="549.5,-652.24 558.07,-646.01 547.49,-645.53 549.5,-652.24"/>
</g>
<!-- n2_port_3 -->
<g id="node29" class="node">
<title>n2_port_3</title>
<polygon fill="white" stroke="black" points="2174.63,-479.33 2122.99,-502.43 2071.36,-479.33 2071.4,-441.96 2174.58,-441.96 2174.63,-479.33"/>
<text text-anchor="middle" x="2122.99" y="-472.8" font-family="Times,serif" font-size="14.00">input</text>
<text text-anchor="middle" x="2122.99" y="-457.8" font-family="Times,serif" font-size="14.00">string</text>
</g>
<!-- n0_place_3&#45;&gt;n2_port_3 -->
<g id="edge10" class="edge">
<title>n0_place_3&#45;&gt;n2_port_3</title>
<path fill="none" stroke="black" d="M1915.02,-215.58C1940.15,-222.23 1967.47,-234.04 1984.73,-255 2033.97,-314.78 1963.87,-366.9 2012.73,-427 2025.01,-442.1 2043.4,-451.79 2061.6,-457.99"/>
<polygon fill="black" stroke="black" points="2060.77,-461.4 2071.36,-461.01 2062.84,-454.71 2060.77,-461.4"/>
</g>
<!-- n0_place_4 -->
<g id="node10" class="node">
<title>n0_place_4</title>
<ellipse fill="white" stroke="black" cx="878.12" cy="-532" rx="117.26" ry="26.74"/>
<text text-anchor="middle" x="878.12" y="-535.8" font-family="Times,serif" font-size="14.00">place_timing_started</text>
<text text-anchor="middle" x="878.12" y="-520.8" font-family="Times,serif" font-size="14.00">string</text>
</g>
<!-- n2_port_2 -->
<g id="node28" class="node">
<title>n2_port_2</title>
<polygon fill="white" stroke="black" points="2174.63,-563.33 2122.99,-586.43 2071.36,-563.33 2071.4,-525.96 2174.58,-525.96 2174.63,-563.33"/>
<text text-anchor="middle" x="2122.99" y="-556.8" font-family="Times,serif" font-size="14.00">timer</text>
<text text-anchor="middle" x="2122.99" y="-541.8" font-family="Times,serif" font-size="14.00">string</text>
</g>
<!-- n0_place_4&#45;&gt;n2_port_2 -->
<g id="edge9" class="edge">
<title>n0_place_4&#45;&gt;n2_port_2</title>
<path fill="none" stroke="black" d="M923.97,-556.85C1046.7,-621.79 1398.71,-787.55 1695.1,-728 1845.15,-697.85 1870.7,-652.02 2012.73,-595 2032.16,-587.2 2053.65,-578.87 2072.4,-571.71"/>
<polygon fill="black" stroke="black" points="2073.82,-574.91 2081.92,-568.08 2071.33,-568.37 2073.82,-574.91"/>
</g>
<!-- n0_place_5 -->
<g id="node11" class="node">
<title>n0_place_5</title>
<ellipse fill="white" stroke="black" cx="2364.49" cy="-217" rx="103.48" ry="26.74"/>
<text text-anchor="middle" x="2364.49" y="-220.8" font-family="Times,serif" font-size="14.00">place_lead_logged</text>
<text text-anchor="middle" x="2364.49" y="-205.8" font-family="Times,serif" font-size="14.00">string</text>
</g>
<!-- n0_place_6 -->
<g id="node12" class="node">
<title>n0_place_6</title>
<ellipse fill="white" stroke="black" cx="1332.3" cy="-475" rx="89.61" ry="26.74"/>
<text text-anchor="middle" x="1332.3" y="-478.8" font-family="Times,serif" font-size="14.00">place_input_GB</text>
<text text-anchor="middle" x="1332.3" y="-463.8" font-family="Times,serif" font-size="14.00">string</text>
</g>
<!-- n1_port_2 -->
<g id="node20" class="node">
<title>n1_port_2</title>
<polygon fill="white" stroke="black" points="1624.24,-553.33 1572.6,-576.43 1520.96,-553.33 1521.01,-515.96 1624.19,-515.96 1624.24,-553.33"/>
<text text-anchor="middle" x="1572.6" y="-546.8" font-family="Times,serif" font-size="14.00">input</text>
<text text-anchor="middle" x="1572.6" y="-531.8" font-family="Times,serif" font-size="14.00">string</text>
</g>
<!-- n0_place_6&#45;&gt;n1_port_2 -->
<g id="edge4" class="edge">
<title>n0_place_6&#45;&gt;n1_port_2</title>
<path fill="none" stroke="black" d="M1397.79,-493.4C1432.91,-503.43 1476.13,-515.76 1510.69,-525.62"/>
<polygon fill="black" stroke="black" points="1510.08,-529.08 1520.65,-528.46 1512,-522.35 1510.08,-529.08"/>
</g>
<!-- n1_port_0 -->
<g id="node18" class="node">
<title>n1_port_0</title>
<polygon fill="white" stroke="black" points="1668.89,-469.33 1572.6,-492.43 1476.31,-469.33 1476.4,-431.96 1668.8,-431.96 1668.89,-469.33"/>
<text text-anchor="middle" x="1572.6" y="-462.8" font-family="Times,serif" font-size="14.00">library_name</text>
<text text-anchor="middle" x="1572.6" y="-447.8" font-family="Times,serif" font-size="14.00">string</text>
</g>
<!-- n0_place_7&#45;&gt;n1_port_0 -->
<g id="edge6" class="edge">
<title>n0_place_7&#45;&gt;n1_port_0</title>
<path fill="none" stroke="black" stroke-dasharray="5,2" d="M480.38,-185C582.81,-185 740.36,-185 877.12,-185 877.12,-185 877.12,-185 1119.99,-185 1299.32,-185 1290.44,-335.35 1450.1,-417 1457.82,-420.95 1466,-424.67 1474.32,-428.14"/>
<polygon fill="black" stroke="black" points="1473.17,-431.45 1483.76,-431.94 1475.79,-424.95 1473.17,-431.45"/>
</g>
<!-- n2_port_0 -->
<g id="node26" class="node">
<title>n2_port_0</title>
<polygon fill="white" stroke="black" points="2219.28,-395.33 2122.99,-418.43 2026.7,-395.33 2026.79,-357.96 2219.19,-357.96 2219.28,-395.33"/>
<text text-anchor="middle" x="2122.99" y="-388.8" font-family="Times,serif" font-size="14.00">library_name</text>
<text text-anchor="middle" x="2122.99" y="-373.8" font-family="Times,serif" font-size="14.00">string</text>
</g>
<!-- n0_place_7&#45;&gt;n2_port_0 -->
<g id="edge12" class="edge">
<title>n0_place_7&#45;&gt;n2_port_0</title>
<path fill="none" stroke="black" stroke-dasharray="5,2" d="M444.44,-165.09C542.21,-140.25 721.35,-101 877.12,-101 877.12,-101 877.12,-101 1573.6,-101 1666.28,-101 1920.95,-103.76 1984.73,-171 2038.03,-227.19 1963.87,-282.9 2012.73,-343 2015.18,-346.02 2017.88,-348.82 2020.76,-351.41"/>
<polygon fill="black" stroke="black" points="2018.83,-354.34 2028.83,-357.84 2023.19,-348.87 2018.83,-354.34"/>
</g>
<!-- n4_port_0 -->
<g id="node38" class="node">
<title>n4_port_0</title>
<polygon fill="white" stroke="black" points="718.76,-469.33 622.47,-492.43 526.19,-469.33 526.28,-431.96 718.67,-431.96 718.76,-469.33"/>
<text text-anchor="middle" x="622.47" y="-462.8" font-family="Times,serif" font-size="14.00">library_name</text>
<text text-anchor="middle" x="622.47" y="-447.8" font-family="Times,serif" font-size="14.00">string</text>
</g>
<!-- n0_place_7&#45;&gt;n4_port_0 -->
<g id="edge19" class="edge">
<title>n0_place_7&#45;&gt;n4_port_0</title>
<path fill="none" stroke="black" stroke-dasharray="5,2" d="M380.93,-211.86C399.21,-259.6 443.51,-359.59 512.21,-417 516.45,-420.54 521.02,-423.81 525.81,-426.81"/>
<polygon fill="black" stroke="black" points="524.22,-429.94 534.63,-431.94 527.74,-423.89 524.22,-429.94"/>
</g>
<!-- n0_place_8 -->
<g id="node14" class="node">
<title>n0_place_8</title>
<ellipse fill="white" stroke="black" cx="1853.91" cy="-375" rx="124.4" ry="26.74"/>
<text text-anchor="middle" x="1853.91" y="-378.8" font-family="Times,serif" font-size="14.00">place_leadsyz_counter</text>
<text text-anchor="middle" x="1853.91" y="-363.8" font-family="Times,serif" font-size="14.00">int</text>
</g>
<!-- n0_place_9 -->
<g id="node15" class="node">
<title>n0_place_9</title>
<ellipse fill="white" stroke="black" cx="1853.91" cy="-291" rx="130.63" ry="26.74"/>
<text text-anchor="middle" x="1853.91" y="-294.8" font-family="Times,serif" font-size="14.00">place_LeadSyz_runtime</text>
<text text-anchor="middle" x="1853.91" y="-279.8" font-family="Times,serif" font-size="14.00">long</text>
</g>
<!-- n0_place_10 -->
<g id="node16" class="node">
<title>n0_place_10</title>
<ellipse fill="white" stroke="black" cx="2364.49" cy="-301" rx="101.23" ry="26.74"/>
<text text-anchor="middle" x="2364.49" y="-304.8" font-family="Times,serif" font-size="14.00">place_End_timing</text>
<text text-anchor="middle" x="2364.49" y="-289.8" font-family="Times,serif" font-size="14.00">string</text>
</g>
<!-- n1_condition -->
<g id="node17" class="node">
<title>n1_condition</title>
<polygon fill="white" stroke="black" points="1528.1,-679 1528.1,-715 1617.1,-715 1617.1,-679 1528.1,-679"/>
<text text-anchor="middle" x="1572.6" y="-693.3" font-family="Times,serif" font-size="14.00">SchFrame</text>
</g>
<!-- n1_port_3 -->
<g id="node21" class="node">
<title>n1_port_3</title>
<polygon fill="white" stroke="black" points="1529.94,-196.67 1572.6,-173.57 1615.26,-196.67 1615.22,-234.04 1529.98,-234.04 1529.94,-196.67"/>
<text text-anchor="middle" x="1572.6" y="-210.8" font-family="Times,serif" font-size="14.00">OUT</text>
<text text-anchor="middle" x="1572.6" y="-195.8" font-family="Times,serif" font-size="14.00">list</text>
</g>
<!-- n1_port_3&#45;&gt;n0_place_3 -->
<g id="edge3" class="edge">
<title>n1_port_3&#45;&gt;n0_place_3</title>
<path fill="none" stroke="black" d="M1615.42,-205C1658.65,-205 1727.01,-205 1779.32,-205"/>
<path fill="none" stroke="transparent" d="M1615.42,-207C1658.65,-207 1727.01,-207 1779.32,-207"/>
<path fill="none" stroke="black" d="M1615.42,-209C1658.65,-209 1727.01,-209 1779.32,-209"/>
<polygon fill="black" stroke="black" points="1779.55,-210.5 1789.55,-207 1779.55,-203.5 1779.55,-210.5"/>
</g>
<!-- n1_port_4 -->
<g id="node22" class="node">
<title>n1_port_4</title>
<polygon fill="white" stroke="black" points="1507.74,-280.67 1572.6,-257.57 1637.46,-280.67 1637.4,-318.04 1507.8,-318.04 1507.74,-280.67"/>
<text text-anchor="middle" x="1572.6" y="-294.8" font-family="Times,serif" font-size="14.00">runtime</text>
<text text-anchor="middle" x="1572.6" y="-279.8" font-family="Times,serif" font-size="14.00">long</text>
</g>
<!-- n1_port_4&#45;&gt;n0_place_9 -->
<g id="edge1" class="edge">
<title>n1_port_4&#45;&gt;n0_place_9</title>
<path fill="none" stroke="black" d="M1637.33,-291C1659.96,-291 1686.41,-291 1712.88,-291"/>
<polygon fill="black" stroke="black" points="1713.02,-294.5 1723.02,-291 1713.02,-287.5 1713.02,-294.5"/>
</g>
<!-- n1_port_5 -->
<g id="node23" class="node">
<title>n1_port_5</title>
<polygon fill="white" stroke="black" points="1510.49,-364.67 1572.6,-341.57 1634.71,-364.67 1634.65,-402.04 1510.55,-402.04 1510.49,-364.67"/>
<text text-anchor="middle" x="1572.6" y="-378.8" font-family="Times,serif" font-size="14.00">counter</text>
<text text-anchor="middle" x="1572.6" y="-363.8" font-family="Times,serif" font-size="14.00">int</text>
</g>
<!-- n1_port_5&#45;&gt;n0_place_8 -->
<g id="edge2" class="edge">
<title>n1_port_5&#45;&gt;n0_place_8</title>
<path fill="none" stroke="black" d="M1634.9,-375C1659.75,-375 1689.49,-375 1718.91,-375"/>
<polygon fill="black" stroke="black" points="1719.29,-378.5 1729.29,-375 1719.29,-371.5 1719.29,-378.5"/>
</g>
<!-- n1_modcall -->
<g id="node24" class="node">
<title>n1_modcall</title>
<polygon fill="white" stroke="black" points="1687.1,-156 1458.1,-156 1458.1,-120 1687.1,-120 1687.1,-156"/>
<text text-anchor="middle" x="1572.6" y="-134.3" font-family="Times,serif" font-size="14.00">singular_template.All_leadsyz</text>
</g>
<!-- n2_condition -->
<g id="node25" class="node">
<title>n2_condition</title>
<polygon fill="white" stroke="black" points="2075.49,-689 2075.49,-725 2170.49,-725 2170.49,-689 2075.49,-689"/>
<text text-anchor="middle" x="2122.99" y="-703.3" font-family="Times,serif" font-size="14.00">EndTiming</text>
</g>
<!-- n2_port_4 -->
<g id="node30" class="node">
<title>n2_port_4</title>
<polygon fill="white" stroke="black" points="2067.12,-206.67 2122.99,-183.57 2178.87,-206.67 2178.82,-244.04 2067.17,-244.04 2067.12,-206.67"/>
<text text-anchor="middle" x="2122.99" y="-220.8" font-family="Times,serif" font-size="14.00">output</text>
<text text-anchor="middle" x="2122.99" y="-205.8" font-family="Times,serif" font-size="14.00">string</text>
</g>
<!-- n2_port_4&#45;&gt;n0_place_5 -->
<g id="edge8" class="edge">
<title>n2_port_4&#45;&gt;n0_place_5</title>
<path fill="none" stroke="black" d="M2178.94,-217C2200.42,-217 2225.89,-217 2250.93,-217"/>
<polygon fill="black" stroke="black" points="2251.25,-220.5 2261.25,-217 2251.25,-213.5 2251.25,-220.5"/>
</g>
<!-- n2_port_5 -->
<g id="node31" class="node">
<title>n2_port_5</title>
<polygon fill="white" stroke="black" points="2071.36,-290.67 2122.99,-267.57 2174.63,-290.67 2174.58,-328.04 2071.4,-328.04 2071.36,-290.67"/>
<text text-anchor="middle" x="2122.99" y="-304.8" font-family="Times,serif" font-size="14.00">out</text>
<text text-anchor="middle" x="2122.99" y="-289.8" font-family="Times,serif" font-size="14.00">string</text>
</g>
<!-- n2_port_5&#45;&gt;n0_place_10 -->
<g id="edge7" class="edge">
<title>n2_port_5&#45;&gt;n0_place_10</title>
<path fill="none" stroke="black" d="M2174.78,-301C2197.65,-301 2225.61,-301 2252.93,-301"/>
<polygon fill="black" stroke="black" points="2252.95,-304.5 2262.95,-301 2252.95,-297.5 2252.95,-304.5"/>
</g>
<!-- n2_modcall -->
<g id="node32" class="node">
<title>n2_modcall</title>
<polygon fill="white" stroke="black" points="2212.49,-166 2033.49,-166 2033.49,-130 2212.49,-130 2212.49,-166"/>
<text text-anchor="middle" x="2122.99" y="-144.3" font-family="Times,serif" font-size="14.00">end_timing.EndTiming</text>
</g>
<!-- n3_condition -->
<g id="node33" class="node">
<title>n3_condition</title>
<polygon fill="white" stroke="black" points="1084.99,-543 1084.99,-579 1152.99,-579 1152.99,-543 1084.99,-543"/>
<text text-anchor="middle" x="1118.99" y="-557.3" font-family="Times,serif" font-size="14.00">Initiate</text>
</g>
<!-- n3_port_1 -->
<g id="node35" class="node">
<title>n3_port_1</title>
<polygon fill="white" stroke="black" points="1063.12,-396.67 1118.99,-373.57 1174.87,-396.67 1174.82,-434.04 1063.17,-434.04 1063.12,-396.67"/>
<text text-anchor="middle" x="1118.99" y="-410.8" font-family="Times,serif" font-size="14.00">output</text>
<text text-anchor="middle" x="1118.99" y="-395.8" font-family="Times,serif" font-size="14.00">string</text>
</g>
<!-- n3_port_1&#45;&gt;n0_place_6 -->
<g id="edge13" class="edge">
<title>n3_port_1&#45;&gt;n0_place_6</title>
<path fill="none" stroke="black" d="M1174.96,-424.69C1201.1,-433.1 1232.67,-443.26 1260.58,-452.24"/>
<polygon fill="black" stroke="black" points="1259.69,-455.63 1270.28,-455.36 1261.83,-448.97 1259.69,-455.63"/>
</g>
<!-- n3_modcall -->
<g id="node36" class="node">
<title>n3_modcall</title>
<polygon fill="white" stroke="black" points="1206.49,-356 1031.49,-356 1031.49,-320 1206.49,-320 1206.49,-356"/>
<text text-anchor="middle" x="1118.99" y="-334.3" font-family="Times,serif" font-size="14.00">singular_template.Init</text>
</g>
<!-- n4_condition -->
<g id="node37" class="node">
<title>n4_condition</title>
<polygon fill="white" stroke="black" points="570.97,-679 570.97,-715 673.97,-715 673.97,-679 570.97,-679"/>
<text text-anchor="middle" x="622.47" y="-693.3" font-family="Times,serif" font-size="14.00">StartTiming</text>
</g>
<!-- n4_port_3 -->
<g id="node41" class="node">
<title>n4_port_3</title>
<polygon fill="white" stroke="black" points="566.6,-280.67 622.47,-257.57 678.35,-280.67 678.3,-318.04 566.65,-318.04 566.6,-280.67"/>
<text text-anchor="middle" x="622.47" y="-294.8" font-family="Times,serif" font-size="14.00">output</text>
<text text-anchor="middle" x="622.47" y="-279.8" font-family="Times,serif" font-size="14.00">string</text>
</g>
<!-- n4_port_3&#45;&gt;n0_place_0 -->
<g id="edge16" class="edge">
<title>n4_port_3&#45;&gt;n0_place_0</title>
<path fill="none" stroke="black" d="M678.51,-292.3C708.61,-293.01 746.76,-293.92 781.56,-294.74"/>
<polygon fill="black" stroke="black" points="781.67,-298.24 791.75,-294.98 781.84,-291.25 781.67,-298.24"/>
</g>
<!-- n4_port_4 -->
<g id="node42" class="node">
<title>n4_port_4</title>
<polygon fill="white" stroke="black" points="570.84,-364.67 622.47,-341.57 674.11,-364.67 674.06,-402.04 570.89,-402.04 570.84,-364.67"/>
<text text-anchor="middle" x="622.47" y="-378.8" font-family="Times,serif" font-size="14.00">out</text>
<text text-anchor="middle" x="622.47" y="-363.8" font-family="Times,serif" font-size="14.00">string</text>
</g>
<!-- n4_port_4&#45;&gt;n0_place_4 -->
<g id="edge15" class="edge">
<title>n4_port_4&#45;&gt;n0_place_4</title>
<path fill="none" stroke="black" d="M674.16,-390.83C693.13,-397.69 714.48,-406.55 732.74,-417 773.16,-440.13 814.22,-474.07 842.16,-499.08"/>
<polygon fill="black" stroke="black" points="839.92,-501.77 849.68,-505.88 844.61,-496.58 839.92,-501.77"/>
</g>
<!-- n4_modcall -->
<g id="node43" class="node">
<title>n4_modcall</title>
<polygon fill="white" stroke="black" points="719.97,-240 524.97,-240 524.97,-204 719.97,-204 719.97,-240"/>
<text text-anchor="middle" x="622.47" y="-218.3" font-family="Times,serif" font-size="14.00">start_timing.StartTiming</text>
</g>
</g>
</svg>
