<?xml version="1.0" encoding="UTF-8" standalone="no"?>
<!DOCTYPE svg PUBLIC "-//W3C//DTD SVG 1.1//EN"
 "http://www.w3.org/Graphics/SVG/1.1/DTD/svg11.dtd">
<!-- Generated by graphviz version 2.43.0 (0)
 -->
<!-- Title: template Pages: 1 -->
<svg width="1393pt" height="900pt"
 viewBox="0.00 0.00 1392.57 900.00" xmlns="http://www.w3.org/2000/svg" xmlns:xlink="http://www.w3.org/1999/xlink">
<g id="graph0" class="graph" transform="scale(1 1) rotate(0) translate(4 896)">
<title>template</title>
<polygon fill="white" stroke="transparent" points="-4,4 -4,-896 1388.57,-896 1388.57,4 -4,4"/>
<g id="clust1" class="cluster">
<title>cluster_0</title>
<polygon fill="dimgray" stroke="black" points="8,-8 8,-884 1376.57,-884 1376.57,-8 8,-8"/>
</g>
<g id="clust2" class="cluster">
<title>cluster_net_0</title>
<polygon fill="white" stroke="black" points="147.14,-90 147.14,-718 1368.57,-718 1368.57,-90 147.14,-90"/>
</g>
<g id="clust3" class="cluster">
<title>cluster_1</title>
<polygon fill="yellow" stroke="black" points="825.94,-98 825.94,-710 1070.94,-710 1070.94,-98 825.94,-98"/>
</g>
<g id="clust4" class="cluster">
<title>cluster_2</title>
<polygon fill="yellow" stroke="black" points="336.49,-350 336.49,-626 527.49,-626 527.49,-350 336.49,-350"/>
</g>
<!-- n0_condition -->
<g id="node1" class="node">
<title>n0_condition</title>
<polygon fill="white" stroke="black" points="27.57,-710 27.57,-746 107.57,-746 107.57,-710 27.57,-710"/>
<text text-anchor="middle" x="67.57" y="-724.3" font-family="Times,serif" font-size="14.00">template</text>
</g>
<!-- n0_port_0 -->
<g id="node2" class="node">
<title>n0_port_0</title>
<polygon fill="white" stroke="black" points="534.01,-853.33 431.99,-876.43 329.97,-853.33 330.06,-815.96 533.92,-815.96 534.01,-853.33"/>
<text text-anchor="middle" x="431.99" y="-846.8" font-family="Times,serif" font-size="14.00">base_filename</text>
<text text-anchor="middle" x="431.99" y="-831.8" font-family="Times,serif" font-size="14.00">string</text>
</g>
<!-- n0_place_1 -->
<g id="node7" class="node">
<title>n0_place_1</title>
<ellipse fill="white" stroke="black" cx="684.1" cy="-648" rx="113.69" ry="26.74"/>
<text text-anchor="middle" x="684.1" y="-651.8" font-family="Times,serif" font-size="14.00">place_base_filename</text>
<text text-anchor="middle" x="684.1" y="-636.8" font-family="Times,serif" font-size="14.00">string</text>
</g>
<!-- n0_port_0&#45;&gt;n0_place_1 -->
<g id="edge9" class="edge">
<title>n0_port_0&#45;&gt;n0_place_1</title>
<path fill="none" stroke="black" stroke-dasharray="1,5" d="M508.08,-815.95C517.2,-811.49 526.14,-806.5 534.25,-801 587.3,-765 636.63,-707.79 663.03,-674.47"/>
</g>
<!-- n0_port_1 -->
<g id="node3" class="node">
<title>n0_port_1</title>
<polygon fill="white" stroke="black" points="528.28,-769.33 431.99,-792.43 335.7,-769.33 335.79,-731.96 528.19,-731.96 528.28,-769.33"/>
<text text-anchor="middle" x="431.99" y="-762.8" font-family="Times,serif" font-size="14.00">library_name</text>
<text text-anchor="middle" x="431.99" y="-747.8" font-family="Times,serif" font-size="14.00">string</text>
</g>
<!-- n0_place_4 -->
<g id="node10" class="node">
<title>n0_place_4</title>
<ellipse fill="white" stroke="black" cx="684.1" cy="-552" rx="109.7" ry="26.74"/>
<text text-anchor="middle" x="684.1" y="-555.8" font-family="Times,serif" font-size="14.00">place_library_name</text>
<text text-anchor="middle" x="684.1" y="-540.8" font-family="Times,serif" font-size="14.00">string</text>
</g>
<!-- n0_port_1&#45;&gt;n0_place_4 -->
<g id="edge10" class="edge">
<title>n0_port_1&#45;&gt;n0_place_4</title>
<path fill="none" stroke="black" stroke-dasharray="1,5" d="M453.77,-731.77C478.87,-700.16 523.56,-647.8 570.25,-612 588.56,-597.96 610.62,-585.42 630.36,-575.49"/>
</g>
<!-- n0_port_2 -->
<g id="node4" class="node">
<title>n0_port_2</title>
<polygon fill="white" stroke="black" points="119.2,-539.33 67.57,-562.43 15.93,-539.33 15.98,-501.96 119.16,-501.96 119.2,-539.33"/>
<text text-anchor="middle" x="67.57" y="-532.8" font-family="Times,serif" font-size="14.00">input</text>
<text text-anchor="middle" x="67.57" y="-517.8" font-family="Times,serif" font-size="14.00">string</text>
</g>
<!-- n0_place_0 -->
<g id="node6" class="node">
<title>n0_place_0</title>
<ellipse fill="white" stroke="black" cx="224.43" cy="-529" rx="69.09" ry="26.74"/>
<text text-anchor="middle" x="224.43" y="-532.8" font-family="Times,serif" font-size="14.00">place_input</text>
<text text-anchor="middle" x="224.43" y="-517.8" font-family="Times,serif" font-size="14.00">string</text>
</g>
<!-- n0_port_2&#45;&gt;n0_place_0 -->
<g id="edge11" class="edge">
<title>n0_port_2&#45;&gt;n0_place_0</title>
<path fill="none" stroke="black" stroke-dasharray="1,5" d="M119.28,-529C130.66,-529 142.91,-529 154.88,-529"/>
</g>
<!-- n0_port_3 -->
<g id="node5" class="node">
<title>n0_port_3</title>
<polygon fill="white" stroke="black" points="879.34,-38.67 948.44,-15.57 1017.54,-38.67 1017.47,-76.04 879.41,-76.04 879.34,-38.67"/>
<text text-anchor="middle" x="948.44" y="-52.8" font-family="Times,serif" font-size="14.00">OUTPUT</text>
<text text-anchor="middle" x="948.44" y="-37.8" font-family="Times,serif" font-size="14.00">string</text>
</g>
<!-- n0_place_2 -->
<g id="node8" class="node">
<title>n0_place_2</title>
<ellipse fill="white" stroke="black" cx="1229.76" cy="-159" rx="64.19" ry="26.74"/>
<text text-anchor="middle" x="1229.76" y="-162.8" font-family="Times,serif" font-size="14.00">place_lead</text>
<text text-anchor="middle" x="1229.76" y="-147.8" font-family="Times,serif" font-size="14.00">string</text>
</g>
<!-- n0_port_3&#45;&gt;n0_place_2 -->
<g id="edge12" class="edge">
<title>n0_port_3&#45;&gt;n0_place_2</title>
<path fill="none" stroke="black" stroke-dasharray="1,5" d="M1017.72,-73.8C1035.12,-80.25 1053.76,-87.28 1070.94,-94 1109.3,-109 1152.53,-126.87 1184.03,-140.08"/>
</g>
<!-- n2_port_0 -->
<g id="node22" class="node">
<title>n2_port_0</title>
<polygon fill="white" stroke="black" points="483.63,-539.33 431.99,-562.43 380.35,-539.33 380.4,-501.96 483.58,-501.96 483.63,-539.33"/>
<text text-anchor="middle" x="431.99" y="-532.8" font-family="Times,serif" font-size="14.00">input</text>
<text text-anchor="middle" x="431.99" y="-517.8" font-family="Times,serif" font-size="14.00">string</text>
</g>
<!-- n0_place_0&#45;&gt;n2_port_0 -->
<g id="edge8" class="edge">
<title>n0_place_0&#45;&gt;n2_port_0</title>
<path fill="none" stroke="black" d="M293.88,-529C318.61,-529 346.34,-529 370.35,-529"/>
<polygon fill="black" stroke="black" points="370.4,-532.5 380.4,-529 370.4,-525.5 370.4,-532.5"/>
</g>
<!-- n1_port_1 -->
<g id="node15" class="node">
<title>n1_port_1</title>
<polygon fill="white" stroke="black" points="1050.46,-623.33 948.44,-646.43 846.42,-623.33 846.51,-585.96 1050.37,-585.96 1050.46,-623.33"/>
<text text-anchor="middle" x="948.44" y="-616.8" font-family="Times,serif" font-size="14.00">base_filename</text>
<text text-anchor="middle" x="948.44" y="-601.8" font-family="Times,serif" font-size="14.00">string</text>
</g>
<!-- n0_place_1&#45;&gt;n1_port_1 -->
<g id="edge5" class="edge">
<title>n0_place_1&#45;&gt;n1_port_1</title>
<path fill="none" stroke="black" stroke-dasharray="5,2" d="M783.53,-634.87C803.56,-632.2 824.67,-629.38 844.83,-626.69"/>
<polygon fill="black" stroke="black" points="845.51,-630.13 854.96,-625.34 844.59,-623.19 845.51,-630.13"/>
</g>
<!-- n0_place_3 -->
<g id="node9" class="node">
<title>n0_place_3</title>
<ellipse fill="white" stroke="black" cx="684.1" cy="-445" rx="89.61" ry="26.74"/>
<text text-anchor="middle" x="684.1" y="-448.8" font-family="Times,serif" font-size="14.00">place_input_GB</text>
<text text-anchor="middle" x="684.1" y="-433.8" font-family="Times,serif" font-size="14.00">string</text>
</g>
<!-- n1_port_2 -->
<g id="node16" class="node">
<title>n1_port_2</title>
<polygon fill="white" stroke="black" points="1000.08,-455.33 948.44,-478.43 896.8,-455.33 896.85,-417.96 1000.03,-417.96 1000.08,-455.33"/>
<text text-anchor="middle" x="948.44" y="-448.8" font-family="Times,serif" font-size="14.00">input</text>
<text text-anchor="middle" x="948.44" y="-433.8" font-family="Times,serif" font-size="14.00">string</text>
</g>
<!-- n0_place_3&#45;&gt;n1_port_2 -->
<g id="edge4" class="edge">
<title>n0_place_3&#45;&gt;n1_port_2</title>
<path fill="none" stroke="black" d="M773.91,-445C810.96,-445 853.06,-445 886.51,-445"/>
<polygon fill="black" stroke="black" points="886.6,-448.5 896.6,-445 886.6,-441.5 886.6,-448.5"/>
</g>
<!-- n1_port_0 -->
<g id="node14" class="node">
<title>n1_port_0</title>
<polygon fill="white" stroke="black" points="1044.73,-539.33 948.44,-562.43 852.15,-539.33 852.24,-501.96 1044.64,-501.96 1044.73,-539.33"/>
<text text-anchor="middle" x="948.44" y="-532.8" font-family="Times,serif" font-size="14.00">library_name</text>
<text text-anchor="middle" x="948.44" y="-517.8" font-family="Times,serif" font-size="14.00">string</text>
</g>
<!-- n0_place_4&#45;&gt;n1_port_0 -->
<g id="edge6" class="edge">
<title>n0_place_4&#45;&gt;n1_port_0</title>
<path fill="none" stroke="black" stroke-dasharray="5,2" d="M787.65,-543.01C805.52,-541.44 824.12,-539.81 842.06,-538.24"/>
<polygon fill="black" stroke="black" points="842.58,-541.71 852.24,-537.35 841.97,-534.73 842.58,-541.71"/>
</g>
<!-- n0_place_5 -->
<g id="node11" class="node">
<title>n0_place_5</title>
<ellipse fill="white" stroke="black" cx="1229.76" cy="-277" rx="124.4" ry="26.74"/>
<text text-anchor="middle" x="1229.76" y="-280.8" font-family="Times,serif" font-size="14.00">place_leadsyz_counter</text>
<text text-anchor="middle" x="1229.76" y="-265.8" font-family="Times,serif" font-size="14.00">int</text>
</g>
<!-- n0_place_6 -->
<g id="node12" class="node">
<title>n0_place_6</title>
<ellipse fill="white" stroke="black" cx="1229.76" cy="-361" rx="130.63" ry="26.74"/>
<text text-anchor="middle" x="1229.76" y="-364.8" font-family="Times,serif" font-size="14.00">place_LeadSyz_runtime</text>
<text text-anchor="middle" x="1229.76" y="-349.8" font-family="Times,serif" font-size="14.00">long</text>
</g>
<!-- n1_condition -->
<g id="node13" class="node">
<title>n1_condition</title>
<polygon fill="white" stroke="black" points="903.94,-665 903.94,-701 992.94,-701 992.94,-665 903.94,-665"/>
<text text-anchor="middle" x="948.44" y="-679.3" font-family="Times,serif" font-size="14.00">SchFrame</text>
</g>
<!-- n1_port_3 -->
<g id="node17" class="node">
<title>n1_port_3</title>
<polygon fill="white" stroke="black" points="905.78,-182.67 948.44,-159.57 991.1,-182.67 991.06,-220.04 905.82,-220.04 905.78,-182.67"/>
<text text-anchor="middle" x="948.44" y="-196.8" font-family="Times,serif" font-size="14.00">OUT</text>
<text text-anchor="middle" x="948.44" y="-181.8" font-family="Times,serif" font-size="14.00">list</text>
</g>
<!-- n1_port_3&#45;&gt;n0_place_2 -->
<g id="edge3" class="edge">
<title>n1_port_3&#45;&gt;n0_place_2</title>
<path fill="none" stroke="black" d="M991.02,-185.92C1034.98,-180.57 1104.94,-172.06 1157.56,-165.65"/>
<path fill="none" stroke="transparent" d="M991.26,-187.91C1035.22,-182.56 1105.18,-174.04 1157.81,-167.64"/>
<path fill="none" stroke="black" d="M991.5,-189.9C1035.46,-184.54 1105.42,-176.03 1158.05,-169.62"/>
<polygon fill="black" stroke="black" points="1158.25,-171.11 1167.75,-166.43 1157.4,-164.16 1158.25,-171.11"/>
</g>
<!-- n1_port_4 -->
<g id="node18" class="node">
<title>n1_port_4</title>
<polygon fill="white" stroke="black" points="883.58,-350.67 948.44,-327.57 1013.3,-350.67 1013.24,-388.04 883.64,-388.04 883.58,-350.67"/>
<text text-anchor="middle" x="948.44" y="-364.8" font-family="Times,serif" font-size="14.00">runtime</text>
<text text-anchor="middle" x="948.44" y="-349.8" font-family="Times,serif" font-size="14.00">long</text>
</g>
<!-- n1_port_4&#45;&gt;n0_place_6 -->
<g id="edge1" class="edge">
<title>n1_port_4&#45;&gt;n0_place_6</title>
<path fill="none" stroke="black" d="M1013.17,-361C1035.8,-361 1062.25,-361 1088.72,-361"/>
<polygon fill="black" stroke="black" points="1088.86,-364.5 1098.86,-361 1088.86,-357.5 1088.86,-364.5"/>
</g>
<!-- n1_port_5 -->
<g id="node19" class="node">
<title>n1_port_5</title>
<polygon fill="white" stroke="black" points="886.33,-266.67 948.44,-243.57 1010.55,-266.67 1010.5,-304.04 886.39,-304.04 886.33,-266.67"/>
<text text-anchor="middle" x="948.44" y="-280.8" font-family="Times,serif" font-size="14.00">counter</text>
<text text-anchor="middle" x="948.44" y="-265.8" font-family="Times,serif" font-size="14.00">int</text>
</g>
<!-- n1_port_5&#45;&gt;n0_place_5 -->
<g id="edge2" class="edge">
<title>n1_port_5&#45;&gt;n0_place_5</title>
<path fill="none" stroke="black" d="M1010.74,-277C1035.59,-277 1065.34,-277 1094.75,-277"/>
<polygon fill="black" stroke="black" points="1095.13,-280.5 1105.13,-277 1095.13,-273.5 1095.13,-280.5"/>
</g>
<!-- n1_modcall -->
<g id="node20" class="node">
<title>n1_modcall</title>
<polygon fill="white" stroke="black" points="1062.94,-142 833.94,-142 833.94,-106 1062.94,-106 1062.94,-142"/>
<text text-anchor="middle" x="948.44" y="-120.3" font-family="Times,serif" font-size="14.00">singular_template.All_leadsyz</text>
</g>
<!-- n2_condition -->
<g id="node21" class="node">
<title>n2_condition</title>
<polygon fill="white" stroke="black" points="397.99,-581 397.99,-617 465.99,-617 465.99,-581 397.99,-581"/>
<text text-anchor="middle" x="431.99" y="-595.3" font-family="Times,serif" font-size="14.00">Initiate</text>
</g>
<!-- n2_port_1 -->
<g id="node23" class="node">
<title>n2_port_1</title>
<polygon fill="white" stroke="black" points="376.11,-434.67 431.99,-411.57 487.87,-434.67 487.81,-472.04 376.17,-472.04 376.11,-434.67"/>
<text text-anchor="middle" x="431.99" y="-448.8" font-family="Times,serif" font-size="14.00">output</text>
<text text-anchor="middle" x="431.99" y="-433.8" font-family="Times,serif" font-size="14.00">string</text>
</g>
<!-- n2_port_1&#45;&gt;n0_place_3 -->
<g id="edge7" class="edge">
<title>n2_port_1&#45;&gt;n0_place_3</title>
<path fill="none" stroke="black" d="M487.88,-445C516.03,-445 551.19,-445 583.88,-445"/>
<polygon fill="black" stroke="black" points="583.94,-448.5 593.94,-445 583.94,-441.5 583.94,-448.5"/>
</g>
<!-- n2_modcall -->
<g id="node24" class="node">
<title>n2_modcall</title>
<polygon fill="white" stroke="black" points="519.49,-394 344.49,-394 344.49,-358 519.49,-358 519.49,-394"/>
<text text-anchor="middle" x="431.99" y="-372.3" font-family="Times,serif" font-size="14.00">singular_template.Init</text>
</g>
</g>
</svg>
