<?xml version="1.0" encoding="UTF-8" standalone="no"?>
<!DOCTYPE svg PUBLIC "-//W3C//DTD SVG 1.1//EN"
 "http://www.w3.org/Graphics/SVG/1.1/DTD/svg11.dtd">
<!-- Generated by graphviz version 2.43.0 (0)
 -->
<!-- Title: template Pages: 1 -->
<svg width="2238pt" height="1688pt"
 viewBox="0.00 0.00 2237.61 1688.00" xmlns="http://www.w3.org/2000/svg" xmlns:xlink="http://www.w3.org/1999/xlink">
<g id="graph0" class="graph" transform="scale(1 1) rotate(0) translate(4 1684)">
<title>template</title>
<polygon fill="white" stroke="transparent" points="-4,4 -4,-1684 2233.61,-1684 2233.61,4 -4,4"/>
<g id="clust1" class="cluster">
<title>cluster_0</title>
<polygon fill="dimgray" stroke="black" points="8,-8 8,-1672 2221.61,-1672 2221.61,-8 8,-8"/>
</g>
<g id="clust2" class="cluster">
<title>cluster_net_0</title>
<polygon fill="white" stroke="black" points="147.14,-90 147.14,-1506 2213.61,-1506 2213.61,-90 147.14,-90"/>
</g>
<g id="clust3" class="cluster">
<title>cluster_1</title>
<polygon fill="yellow" stroke="black" points="1878.61,-1054 1878.61,-1414 2205.61,-1414 2205.61,-1054 1878.61,-1054"/>
</g>
<g id="clust4" class="cluster">
<title>cluster_2</title>
<polygon fill="yellow" stroke="black" points="1329.97,-718 1329.97,-1498 1560.98,-1498 1560.98,-718 1329.97,-718"/>
</g>
<g id="clust5" class="cluster">
<title>cluster_3</title>
<polygon fill="yellow" stroke="black" points="1329.97,-98 1329.97,-710 1560.98,-710 1560.98,-98 1329.97,-98"/>
</g>
<g id="clust6" class="cluster">
<title>cluster_4</title>
<polygon fill="yellow" stroke="black" points="852.72,-197 852.72,-809 1073.24,-809 1073.24,-197 852.72,-197"/>
</g>
<g id="clust7" class="cluster">
<title>cluster_5</title>
<polygon fill="yellow" stroke="black" points="849.98,-851 849.98,-1463 1075.98,-1463 1075.98,-851 849.98,-851"/>
</g>
<g id="clust8" class="cluster">
<title>cluster_6</title>
<polygon fill="yellow" stroke="black" points="336.49,-365 336.49,-725 527.49,-725 527.49,-365 336.49,-365"/>
</g>
<!-- n0_condition -->
<g id="node1" class="node">
<title>n0_condition</title>
<polygon fill="white" stroke="black" points="27.57,-1152 27.57,-1188 107.57,-1188 107.57,-1152 27.57,-1152"/>
<text text-anchor="middle" x="67.57" y="-1166.3" font-family="Times,serif" font-size="14.00">template</text>
</g>
<!-- n0_port_0 -->
<g id="node2" class="node">
<title>n0_port_0</title>
<polygon fill="white" stroke="black" points="534.01,-1641.33 431.99,-1664.43 329.97,-1641.33 330.06,-1603.96 533.92,-1603.96 534.01,-1641.33"/>
<text text-anchor="middle" x="431.99" y="-1634.8" font-family="Times,serif" font-size="14.00">base_filename</text>
<text text-anchor="middle" x="431.99" y="-1619.8" font-family="Times,serif" font-size="14.00">string</text>
</g>
<!-- n0_place_2 -->
<g id="node16" class="node">
<title>n0_place_2</title>
<ellipse fill="white" stroke="black" cx="696.12" cy="-1471" rx="113.69" ry="26.74"/>
<text text-anchor="middle" x="696.12" y="-1474.8" font-family="Times,serif" font-size="14.00">place_base_filename</text>
<text text-anchor="middle" x="696.12" y="-1459.8" font-family="Times,serif" font-size="14.00">string</text>
</g>
<!-- n0_port_0&#45;&gt;n0_place_2 -->
<g id="edge33" class="edge">
<title>n0_port_0&#45;&gt;n0_place_2</title>
<path fill="none" stroke="black" stroke-dasharray="1,5" d="M504.56,-1603.85C514.72,-1599.27 524.88,-1594.28 534.25,-1589 582.54,-1561.8 633.3,-1522.51 664.59,-1496.86"/>
</g>
<!-- n0_port_1 -->
<g id="node3" class="node">
<title>n0_port_1</title>
<polygon fill="white" stroke="black" points="528.28,-1557.33 431.99,-1580.43 335.7,-1557.33 335.79,-1519.96 528.19,-1519.96 528.28,-1557.33"/>
<text text-anchor="middle" x="431.99" y="-1550.8" font-family="Times,serif" font-size="14.00">library_name</text>
<text text-anchor="middle" x="431.99" y="-1535.8" font-family="Times,serif" font-size="14.00">string</text>
</g>
<!-- n0_place_5 -->
<g id="node13" class="node">
<title>n0_place_5</title>
<ellipse fill="white" stroke="black" cx="696.12" cy="-840" rx="109.7" ry="26.74"/>
<text text-anchor="middle" x="696.12" y="-843.8" font-family="Times,serif" font-size="14.00">place_library_name</text>
<text text-anchor="middle" x="696.12" y="-828.8" font-family="Times,serif" font-size="14.00">string</text>
</g>
<!-- n0_port_1&#45;&gt;n0_place_5 -->
<g id="edge34" class="edge">
<title>n0_port_1&#45;&gt;n0_place_5</title>
<path fill="none" stroke="black" stroke-dasharray="1,5" d="M443.11,-1519.72C484.88,-1407.04 643.72,-978.63 685.17,-866.82"/>
</g>
<!-- n0_port_2 -->
<g id="node4" class="node">
<title>n0_port_2</title>
<polygon fill="white" stroke="black" points="119.2,-638.33 67.57,-661.43 15.93,-638.33 15.98,-600.96 119.16,-600.96 119.2,-638.33"/>
<text text-anchor="middle" x="67.57" y="-631.8" font-family="Times,serif" font-size="14.00">input</text>
<text text-anchor="middle" x="67.57" y="-616.8" font-family="Times,serif" font-size="14.00">string</text>
</g>
<!-- n0_place_1 -->
<g id="node17" class="node">
<title>n0_place_1</title>
<ellipse fill="white" stroke="black" cx="224.43" cy="-628" rx="69.09" ry="26.74"/>
<text text-anchor="middle" x="224.43" y="-631.8" font-family="Times,serif" font-size="14.00">place_input</text>
<text text-anchor="middle" x="224.43" y="-616.8" font-family="Times,serif" font-size="14.00">string</text>
</g>
<!-- n0_port_2&#45;&gt;n0_place_1 -->
<g id="edge35" class="edge">
<title>n0_port_2&#45;&gt;n0_place_1</title>
<path fill="none" stroke="black" stroke-dasharray="1,5" d="M119.28,-628C130.66,-628 142.91,-628 154.88,-628"/>
</g>
<!-- n0_port_3 -->
<g id="node5" class="node">
<title>n0_port_3</title>
<polygon fill="white" stroke="black" points="1376.38,-38.67 1445.48,-15.57 1514.58,-38.67 1514.51,-76.04 1376.45,-76.04 1376.38,-38.67"/>
<text text-anchor="middle" x="1445.48" y="-52.8" font-family="Times,serif" font-size="14.00">OUTPUT</text>
<text text-anchor="middle" x="1445.48" y="-37.8" font-family="Times,serif" font-size="14.00">string</text>
</g>
<!-- n0_place_10 -->
<g id="node8" class="node">
<title>n0_place_10</title>
<ellipse fill="white" stroke="black" cx="1719.8" cy="-469" rx="79.81" ry="26.74"/>
<text text-anchor="middle" x="1719.8" y="-472.8" font-family="Times,serif" font-size="14.00">place_SubLift</text>
<text text-anchor="middle" x="1719.8" y="-457.8" font-family="Times,serif" font-size="14.00">string</text>
</g>
<!-- n0_port_3&#45;&gt;n0_place_10 -->
<g id="edge36" class="edge">
<title>n0_port_3&#45;&gt;n0_place_10</title>
<path fill="none" stroke="black" stroke-dasharray="1,5" d="M1514.7,-65.67C1531.41,-72.31 1548.15,-81.47 1560.98,-94 1664.34,-194.91 1703.27,-373.9 1714.76,-441.83"/>
</g>
<!-- n0_place_12 -->
<g id="node6" class="node">
<title>n0_place_12</title>
<ellipse fill="white" stroke="black" cx="1719.8" cy="-897" rx="60.62" ry="26.74"/>
<text text-anchor="middle" x="1719.8" y="-900.8" font-family="Times,serif" font-size="14.00">place_Tau</text>
<text text-anchor="middle" x="1719.8" y="-885.8" font-family="Times,serif" font-size="14.00">string</text>
</g>
<!-- n2_port_5 -->
<g id="node29" class="node">
<title>n2_port_5</title>
<polygon fill="white" stroke="black" points="1520.81,-907.33 1445.48,-930.43 1370.14,-907.33 1370.21,-869.96 1520.74,-869.96 1520.81,-907.33"/>
<text text-anchor="middle" x="1445.48" y="-900.8" font-family="Times,serif" font-size="14.00">place_Tau</text>
<text text-anchor="middle" x="1445.48" y="-885.8" font-family="Times,serif" font-size="14.00">string</text>
</g>
<!-- n0_place_12&#45;&gt;n2_port_5 -->
<g id="edge10" class="edge">
<title>n0_place_12&#45;&gt;n2_port_5</title>
<path fill="none" stroke="black" d="M1658.68,-897C1621.17,-897 1572.33,-897 1530.96,-897"/>
<polygon fill="black" stroke="black" points="1530.89,-893.5 1520.89,-897 1530.89,-900.5 1530.89,-893.5"/>
</g>
<!-- n0_place_11 -->
<g id="node7" class="node">
<title>n0_place_11</title>
<ellipse fill="white" stroke="black" cx="1202.98" cy="-292" rx="82.05" ry="26.74"/>
<text text-anchor="middle" x="1202.98" y="-295.8" font-family="Times,serif" font-size="14.00">place_counter</text>
<text text-anchor="middle" x="1202.98" y="-280.8" font-family="Times,serif" font-size="14.00">int</text>
</g>
<!-- n0_place_9 -->
<g id="node9" class="node">
<title>n0_place_9</title>
<ellipse fill="white" stroke="black" cx="1202.98" cy="-946" rx="85.62" ry="26.74"/>
<text text-anchor="middle" x="1202.98" y="-949.8" font-family="Times,serif" font-size="14.00">place_All_Lead</text>
<text text-anchor="middle" x="1202.98" y="-934.8" font-family="Times,serif" font-size="14.00">string</text>
</g>
<!-- n2_port_4 -->
<g id="node28" class="node">
<title>n2_port_4</title>
<polygon fill="white" stroke="black" points="1507.59,-1327.33 1445.48,-1350.43 1383.37,-1327.33 1383.42,-1289.96 1507.53,-1289.96 1507.59,-1327.33"/>
<text text-anchor="middle" x="1445.48" y="-1320.8" font-family="Times,serif" font-size="14.00">all_lead</text>
<text text-anchor="middle" x="1445.48" y="-1305.8" font-family="Times,serif" font-size="14.00">string</text>
</g>
<!-- n0_place_9&#45;&gt;n2_port_4 -->
<g id="edge7" class="edge">
<title>n0_place_9&#45;&gt;n2_port_4</title>
<path fill="none" stroke="black" stroke-dasharray="5,2" d="M1265.46,-964.44C1279.54,-971.5 1293,-981.09 1301.97,-994 1373.6,-1097.06 1253.09,-1175.79 1329.97,-1275 1340.81,-1288.99 1356.79,-1298.32 1373.38,-1304.55"/>
<polygon fill="black" stroke="black" points="1372.59,-1307.98 1383.19,-1307.86 1374.84,-1301.35 1372.59,-1307.98"/>
</g>
<!-- n3_port_4 -->
<g id="node39" class="node">
<title>n3_port_4</title>
<polygon fill="white" stroke="black" points="1507.59,-539.33 1445.48,-562.43 1383.37,-539.33 1383.42,-501.96 1507.53,-501.96 1507.59,-539.33"/>
<text text-anchor="middle" x="1445.48" y="-532.8" font-family="Times,serif" font-size="14.00">all_lead</text>
<text text-anchor="middle" x="1445.48" y="-517.8" font-family="Times,serif" font-size="14.00">string</text>
</g>
<!-- n0_place_9&#45;&gt;n3_port_4 -->
<g id="edge14" class="edge">
<title>n0_place_9&#45;&gt;n3_port_4</title>
<path fill="none" stroke="black" stroke-dasharray="5,2" d="M1231.98,-920.64C1254.99,-898 1286.25,-862.67 1301.97,-825 1323.84,-772.59 1294.95,-615.7 1329.97,-571 1340.89,-557.07 1356.88,-547.75 1373.48,-541.53"/>
<polygon fill="black" stroke="black" points="1374.94,-544.73 1383.29,-538.21 1372.69,-538.1 1374.94,-544.73"/>
</g>
<!-- n0_place_8 -->
<g id="node10" class="node">
<title>n0_place_8</title>
<ellipse fill="white" stroke="black" cx="1719.8" cy="-1149" rx="110.12" ry="26.74"/>
<text text-anchor="middle" x="1719.8" y="-1152.8" font-family="Times,serif" font-size="14.00">place_subLIFT_sum</text>
<text text-anchor="middle" x="1719.8" y="-1137.8" font-family="Times,serif" font-size="14.00">long</text>
</g>
<!-- n1_port_2 -->
<g id="node22" class="node">
<title>n1_port_2</title>
<polygon fill="white" stroke="black" points="2134.91,-1159.33 2042.11,-1182.43 1949.32,-1159.33 1949.41,-1121.96 2134.82,-1121.96 2134.91,-1159.33"/>
<text text-anchor="middle" x="2042.11" y="-1152.8" font-family="Times,serif" font-size="14.00">newLiftTime</text>
<text text-anchor="middle" x="2042.11" y="-1137.8" font-family="Times,serif" font-size="14.00">long</text>
</g>
<!-- n0_place_8&#45;&gt;n1_port_2 -->
<g id="edge2" class="edge">
<title>n0_place_8&#45;&gt;n1_port_2</title>
<path fill="none" stroke="black" d="M1830.14,-1149C1865.44,-1149 1904.41,-1149 1939.16,-1149"/>
<polygon fill="black" stroke="black" points="1939.31,-1152.5 1949.31,-1149 1939.31,-1145.5 1939.31,-1152.5"/>
</g>
<!-- n0_place_7 -->
<g id="node11" class="node">
<title>n0_place_7</title>
<ellipse fill="white" stroke="black" cx="696.12" cy="-544" rx="78.48" ry="26.74"/>
<text text-anchor="middle" x="696.12" y="-547.8" font-family="Times,serif" font-size="14.00">place_control</text>
<text text-anchor="middle" x="696.12" y="-532.8" font-family="Times,serif" font-size="14.00">control</text>
</g>
<!-- n4_port_3 -->
<g id="node47" class="node">
<title>n4_port_3</title>
<polygon fill="white" stroke="black" points="1021.6,-554.33 962.98,-577.43 904.36,-554.33 904.42,-516.96 1021.55,-516.96 1021.6,-554.33"/>
<text text-anchor="middle" x="962.98" y="-547.8" font-family="Times,serif" font-size="14.00">s</text>
<text text-anchor="middle" x="962.98" y="-532.8" font-family="Times,serif" font-size="14.00">control</text>
</g>
<!-- n0_place_7&#45;&gt;n4_port_3 -->
<g id="edge20" class="edge">
<title>n0_place_7&#45;&gt;n4_port_3</title>
<path fill="none" stroke="black" d="M774.8,-544C812.61,-544 857.65,-544 894.07,-544"/>
<polygon fill="black" stroke="black" points="894.1,-547.5 904.1,-544 894.1,-540.5 894.1,-547.5"/>
</g>
<!-- n0_place_6 -->
<g id="node12" class="node">
<title>n0_place_6</title>
<ellipse fill="white" stroke="black" cx="1719.8" cy="-1275" rx="130.63" ry="37.45"/>
<text text-anchor="middle" x="1719.8" y="-1286.3" font-family="Times,serif" font-size="14.00">place_SubLIFT_runtime</text>
<text text-anchor="middle" x="1719.8" y="-1271.3" font-family="Times,serif" font-size="14.00">long</text>
<text text-anchor="middle" x="1719.8" y="-1256.3" font-family="Times,serif" font-size="14.00">0L</text>
</g>
<!-- n1_port_0 -->
<g id="node21" class="node">
<title>n1_port_0</title>
<polygon fill="white" stroke="black" points="2131.42,-1243.33 2042.11,-1266.43 1952.81,-1243.33 1952.89,-1205.96 2131.33,-1205.96 2131.42,-1243.33"/>
<text text-anchor="middle" x="2042.11" y="-1236.8" font-family="Times,serif" font-size="14.00">currentSum</text>
<text text-anchor="middle" x="2042.11" y="-1221.8" font-family="Times,serif" font-size="14.00">long</text>
</g>
<!-- n0_place_6&#45;&gt;n1_port_0 -->
<g id="edge3" class="edge">
<title>n0_place_6&#45;&gt;n1_port_0</title>
<path fill="none" stroke="black" d="M1839.16,-1259.48C1874.21,-1254.88 1912.13,-1249.91 1945.54,-1245.53"/>
<polygon fill="black" stroke="black" points="1946.3,-1248.96 1955.76,-1244.19 1945.39,-1242.02 1946.3,-1248.96"/>
</g>
<!-- n2_port_0 -->
<g id="node26" class="node">
<title>n2_port_0</title>
<polygon fill="white" stroke="black" points="1552.99,-1243.33 1445.48,-1266.43 1337.97,-1243.33 1338.07,-1205.96 1552.89,-1205.96 1552.99,-1243.33"/>
<text text-anchor="middle" x="1445.48" y="-1236.8" font-family="Times,serif" font-size="14.00">needed_library</text>
<text text-anchor="middle" x="1445.48" y="-1221.8" font-family="Times,serif" font-size="14.00">string</text>
</g>
<!-- n0_place_5&#45;&gt;n2_port_0 -->
<g id="edge11" class="edge">
<title>n0_place_5&#45;&gt;n2_port_0</title>
<path fill="none" stroke="black" stroke-dasharray="5,2" d="M804.32,-835.7C960.85,-832.06 1240.11,-836.42 1301.97,-910 1382.74,-1006.06 1253.09,-1091.79 1329.97,-1191 1332.31,-1194.02 1334.9,-1196.83 1337.67,-1199.43"/>
<polygon fill="black" stroke="black" points="1335.51,-1202.18 1345.44,-1205.86 1339.97,-1196.79 1335.51,-1202.18"/>
</g>
<!-- n3_port_0 -->
<g id="node36" class="node">
<title>n3_port_0</title>
<polygon fill="white" stroke="black" points="1552.99,-455.33 1445.48,-478.43 1337.97,-455.33 1338.07,-417.96 1552.89,-417.96 1552.99,-455.33"/>
<text text-anchor="middle" x="1445.48" y="-448.8" font-family="Times,serif" font-size="14.00">needed_library</text>
<text text-anchor="middle" x="1445.48" y="-433.8" font-family="Times,serif" font-size="14.00">string</text>
</g>
<!-- n0_place_5&#45;&gt;n3_port_0 -->
<g id="edge17" class="edge">
<title>n0_place_5&#45;&gt;n3_port_0</title>
<path fill="none" stroke="black" stroke-dasharray="5,2" d="M802.05,-833.03C913.12,-825.58 1072.95,-814.62 1075.98,-813 1238.04,-726.55 1181.59,-595.25 1329.97,-487 1340.67,-479.19 1352.98,-472.69 1365.47,-467.33"/>
<polygon fill="black" stroke="black" points="1367.09,-470.45 1375.04,-463.45 1364.45,-463.97 1367.09,-470.45"/>
</g>
<!-- n4_port_0 -->
<g id="node44" class="node">
<title>n4_port_0</title>
<polygon fill="white" stroke="black" points="1059.27,-638.33 962.98,-661.43 866.69,-638.33 866.78,-600.96 1059.18,-600.96 1059.27,-638.33"/>
<text text-anchor="middle" x="962.98" y="-631.8" font-family="Times,serif" font-size="14.00">library_name</text>
<text text-anchor="middle" x="962.98" y="-616.8" font-family="Times,serif" font-size="14.00">string</text>
</g>
<!-- n0_place_5&#45;&gt;n4_port_0 -->
<g id="edge23" class="edge">
<title>n0_place_5&#45;&gt;n4_port_0</title>
<path fill="none" stroke="black" stroke-dasharray="5,2" d="M714.79,-813.36C740.51,-776.45 791.62,-709.81 849.98,-670 861.65,-662.04 875.02,-655.35 888.36,-649.81"/>
<polygon fill="black" stroke="black" points="890.04,-652.91 898.05,-645.98 887.47,-646.4 890.04,-652.91"/>
</g>
<!-- n5_port_0 -->
<g id="node52" class="node">
<title>n5_port_0</title>
<polygon fill="white" stroke="black" points="1059.27,-1208.33 962.98,-1231.43 866.69,-1208.33 866.78,-1170.96 1059.18,-1170.96 1059.27,-1208.33"/>
<text text-anchor="middle" x="962.98" y="-1201.8" font-family="Times,serif" font-size="14.00">library_name</text>
<text text-anchor="middle" x="962.98" y="-1186.8" font-family="Times,serif" font-size="14.00">string</text>
</g>
<!-- n0_place_5&#45;&gt;n5_port_0 -->
<g id="edge29" class="edge">
<title>n0_place_5&#45;&gt;n5_port_0</title>
<path fill="none" stroke="black" stroke-dasharray="5,2" d="M702.93,-866.96C717.28,-927.19 759.93,-1073.86 849.98,-1156 853.77,-1159.45 857.87,-1162.63 862.18,-1165.56"/>
<polygon fill="black" stroke="black" points="860.38,-1168.56 870.71,-1170.87 864.08,-1162.61 860.38,-1168.56"/>
</g>
<!-- n0_place_4 -->
<g id="node14" class="node">
<title>n0_place_4</title>
<ellipse fill="white" stroke="black" cx="696.12" cy="-460" rx="89.61" ry="26.74"/>
<text text-anchor="middle" x="696.12" y="-463.8" font-family="Times,serif" font-size="14.00">place_input_GB</text>
<text text-anchor="middle" x="696.12" y="-448.8" font-family="Times,serif" font-size="14.00">string</text>
</g>
<!-- n2_port_6 -->
<g id="node30" class="node">
<title>n2_port_6</title>
<polygon fill="white" stroke="black" points="1532.78,-1075.33 1445.48,-1098.43 1358.17,-1075.33 1358.25,-1037.96 1532.7,-1037.96 1532.78,-1075.33"/>
<text text-anchor="middle" x="1445.48" y="-1068.8" font-family="Times,serif" font-size="14.00">input_name</text>
<text text-anchor="middle" x="1445.48" y="-1053.8" font-family="Times,serif" font-size="14.00">string</text>
</g>
<!-- n0_place_4&#45;&gt;n2_port_6 -->
<g id="edge8" class="edge">
<title>n0_place_4&#45;&gt;n2_port_6</title>
<path fill="none" stroke="black" stroke-dasharray="5,2" d="M703.12,-432.83C717.29,-376.1 758.72,-245.91 849.98,-193 937.72,-142.13 1239.18,-176.37 1301.97,-256 1354.78,-322.96 1279.88,-953.99 1329.97,-1023 1335.2,-1030.21 1341.8,-1036.18 1349.18,-1041.13"/>
<polygon fill="black" stroke="black" points="1347.79,-1044.37 1358.17,-1046.48 1351.37,-1038.35 1347.79,-1044.37"/>
</g>
<!-- n3_port_5 -->
<g id="node40" class="node">
<title>n3_port_5</title>
<polygon fill="white" stroke="black" points="1532.78,-287.33 1445.48,-310.43 1358.17,-287.33 1358.25,-249.96 1532.7,-249.96 1532.78,-287.33"/>
<text text-anchor="middle" x="1445.48" y="-280.8" font-family="Times,serif" font-size="14.00">input_name</text>
<text text-anchor="middle" x="1445.48" y="-265.8" font-family="Times,serif" font-size="14.00">string</text>
</g>
<!-- n0_place_4&#45;&gt;n3_port_5 -->
<g id="edge15" class="edge">
<title>n0_place_4&#45;&gt;n3_port_5</title>
<path fill="none" stroke="black" stroke-dasharray="5,2" d="M702.41,-433C715.5,-374.53 755.42,-237.02 849.98,-181 1022.82,-78.62 1130.32,-76.65 1301.97,-181 1325.07,-195.04 1309.68,-217.13 1329.97,-235 1335.78,-240.12 1342.27,-244.63 1349.12,-248.6"/>
<polygon fill="black" stroke="black" points="1347.5,-251.71 1357.97,-253.36 1350.82,-245.54 1347.5,-251.71"/>
</g>
<!-- n4_port_2 -->
<g id="node46" class="node">
<title>n4_port_2</title>
<polygon fill="white" stroke="black" points="1014.62,-470.33 962.98,-493.43 911.35,-470.33 911.39,-432.96 1014.57,-432.96 1014.62,-470.33"/>
<text text-anchor="middle" x="962.98" y="-463.8" font-family="Times,serif" font-size="14.00">input</text>
<text text-anchor="middle" x="962.98" y="-448.8" font-family="Times,serif" font-size="14.00">string</text>
</g>
<!-- n0_place_4&#45;&gt;n4_port_2 -->
<g id="edge21" class="edge">
<title>n0_place_4&#45;&gt;n4_port_2</title>
<path fill="none" stroke="black" stroke-dasharray="5,2" d="M786.05,-460C823.78,-460 866.8,-460 900.86,-460"/>
<polygon fill="black" stroke="black" points="901.13,-463.5 911.13,-460 901.13,-456.5 901.13,-463.5"/>
</g>
<!-- n5_port_4 -->
<g id="node55" class="node">
<title>n5_port_4</title>
<polygon fill="white" stroke="black" points="1014.62,-1124.33 962.98,-1147.43 911.35,-1124.33 911.39,-1086.96 1014.57,-1086.96 1014.62,-1124.33"/>
<text text-anchor="middle" x="962.98" y="-1117.8" font-family="Times,serif" font-size="14.00">init</text>
<text text-anchor="middle" x="962.98" y="-1102.8" font-family="Times,serif" font-size="14.00">string</text>
</g>
<!-- n0_place_4&#45;&gt;n5_port_4 -->
<g id="edge27" class="edge">
<title>n0_place_4&#45;&gt;n5_port_4</title>
<path fill="none" stroke="black" stroke-dasharray="5,2" d="M773.35,-473.86C792.12,-480.97 810.2,-491.73 821.98,-508 895.58,-609.64 775.97,-970.66 849.98,-1072 862.19,-1088.71 881.87,-1098.78 901.35,-1104.84"/>
<polygon fill="black" stroke="black" points="900.59,-1108.26 911.17,-1107.58 902.48,-1101.52 900.59,-1108.26"/>
</g>
<!-- n0_place_3 -->
<g id="node15" class="node">
<title>n0_place_3</title>
<ellipse fill="white" stroke="black" cx="1202.98" cy="-370" rx="64.19" ry="26.74"/>
<text text-anchor="middle" x="1202.98" y="-373.8" font-family="Times,serif" font-size="14.00">place_lead</text>
<text text-anchor="middle" x="1202.98" y="-358.8" font-family="Times,serif" font-size="14.00">string</text>
</g>
<!-- n3_port_2 -->
<g id="node38" class="node">
<title>n3_port_2</title>
<polygon fill="white" stroke="black" points="1497.11,-371.33 1445.48,-394.43 1393.84,-371.33 1393.89,-333.96 1497.07,-333.96 1497.11,-371.33"/>
<text text-anchor="middle" x="1445.48" y="-364.8" font-family="Times,serif" font-size="14.00">lead</text>
<text text-anchor="middle" x="1445.48" y="-349.8" font-family="Times,serif" font-size="14.00">string</text>
</g>
<!-- n0_place_3&#45;&gt;n3_port_2 -->
<g id="edge13" class="edge">
<title>n0_place_3&#45;&gt;n3_port_2</title>
<path fill="none" stroke="black" d="M1267.17,-367.64C1303.14,-366.29 1347.98,-364.61 1383.57,-363.28"/>
<polygon fill="black" stroke="black" points="1383.96,-366.77 1393.82,-362.9 1383.7,-359.77 1383.96,-366.77"/>
</g>
<!-- n2_port_2 -->
<g id="node27" class="node">
<title>n2_port_2</title>
<polygon fill="white" stroke="black" points="1547.5,-1411.33 1445.48,-1434.43 1343.45,-1411.33 1343.55,-1373.96 1547.41,-1373.96 1547.5,-1411.33"/>
<text text-anchor="middle" x="1445.48" y="-1404.8" font-family="Times,serif" font-size="14.00">base_filename</text>
<text text-anchor="middle" x="1445.48" y="-1389.8" font-family="Times,serif" font-size="14.00">string</text>
</g>
<!-- n0_place_2&#45;&gt;n2_port_2 -->
<g id="edge9" class="edge">
<title>n0_place_2&#45;&gt;n2_port_2</title>
<path fill="none" stroke="black" stroke-dasharray="5,2" d="M769.52,-1491.69C887.68,-1521.28 1126.39,-1563.39 1301.97,-1479 1319.93,-1470.37 1313.85,-1455.7 1329.97,-1444 1341.56,-1435.59 1354.99,-1428.63 1368.49,-1422.93"/>
<polygon fill="black" stroke="black" points="1369.84,-1426.16 1377.82,-1419.19 1367.24,-1419.66 1369.84,-1426.16"/>
</g>
<!-- n3_port_1 -->
<g id="node37" class="node">
<title>n3_port_1</title>
<polygon fill="white" stroke="black" points="1547.5,-623.33 1445.48,-646.43 1343.45,-623.33 1343.55,-585.96 1547.41,-585.96 1547.5,-623.33"/>
<text text-anchor="middle" x="1445.48" y="-616.8" font-family="Times,serif" font-size="14.00">base_filename</text>
<text text-anchor="middle" x="1445.48" y="-601.8" font-family="Times,serif" font-size="14.00">string</text>
</g>
<!-- n0_place_2&#45;&gt;n3_port_1 -->
<g id="edge16" class="edge">
<title>n0_place_2&#45;&gt;n3_port_1</title>
<path fill="none" stroke="black" stroke-dasharray="5,2" d="M801.51,-1481.32C897.42,-1488.78 1031.25,-1493.45 1075.98,-1467 1252.07,-1362.86 1243.34,-1261.99 1301.97,-1066 1328.15,-978.51 1275.44,-729.26 1329.97,-656 1337.15,-646.35 1346.76,-638.87 1357.37,-633.06"/>
<polygon fill="black" stroke="black" points="1359.07,-636.13 1366.49,-628.57 1355.97,-629.85 1359.07,-636.13"/>
</g>
<!-- n4_port_1 -->
<g id="node45" class="node">
<title>n4_port_1</title>
<polygon fill="white" stroke="black" points="1065.01,-722.33 962.98,-745.43 860.96,-722.33 861.05,-684.96 1064.91,-684.96 1065.01,-722.33"/>
<text text-anchor="middle" x="962.98" y="-715.8" font-family="Times,serif" font-size="14.00">base_filename</text>
<text text-anchor="middle" x="962.98" y="-700.8" font-family="Times,serif" font-size="14.00">string</text>
</g>
<!-- n0_place_2&#45;&gt;n4_port_1 -->
<g id="edge22" class="edge">
<title>n0_place_2&#45;&gt;n4_port_1</title>
<path fill="none" stroke="black" stroke-dasharray="5,2" d="M729.73,-1445.16C759.78,-1419.17 802.57,-1376.14 821.98,-1328 845.82,-1268.88 812.61,-806.64 849.98,-755 856.78,-745.6 865.92,-738.26 876.07,-732.52"/>
<polygon fill="black" stroke="black" points="877.87,-735.53 885.2,-727.88 874.7,-729.29 877.87,-735.53"/>
</g>
<!-- n5_port_1 -->
<g id="node53" class="node">
<title>n5_port_1</title>
<polygon fill="white" stroke="black" points="1065.01,-1376.33 962.98,-1399.43 860.96,-1376.33 861.05,-1338.96 1064.91,-1338.96 1065.01,-1376.33"/>
<text text-anchor="middle" x="962.98" y="-1369.8" font-family="Times,serif" font-size="14.00">base_filename</text>
<text text-anchor="middle" x="962.98" y="-1354.8" font-family="Times,serif" font-size="14.00">string</text>
</g>
<!-- n0_place_2&#45;&gt;n5_port_1 -->
<g id="edge28" class="edge">
<title>n0_place_2&#45;&gt;n5_port_1</title>
<path fill="none" stroke="black" stroke-dasharray="5,2" d="M753.64,-1447.78C782.43,-1436.03 818.02,-1421.62 849.98,-1409 865.3,-1402.95 881.85,-1396.54 897.4,-1390.56"/>
<polygon fill="black" stroke="black" points="898.85,-1393.75 906.93,-1386.9 896.34,-1387.22 898.85,-1393.75"/>
</g>
<!-- n6_port_0 -->
<g id="node60" class="node">
<title>n6_port_0</title>
<polygon fill="white" stroke="black" points="483.63,-638.33 431.99,-661.43 380.35,-638.33 380.4,-600.96 483.58,-600.96 483.63,-638.33"/>
<text text-anchor="middle" x="431.99" y="-631.8" font-family="Times,serif" font-size="14.00">input</text>
<text text-anchor="middle" x="431.99" y="-616.8" font-family="Times,serif" font-size="14.00">string</text>
</g>
<!-- n0_place_1&#45;&gt;n6_port_0 -->
<g id="edge32" class="edge">
<title>n0_place_1&#45;&gt;n6_port_0</title>
<path fill="none" stroke="black" d="M293.88,-628C318.61,-628 346.34,-628 370.35,-628"/>
<polygon fill="black" stroke="black" points="370.4,-631.5 380.4,-628 370.4,-624.5 370.4,-631.5"/>
</g>
<!-- n0_place_0 -->
<g id="node18" class="node">
<title>n0_place_0</title>
<ellipse fill="white" stroke="black" cx="1202.98" cy="-1030" rx="98.99" ry="26.74"/>
<text text-anchor="middle" x="1202.98" y="-1033.8" font-family="Times,serif" font-size="14.00">place_length_Res</text>
<text text-anchor="middle" x="1202.98" y="-1018.8" font-family="Times,serif" font-size="14.00">int</text>
</g>
<!-- n0_place_13 -->
<g id="node19" class="node">
<title>n0_place_13</title>
<ellipse fill="white" stroke="black" cx="696.12" cy="-1282" rx="125.73" ry="37.45"/>
<text text-anchor="middle" x="696.12" y="-1293.3" font-family="Times,serif" font-size="14.00">place_control_All_Lead</text>
<text text-anchor="middle" x="696.12" y="-1278.3" font-family="Times,serif" font-size="14.00">control</text>
<text text-anchor="middle" x="696.12" y="-1263.3" font-family="Times,serif" font-size="14.00">[]</text>
</g>
<!-- n5_port_3 -->
<g id="node54" class="node">
<title>n5_port_3</title>
<polygon fill="white" stroke="black" points="1021.6,-1292.33 962.98,-1315.43 904.36,-1292.33 904.42,-1254.96 1021.55,-1254.96 1021.6,-1292.33"/>
<text text-anchor="middle" x="962.98" y="-1285.8" font-family="Times,serif" font-size="14.00">C</text>
<text text-anchor="middle" x="962.98" y="-1270.8" font-family="Times,serif" font-size="14.00">control</text>
</g>
<!-- n0_place_13&#45;&gt;n5_port_3 -->
<g id="edge26" class="edge">
<title>n0_place_13&#45;&gt;n5_port_3</title>
<path fill="none" stroke="black" d="M822.18,-1282C846.93,-1282 872.02,-1282 893.98,-1282"/>
<polygon fill="black" stroke="black" points="894.16,-1285.5 904.16,-1282 894.16,-1278.5 894.16,-1285.5"/>
</g>
<!-- n1_condition -->
<g id="node20" class="node">
<title>n1_condition</title>
<polygon fill="white" stroke="black" points="1985.11,-1369 1985.11,-1405 2099.11,-1405 2099.11,-1369 1985.11,-1369"/>
<text text-anchor="middle" x="2042.11" y="-1383.3" font-family="Times,serif" font-size="14.00">SubLIFT_sum</text>
</g>
<!-- n1_port_1 -->
<g id="node23" class="node">
<title>n1_port_1</title>
<polygon fill="white" stroke="black" points="1952.81,-1306.67 2042.11,-1283.57 2131.42,-1306.67 2131.33,-1344.04 1952.89,-1344.04 1952.81,-1306.67"/>
<text text-anchor="middle" x="2042.11" y="-1320.8" font-family="Times,serif" font-size="14.00">currentSum</text>
<text text-anchor="middle" x="2042.11" y="-1305.8" font-family="Times,serif" font-size="14.00">long</text>
</g>
<!-- n1_port_1&#45;&gt;n0_place_6 -->
<g id="edge1" class="edge">
<title>n1_port_1&#45;&gt;n0_place_6</title>
<path fill="none" stroke="black" d="M1955.76,-1305.81C1923.08,-1301.52 1885.03,-1296.53 1849.2,-1291.84"/>
<polygon fill="black" stroke="black" points="1849.53,-1288.35 1839.16,-1290.52 1848.62,-1295.29 1849.53,-1288.35"/>
</g>
<!-- n1_modcall -->
<g id="node24" class="node">
<title>n1_modcall</title>
<polygon fill="white" stroke="black" points="2197.61,-1098 1886.61,-1098 1886.61,-1062 2197.61,-1062 2197.61,-1098"/>
<text text-anchor="middle" x="2042.11" y="-1076.3" font-family="Times,serif" font-size="14.00">singular_template.SumSubLIFTRuntimes</text>
</g>
<!-- n2_condition -->
<g id="node25" class="node">
<title>n2_condition</title>
<polygon fill="white" stroke="black" points="1406.98,-1453 1406.98,-1489 1483.98,-1489 1483.98,-1453 1406.98,-1453"/>
<text text-anchor="middle" x="1445.48" y="-1467.3" font-family="Times,serif" font-size="14.00">SubLIFT</text>
</g>
<!-- n2_port_1 -->
<g id="node31" class="node">
<title>n2_port_1</title>
<polygon fill="white" stroke="black" points="1373.64,-802.67 1445.48,-779.57 1517.32,-802.67 1517.25,-840.04 1373.7,-840.04 1373.64,-802.67"/>
<text text-anchor="middle" x="1445.48" y="-816.8" font-family="Times,serif" font-size="14.00">SUBLIFT</text>
<text text-anchor="middle" x="1445.48" y="-801.8" font-family="Times,serif" font-size="14.00">string</text>
</g>
<!-- n2_port_1&#45;&gt;n0_place_10 -->
<g id="edge5" class="edge">
<title>n2_port_1&#45;&gt;n0_place_10</title>
<path fill="none" stroke="black" d="M1508.04,-799.6C1526.61,-793.28 1546.03,-784.13 1560.98,-771 1644.58,-697.62 1690.51,-569.11 1709.01,-506.04"/>
<polygon fill="black" stroke="black" points="1712.46,-506.72 1711.85,-496.14 1705.73,-504.79 1712.46,-506.72"/>
</g>
<!-- n2_port_3 -->
<g id="node32" class="node">
<title>n2_port_3</title>
<polygon fill="white" stroke="black" points="1401.57,-970.67 1445.48,-947.57 1489.38,-970.67 1489.34,-1008.04 1401.61,-1008.04 1401.57,-970.67"/>
<text text-anchor="middle" x="1445.48" y="-984.8" font-family="Times,serif" font-size="14.00">LIFT</text>
<text text-anchor="middle" x="1445.48" y="-969.8" font-family="Times,serif" font-size="14.00">list</text>
</g>
<!-- n2_port_3&#45;&gt;n0_place_12 -->
<g id="edge6" class="edge">
<title>n2_port_3&#45;&gt;n0_place_12</title>
<path fill="none" stroke="black" d="M1485.49,-966.87C1531.08,-952.81 1606.44,-929.57 1659,-913.35"/>
<path fill="none" stroke="transparent" d="M1486.08,-968.79C1531.67,-954.72 1607.02,-931.48 1659.59,-915.26"/>
<path fill="none" stroke="black" d="M1486.67,-970.7C1532.26,-956.63 1607.61,-933.39 1660.18,-917.17"/>
<polygon fill="black" stroke="black" points="1660.94,-918.51 1669.46,-912.22 1658.87,-911.82 1660.94,-918.51"/>
</g>
<!-- n2_port_7 -->
<g id="node33" class="node">
<title>n2_port_7</title>
<polygon fill="white" stroke="black" points="1380.62,-1138.67 1445.48,-1115.57 1510.34,-1138.67 1510.27,-1176.04 1380.68,-1176.04 1380.62,-1138.67"/>
<text text-anchor="middle" x="1445.48" y="-1152.8" font-family="Times,serif" font-size="14.00">runtime</text>
<text text-anchor="middle" x="1445.48" y="-1137.8" font-family="Times,serif" font-size="14.00">long</text>
</g>
<!-- n2_port_7&#45;&gt;n0_place_8 -->
<g id="edge4" class="edge">
<title>n2_port_7&#45;&gt;n0_place_8</title>
<path fill="none" stroke="black" d="M1510.33,-1149C1536.81,-1149 1568.43,-1149 1598.95,-1149"/>
<polygon fill="black" stroke="black" points="1599.24,-1152.5 1609.24,-1149 1599.24,-1145.5 1599.24,-1152.5"/>
</g>
<!-- n2_modcall -->
<g id="node34" class="node">
<title>n2_modcall</title>
<polygon fill="white" stroke="black" points="1552.98,-762 1337.98,-762 1337.98,-726 1552.98,-726 1552.98,-762"/>
<text text-anchor="middle" x="1445.48" y="-740.3" font-family="Times,serif" font-size="14.00">singular_template.SUBLIFT</text>
</g>
<!-- n3_condition -->
<g id="node35" class="node">
<title>n3_condition</title>
<polygon fill="white" stroke="black" points="1418.48,-665 1418.48,-701 1472.48,-701 1472.48,-665 1418.48,-665"/>
<text text-anchor="middle" x="1445.48" y="-679.3" font-family="Times,serif" font-size="14.00">LIFT</text>
</g>
<!-- n3_port_3 -->
<g id="node41" class="node">
<title>n3_port_3</title>
<polygon fill="white" stroke="black" points="1401.57,-182.67 1445.48,-159.57 1489.38,-182.67 1489.34,-220.04 1401.61,-220.04 1401.57,-182.67"/>
<text text-anchor="middle" x="1445.48" y="-196.8" font-family="Times,serif" font-size="14.00">LIFT</text>
<text text-anchor="middle" x="1445.48" y="-181.8" font-family="Times,serif" font-size="14.00">list</text>
</g>
<!-- n3_port_3&#45;&gt;n0_place_12 -->
<g id="edge12" class="edge">
<title>n3_port_3&#45;&gt;n0_place_12</title>
<path fill="none" stroke="black" d="M1489.64,-195.59C1514.8,-200.66 1544.55,-211.14 1562.56,-233.77 1600.01,-282.87 1578.3,-446.29 1590.94,-504.58 1619.76,-638.9 1678.36,-792.16 1705.81,-860.29"/>
<path fill="none" stroke="transparent" d="M1489.25,-197.55C1514.14,-202.54 1543.88,-213.02 1560.98,-235 1598.03,-282.61 1576.32,-446.02 1588.98,-505 1617.9,-639.61 1676.49,-792.88 1703.96,-861.04"/>
<path fill="none" stroke="black" d="M1488.86,-199.51C1513.47,-204.43 1543.22,-214.91 1559.41,-236.23 1596.05,-282.34 1574.33,-445.76 1587.03,-505.42 1616.03,-640.33 1674.62,-793.59 1702.1,-861.79"/>
<polygon fill="black" stroke="black" points="1700.78,-862.51 1707.78,-870.47 1707.27,-859.89 1700.78,-862.51"/>
</g>
<!-- n3_modcall -->
<g id="node42" class="node">
<title>n3_modcall</title>
<polygon fill="white" stroke="black" points="1536.98,-142 1353.98,-142 1353.98,-106 1536.98,-106 1536.98,-142"/>
<text text-anchor="middle" x="1445.48" y="-120.3" font-family="Times,serif" font-size="14.00">singular_template.LIFT</text>
</g>
<!-- n4_condition -->
<g id="node43" class="node">
<title>n4_condition</title>
<polygon fill="white" stroke="black" points="919.98,-764 919.98,-800 1005.98,-800 1005.98,-764 919.98,-764"/>
<text text-anchor="middle" x="962.98" y="-778.3" font-family="Times,serif" font-size="14.00">LEADSYZ</text>
</g>
<!-- n4_port_4 -->
<g id="node48" class="node">
<title>n4_port_4</title>
<polygon fill="white" stroke="black" points="920.33,-365.67 962.98,-342.57 1005.64,-365.67 1005.6,-403.04 920.37,-403.04 920.33,-365.67"/>
<text text-anchor="middle" x="962.98" y="-379.8" font-family="Times,serif" font-size="14.00">OUT</text>
<text text-anchor="middle" x="962.98" y="-364.8" font-family="Times,serif" font-size="14.00">list</text>
</g>
<!-- n4_port_4&#45;&gt;n0_place_3 -->
<g id="edge19" class="edge">
<title>n4_port_4&#45;&gt;n0_place_3</title>
<path fill="none" stroke="black" d="M1005.66,-372.95C1039.46,-372.1 1087.9,-370.88 1128.21,-369.86"/>
<path fill="none" stroke="transparent" d="M1005.71,-374.95C1039.51,-374.1 1087.95,-372.87 1128.26,-371.86"/>
<path fill="none" stroke="black" d="M1005.76,-376.95C1039.56,-376.1 1088,-374.87 1128.31,-373.86"/>
<polygon fill="black" stroke="black" points="1128.41,-375.36 1138.31,-371.6 1128.23,-368.36 1128.41,-375.36"/>
</g>
<!-- n4_port_5 -->
<g id="node49" class="node">
<title>n4_port_5</title>
<polygon fill="white" stroke="black" points="900.87,-281.67 962.98,-258.57 1025.09,-281.67 1025.04,-319.04 900.93,-319.04 900.87,-281.67"/>
<text text-anchor="middle" x="962.98" y="-295.8" font-family="Times,serif" font-size="14.00">counter</text>
<text text-anchor="middle" x="962.98" y="-280.8" font-family="Times,serif" font-size="14.00">int</text>
</g>
<!-- n4_port_5&#45;&gt;n0_place_11 -->
<g id="edge18" class="edge">
<title>n4_port_5&#45;&gt;n0_place_11</title>
<path fill="none" stroke="black" d="M1025.27,-292C1051.27,-292 1082.11,-292 1110.69,-292"/>
<polygon fill="black" stroke="black" points="1110.7,-295.5 1120.7,-292 1110.7,-288.5 1110.7,-295.5"/>
</g>
<!-- n4_modcall -->
<g id="node50" class="node">
<title>n4_modcall</title>
<polygon fill="white" stroke="black" points="1064.48,-241 861.48,-241 861.48,-205 1064.48,-205 1064.48,-241"/>
<text text-anchor="middle" x="962.98" y="-219.3" font-family="Times,serif" font-size="14.00">singular_template.leadsyz</text>
</g>
<!-- n5_condition -->
<g id="node51" class="node">
<title>n5_condition</title>
<polygon fill="white" stroke="black" points="924.48,-1418 924.48,-1454 1001.48,-1454 1001.48,-1418 924.48,-1418"/>
<text text-anchor="middle" x="962.98" y="-1432.3" font-family="Times,serif" font-size="14.00">All_Lead</text>
</g>
<!-- n5_port_2 -->
<g id="node56" class="node">
<title>n5_port_2</title>
<polygon fill="white" stroke="black" points="893.89,-935.67 962.98,-912.57 1032.08,-935.67 1032.01,-973.04 893.95,-973.04 893.89,-935.67"/>
<text text-anchor="middle" x="962.98" y="-949.8" font-family="Times,serif" font-size="14.00">OUTPUT</text>
<text text-anchor="middle" x="962.98" y="-934.8" font-family="Times,serif" font-size="14.00">list</text>
</g>
<!-- n5_port_2&#45;&gt;n0_place_9 -->
<g id="edge25" class="edge">
<title>n5_port_2&#45;&gt;n0_place_9</title>
<path fill="none" stroke="black" d="M1032.18,-944C1055.48,-944 1081.98,-944 1107,-944"/>
<path fill="none" stroke="transparent" d="M1032.18,-946C1055.48,-946 1081.98,-946 1107,-946"/>
<path fill="none" stroke="black" d="M1032.18,-948C1055.48,-948 1081.98,-948 1107,-948"/>
<polygon fill="black" stroke="black" points="1107.25,-949.5 1117.25,-946 1107.25,-942.5 1107.25,-949.5"/>
</g>
<!-- n5_port_5 -->
<g id="node57" class="node">
<title>n5_port_5</title>
<polygon fill="white" stroke="black" points="900.87,-1019.67 962.98,-996.57 1025.09,-1019.67 1025.04,-1057.04 900.93,-1057.04 900.87,-1019.67"/>
<text text-anchor="middle" x="962.98" y="-1033.8" font-family="Times,serif" font-size="14.00">counter</text>
<text text-anchor="middle" x="962.98" y="-1018.8" font-family="Times,serif" font-size="14.00">int</text>
</g>
<!-- n5_port_5&#45;&gt;n0_place_0 -->
<g id="edge24" class="edge">
<title>n5_port_5&#45;&gt;n0_place_0</title>
<path fill="none" stroke="black" d="M1025.27,-1030C1046.24,-1030 1070.36,-1030 1093.91,-1030"/>
<polygon fill="black" stroke="black" points="1093.96,-1033.5 1103.96,-1030 1093.96,-1026.5 1093.96,-1033.5"/>
</g>
<!-- n5_modcall -->
<g id="node58" class="node">
<title>n5_modcall</title>
<polygon fill="white" stroke="black" points="1067.98,-895 857.98,-895 857.98,-859 1067.98,-859 1067.98,-895"/>
<text text-anchor="middle" x="962.98" y="-873.3" font-family="Times,serif" font-size="14.00">singular_template.All_Lead</text>
</g>
<!-- n6_condition -->
<g id="node59" class="node">
<title>n6_condition</title>
<polygon fill="white" stroke="black" points="397.99,-680 397.99,-716 465.99,-716 465.99,-680 397.99,-680"/>
<text text-anchor="middle" x="431.99" y="-694.3" font-family="Times,serif" font-size="14.00">Initiate</text>
</g>
<!-- n6_port_1 -->
<g id="node61" class="node">
<title>n6_port_1</title>
<polygon fill="white" stroke="black" points="376.11,-449.67 431.99,-426.57 487.87,-449.67 487.81,-487.04 376.17,-487.04 376.11,-449.67"/>
<text text-anchor="middle" x="431.99" y="-463.8" font-family="Times,serif" font-size="14.00">output</text>
<text text-anchor="middle" x="431.99" y="-448.8" font-family="Times,serif" font-size="14.00">string</text>
</g>
<!-- n6_port_1&#45;&gt;n0_place_4 -->
<g id="edge31" class="edge">
<title>n6_port_1&#45;&gt;n0_place_4</title>
<path fill="none" stroke="black" d="M487.94,-460C519.23,-460 559.37,-460 595.98,-460"/>
<polygon fill="black" stroke="black" points="596.2,-463.5 606.2,-460 596.2,-456.5 596.2,-463.5"/>
</g>
<!-- n6_port_2 -->
<g id="node62" class="node">
<title>n6_port_2</title>
<polygon fill="white" stroke="black" points="373.37,-533.67 431.99,-510.57 490.61,-533.67 490.56,-571.04 373.42,-571.04 373.37,-533.67"/>
<text text-anchor="middle" x="431.99" y="-547.8" font-family="Times,serif" font-size="14.00">c</text>
<text text-anchor="middle" x="431.99" y="-532.8" font-family="Times,serif" font-size="14.00">control</text>
</g>
<!-- n6_port_2&#45;&gt;n0_place_7 -->
<g id="edge30" class="edge">
<title>n6_port_2&#45;&gt;n0_place_7</title>
<path fill="none" stroke="black" d="M490.84,-544C525.02,-544 568.99,-544 607.38,-544"/>
<polygon fill="black" stroke="black" points="607.52,-547.5 617.52,-544 607.52,-540.5 607.52,-547.5"/>
</g>
<!-- n6_modcall -->
<g id="node63" class="node">
<title>n6_modcall</title>
<polygon fill="white" stroke="black" points="519.49,-409 344.49,-409 344.49,-373 519.49,-373 519.49,-409"/>
<text text-anchor="middle" x="431.99" y="-387.3" font-family="Times,serif" font-size="14.00">singular_template.Init</text>
</g>
</g>
</svg>
