<?xml version="1.0" encoding="UTF-8" standalone="no"?>
<!DOCTYPE svg PUBLIC "-//W3C//DTD SVG 1.1//EN"
 "http://www.w3.org/Graphics/SVG/1.1/DTD/svg11.dtd">
<!-- Generated by graphviz version 2.43.0 (0)
 -->
<!-- Title: template Pages: 1 -->
<svg width="1818pt" height="1624pt"
 viewBox="0.00 0.00 1818.07 1624.00" xmlns="http://www.w3.org/2000/svg" xmlns:xlink="http://www.w3.org/1999/xlink">
<g id="graph0" class="graph" transform="scale(1 1) rotate(0) translate(4 1620)">
<title>template</title>
<polygon fill="white" stroke="transparent" points="-4,4 -4,-1620 1814.07,-1620 1814.07,4 -4,4"/>
<g id="clust1" class="cluster">
<title>cluster_0</title>
<polygon fill="dimgray" stroke="black" points="8,-8 8,-1608 1802.07,-1608 1802.07,-8 8,-8"/>
</g>
<g id="clust2" class="cluster">
<title>cluster_net_0</title>
<polygon fill="white" stroke="black" points="147.14,-90 147.14,-1442 1794.07,-1442 1794.07,-90 147.14,-90"/>
</g>
<g id="clust3" class="cluster">
<title>cluster_1</title>
<polygon fill="yellow" stroke="black" points="1367.25,-118 1367.25,-814 1598.26,-814 1598.26,-118 1367.25,-118"/>
</g>
<g id="clust4" class="cluster">
<title>cluster_2</title>
<polygon fill="yellow" stroke="black" points="890,-750 890,-1362 1110.52,-1362 1110.52,-750 890,-750"/>
</g>
<g id="clust5" class="cluster">
<title>cluster_3</title>
<polygon fill="yellow" stroke="black" points="887.26,-130 887.26,-742 1113.26,-742 1113.26,-130 887.26,-130"/>
</g>
<g id="clust6" class="cluster">
<title>cluster_4</title>
<polygon fill="yellow" stroke="black" points="1367.25,-822 1367.25,-1434 1598.26,-1434 1598.26,-822 1367.25,-822"/>
</g>
<g id="clust7" class="cluster">
<title>cluster_5</title>
<polygon fill="yellow" stroke="black" points="341.53,-535 341.53,-895 579.53,-895 579.53,-535 341.53,-535"/>
</g>
<!-- n0_condition -->
<g id="node1" class="node">
<title>n0_condition</title>
<polygon fill="white" stroke="black" points="27.57,-1325 27.57,-1361 107.57,-1361 107.57,-1325 27.57,-1325"/>
<text text-anchor="middle" x="67.57" y="-1339.3" font-family="Times,serif" font-size="14.00">template</text>
</g>
<!-- n0_port_0 -->
<g id="node2" class="node">
<title>n0_port_0</title>
<polygon fill="white" stroke="black" points="562.55,-1577.33 460.53,-1600.43 358.5,-1577.33 358.6,-1539.96 562.46,-1539.96 562.55,-1577.33"/>
<text text-anchor="middle" x="460.53" y="-1570.8" font-family="Times,serif" font-size="14.00">base_filename</text>
<text text-anchor="middle" x="460.53" y="-1555.8" font-family="Times,serif" font-size="14.00">string</text>
</g>
<!-- n0_place_4 -->
<g id="node10" class="node">
<title>n0_place_4</title>
<ellipse fill="white" stroke="black" cx="733.39" cy="-1400" rx="113.69" ry="26.74"/>
<text text-anchor="middle" x="733.39" y="-1403.8" font-family="Times,serif" font-size="14.00">place_base_filename</text>
<text text-anchor="middle" x="733.39" y="-1388.8" font-family="Times,serif" font-size="14.00">string</text>
</g>
<!-- n0_port_0&#45;&gt;n0_place_4 -->
<g id="edge29" class="edge">
<title>n0_port_0&#45;&gt;n0_place_4</title>
<path fill="none" stroke="black" stroke-dasharray="1,5" d="M548.45,-1539.95C559.17,-1535.49 569.77,-1530.5 579.53,-1525 628.49,-1497.37 677.46,-1453.84 706.33,-1426.12"/>
</g>
<!-- n0_port_1 -->
<g id="node3" class="node">
<title>n0_port_1</title>
<polygon fill="white" stroke="black" points="556.81,-1493.33 460.53,-1516.43 364.24,-1493.33 364.33,-1455.96 556.73,-1455.96 556.81,-1493.33"/>
<text text-anchor="middle" x="460.53" y="-1486.8" font-family="Times,serif" font-size="14.00">library_name</text>
<text text-anchor="middle" x="460.53" y="-1471.8" font-family="Times,serif" font-size="14.00">string</text>
</g>
<!-- n0_place_6 -->
<g id="node12" class="node">
<title>n0_place_6</title>
<ellipse fill="white" stroke="black" cx="733.39" cy="-1328" rx="109.7" ry="26.74"/>
<text text-anchor="middle" x="733.39" y="-1331.8" font-family="Times,serif" font-size="14.00">place_library_name</text>
<text text-anchor="middle" x="733.39" y="-1316.8" font-family="Times,serif" font-size="14.00">string</text>
</g>
<!-- n0_port_1&#45;&gt;n0_place_6 -->
<g id="edge30" class="edge">
<title>n0_port_1&#45;&gt;n0_place_6</title>
<path fill="none" stroke="black" stroke-dasharray="1,5" d="M487.91,-1455.84C515.45,-1428.94 561.03,-1388.34 607.53,-1364 621.32,-1356.78 636.75,-1350.84 651.93,-1346.01"/>
</g>
<!-- n0_port_2 -->
<g id="node4" class="node">
<title>n0_port_2</title>
<polygon fill="white" stroke="black" points="119.2,-808.33 67.57,-831.43 15.93,-808.33 15.98,-770.96 119.16,-770.96 119.2,-808.33"/>
<text text-anchor="middle" x="67.57" y="-801.8" font-family="Times,serif" font-size="14.00">input</text>
<text text-anchor="middle" x="67.57" y="-786.8" font-family="Times,serif" font-size="14.00">string</text>
</g>
<!-- n0_place_0 -->
<g id="node6" class="node">
<title>n0_place_0</title>
<ellipse fill="white" stroke="black" cx="234.33" cy="-798" rx="79.39" ry="26.74"/>
<text text-anchor="middle" x="234.33" y="-801.8" font-family="Times,serif" font-size="14.00">place_initiate</text>
<text text-anchor="middle" x="234.33" y="-786.8" font-family="Times,serif" font-size="14.00">string</text>
</g>
<!-- n0_port_2&#45;&gt;n0_place_0 -->
<g id="edge31" class="edge">
<title>n0_port_2&#45;&gt;n0_place_0</title>
<path fill="none" stroke="black" stroke-dasharray="1,5" d="M119.35,-798C130.6,-798 142.78,-798 154.85,-798"/>
</g>
<!-- n0_port_3 -->
<g id="node5" class="node">
<title>n0_port_3</title>
<polygon fill="white" stroke="black" points="1413.66,-38.67 1482.75,-15.57 1551.85,-38.67 1551.79,-76.04 1413.72,-76.04 1413.66,-38.67"/>
<text text-anchor="middle" x="1482.75" y="-52.8" font-family="Times,serif" font-size="14.00">OUTPUT</text>
<text text-anchor="middle" x="1482.75" y="-37.8" font-family="Times,serif" font-size="14.00">string</text>
</g>
<!-- n0_place_9 -->
<g id="node15" class="node">
<title>n0_place_9</title>
<ellipse fill="white" stroke="black" cx="1706.16" cy="-169" rx="79.81" ry="26.74"/>
<text text-anchor="middle" x="1706.16" y="-172.8" font-family="Times,serif" font-size="14.00">place_SubLift</text>
<text text-anchor="middle" x="1706.16" y="-157.8" font-family="Times,serif" font-size="14.00">string</text>
</g>
<!-- n0_port_3&#45;&gt;n0_place_9 -->
<g id="edge32" class="edge">
<title>n0_port_3&#45;&gt;n0_place_9</title>
<path fill="none" stroke="black" stroke-dasharray="1,5" d="M1533.72,-76.08C1572.75,-97.23 1626.36,-126.29 1663.19,-146.25"/>
</g>
<!-- n5_port_1 -->
<g id="node52" class="node">
<title>n5_port_1</title>
<polygon fill="white" stroke="black" points="512.16,-808.33 460.53,-831.43 408.89,-808.33 408.94,-770.96 512.12,-770.96 512.16,-808.33"/>
<text text-anchor="middle" x="460.53" y="-801.8" font-family="Times,serif" font-size="14.00">input</text>
<text text-anchor="middle" x="460.53" y="-786.8" font-family="Times,serif" font-size="14.00">string</text>
</g>
<!-- n0_place_0&#45;&gt;n5_port_1 -->
<g id="edge28" class="edge">
<title>n0_place_0&#45;&gt;n5_port_1</title>
<path fill="none" stroke="black" d="M313.74,-798C341.61,-798 372.54,-798 398.72,-798"/>
<polygon fill="black" stroke="black" points="398.87,-801.5 408.87,-798 398.87,-794.5 398.87,-801.5"/>
</g>
<!-- n0_place_1 -->
<g id="node7" class="node">
<title>n0_place_1</title>
<ellipse fill="white" stroke="black" cx="1240.25" cy="-845" rx="82.05" ry="26.74"/>
<text text-anchor="middle" x="1240.25" y="-848.8" font-family="Times,serif" font-size="14.00">place_counter</text>
<text text-anchor="middle" x="1240.25" y="-833.8" font-family="Times,serif" font-size="14.00">int</text>
</g>
<!-- n0_place_2 -->
<g id="node8" class="node">
<title>n0_place_2</title>
<ellipse fill="white" stroke="black" cx="733.39" cy="-906" rx="78.48" ry="26.74"/>
<text text-anchor="middle" x="733.39" y="-909.8" font-family="Times,serif" font-size="14.00">place_control</text>
<text text-anchor="middle" x="733.39" y="-894.8" font-family="Times,serif" font-size="14.00">control</text>
</g>
<!-- n2_port_3 -->
<g id="node31" class="node">
<title>n2_port_3</title>
<polygon fill="white" stroke="black" points="1058.88,-1107.33 1000.26,-1130.43 941.64,-1107.33 941.69,-1069.96 1058.82,-1069.96 1058.88,-1107.33"/>
<text text-anchor="middle" x="1000.26" y="-1100.8" font-family="Times,serif" font-size="14.00">s</text>
<text text-anchor="middle" x="1000.26" y="-1085.8" font-family="Times,serif" font-size="14.00">control</text>
</g>
<!-- n0_place_2&#45;&gt;n2_port_3 -->
<g id="edge10" class="edge">
<title>n0_place_2&#45;&gt;n2_port_3</title>
<path fill="none" stroke="black" d="M755.11,-931.99C782.35,-964.67 833.13,-1020.64 887.26,-1055 900.98,-1063.71 916.78,-1071.02 932.1,-1076.97"/>
<polygon fill="black" stroke="black" points="930.96,-1080.28 941.56,-1080.5 933.41,-1073.73 930.96,-1080.28"/>
</g>
<!-- n0_place_3 -->
<g id="node9" class="node">
<title>n0_place_3</title>
<ellipse fill="white" stroke="black" cx="733.39" cy="-393" rx="89.61" ry="26.74"/>
<text text-anchor="middle" x="733.39" y="-396.8" font-family="Times,serif" font-size="14.00">place_input_GB</text>
<text text-anchor="middle" x="733.39" y="-381.8" font-family="Times,serif" font-size="14.00">string</text>
</g>
<!-- n1_port_6 -->
<g id="node23" class="node">
<title>n1_port_6</title>
<polygon fill="white" stroke="black" points="1570.06,-391.33 1482.75,-414.43 1395.45,-391.33 1395.53,-353.96 1569.98,-353.96 1570.06,-391.33"/>
<text text-anchor="middle" x="1482.75" y="-384.8" font-family="Times,serif" font-size="14.00">input_name</text>
<text text-anchor="middle" x="1482.75" y="-369.8" font-family="Times,serif" font-size="14.00">string</text>
</g>
<!-- n0_place_3&#45;&gt;n1_port_6 -->
<g id="edge4" class="edge">
<title>n0_place_3&#45;&gt;n1_port_6</title>
<path fill="none" stroke="black" stroke-dasharray="5,2" d="M739.69,-366C752.78,-307.53 792.69,-170.02 887.26,-114 1060.09,-11.62 1188.69,18.99 1339.25,-114 1414.78,-180.71 1304.55,-260.11 1367.25,-339 1372.65,-345.79 1379.25,-351.48 1386.53,-356.26"/>
<polygon fill="black" stroke="black" points="1384.97,-359.4 1395.36,-361.45 1388.52,-353.36 1384.97,-359.4"/>
</g>
<!-- n2_port_2 -->
<g id="node30" class="node">
<title>n2_port_2</title>
<polygon fill="white" stroke="black" points="1051.89,-1023.33 1000.26,-1046.43 948.62,-1023.33 948.67,-985.96 1051.85,-985.96 1051.89,-1023.33"/>
<text text-anchor="middle" x="1000.26" y="-1016.8" font-family="Times,serif" font-size="14.00">input</text>
<text text-anchor="middle" x="1000.26" y="-1001.8" font-family="Times,serif" font-size="14.00">string</text>
</g>
<!-- n0_place_3&#45;&gt;n2_port_2 -->
<g id="edge11" class="edge">
<title>n0_place_3&#45;&gt;n2_port_2</title>
<path fill="none" stroke="black" stroke-dasharray="5,2" d="M817.04,-402.82C833.34,-408.57 848.65,-417.43 859.26,-431 933.27,-525.66 816.28,-874.04 887.26,-971 899.48,-987.7 919.16,-997.76 938.64,-1003.82"/>
<polygon fill="black" stroke="black" points="937.89,-1007.25 948.46,-1006.57 939.77,-1000.51 937.89,-1007.25"/>
</g>
<!-- n3_port_4 -->
<g id="node39" class="node">
<title>n3_port_4</title>
<polygon fill="white" stroke="black" points="1051.89,-403.33 1000.26,-426.43 948.62,-403.33 948.67,-365.96 1051.85,-365.96 1051.89,-403.33"/>
<text text-anchor="middle" x="1000.26" y="-396.8" font-family="Times,serif" font-size="14.00">init</text>
<text text-anchor="middle" x="1000.26" y="-381.8" font-family="Times,serif" font-size="14.00">string</text>
</g>
<!-- n0_place_3&#45;&gt;n3_port_4 -->
<g id="edge17" class="edge">
<title>n0_place_3&#45;&gt;n3_port_4</title>
<path fill="none" stroke="black" stroke-dasharray="5,2" d="M823.33,-393C861.05,-393 904.08,-393 938.13,-393"/>
<polygon fill="black" stroke="black" points="938.4,-396.5 948.4,-393 938.4,-389.5 938.4,-396.5"/>
</g>
<!-- n4_port_5 -->
<g id="node48" class="node">
<title>n4_port_5</title>
<polygon fill="white" stroke="black" points="1570.06,-1011.33 1482.75,-1034.43 1395.45,-1011.33 1395.53,-973.96 1569.98,-973.96 1570.06,-1011.33"/>
<text text-anchor="middle" x="1482.75" y="-1004.8" font-family="Times,serif" font-size="14.00">input_name</text>
<text text-anchor="middle" x="1482.75" y="-989.8" font-family="Times,serif" font-size="14.00">string</text>
</g>
<!-- n0_place_3&#45;&gt;n4_port_5 -->
<g id="edge23" class="edge">
<title>n0_place_3&#45;&gt;n4_port_5</title>
<path fill="none" stroke="black" stroke-dasharray="5,2" d="M740.39,-365.83C754.56,-309.1 795.99,-178.91 887.26,-126 974.99,-75.13 1276.46,-109.36 1339.25,-189 1392.25,-256.23 1316.96,-889.71 1367.25,-959 1372.48,-966.21 1379.08,-972.18 1386.46,-977.13"/>
<polygon fill="black" stroke="black" points="1385.06,-980.37 1395.44,-982.48 1388.64,-974.35 1385.06,-980.37"/>
</g>
<!-- n1_port_2 -->
<g id="node20" class="node">
<title>n1_port_2</title>
<polygon fill="white" stroke="black" points="1584.78,-727.33 1482.75,-750.43 1380.73,-727.33 1380.82,-689.96 1584.68,-689.96 1584.78,-727.33"/>
<text text-anchor="middle" x="1482.75" y="-720.8" font-family="Times,serif" font-size="14.00">base_filename</text>
<text text-anchor="middle" x="1482.75" y="-705.8" font-family="Times,serif" font-size="14.00">string</text>
</g>
<!-- n0_place_4&#45;&gt;n1_port_2 -->
<g id="edge5" class="edge">
<title>n0_place_4&#45;&gt;n1_port_2</title>
<path fill="none" stroke="black" stroke-dasharray="5,2" d="M845.53,-1404.86C1010.62,-1410.9 1304.98,-1416.7 1339.25,-1383 1388.65,-1334.42 1326.52,-816.06 1367.25,-760 1374.27,-750.34 1383.73,-742.84 1394.23,-737.03"/>
<polygon fill="black" stroke="black" points="1395.86,-740.13 1403.25,-732.54 1392.74,-733.86 1395.86,-740.13"/>
</g>
<!-- n2_port_1 -->
<g id="node29" class="node">
<title>n2_port_1</title>
<polygon fill="white" stroke="black" points="1102.28,-1275.33 1000.26,-1298.43 898.23,-1275.33 898.33,-1237.96 1102.19,-1237.96 1102.28,-1275.33"/>
<text text-anchor="middle" x="1000.26" y="-1268.8" font-family="Times,serif" font-size="14.00">base_filename</text>
<text text-anchor="middle" x="1000.26" y="-1253.8" font-family="Times,serif" font-size="14.00">string</text>
</g>
<!-- n0_place_4&#45;&gt;n2_port_1 -->
<g id="edge12" class="edge">
<title>n0_place_4&#45;&gt;n2_port_1</title>
<path fill="none" stroke="black" stroke-dasharray="5,2" d="M824.56,-1383.85C837.08,-1378.9 849.11,-1372.44 859.26,-1364 880.65,-1346.2 866.65,-1326.7 887.26,-1308 896.91,-1299.24 908.53,-1292.2 920.58,-1286.55"/>
<polygon fill="black" stroke="black" points="922.09,-1289.71 929.86,-1282.5 919.29,-1283.3 922.09,-1289.71"/>
</g>
<!-- n3_port_1 -->
<g id="node37" class="node">
<title>n3_port_1</title>
<polygon fill="white" stroke="black" points="1102.28,-655.33 1000.26,-678.43 898.23,-655.33 898.33,-617.96 1102.19,-617.96 1102.28,-655.33"/>
<text text-anchor="middle" x="1000.26" y="-648.8" font-family="Times,serif" font-size="14.00">base_filename</text>
<text text-anchor="middle" x="1000.26" y="-633.8" font-family="Times,serif" font-size="14.00">string</text>
</g>
<!-- n0_place_4&#45;&gt;n3_port_1 -->
<g id="edge18" class="edge">
<title>n0_place_4&#45;&gt;n3_port_1</title>
<path fill="none" stroke="black" stroke-dasharray="5,2" d="M830.88,-1386.03C841.83,-1380.72 851.73,-1373.58 859.26,-1364 905.69,-1304.88 843.41,-749.06 887.26,-688 894.02,-678.58 903.15,-671.22 913.28,-665.48"/>
<polygon fill="black" stroke="black" points="915.08,-668.49 922.41,-660.83 911.91,-662.25 915.08,-668.49"/>
</g>
<!-- n4_port_1 -->
<g id="node45" class="node">
<title>n4_port_1</title>
<polygon fill="white" stroke="black" points="1584.78,-1347.33 1482.75,-1370.43 1380.73,-1347.33 1380.82,-1309.96 1584.68,-1309.96 1584.78,-1347.33"/>
<text text-anchor="middle" x="1482.75" y="-1340.8" font-family="Times,serif" font-size="14.00">base_filename</text>
<text text-anchor="middle" x="1482.75" y="-1325.8" font-family="Times,serif" font-size="14.00">string</text>
</g>
<!-- n0_place_4&#45;&gt;n4_port_1 -->
<g id="edge24" class="edge">
<title>n0_place_4&#45;&gt;n4_port_1</title>
<path fill="none" stroke="black" stroke-dasharray="5,2" d="M801.51,-1421.72C918.1,-1455.34 1162.5,-1507.31 1339.25,-1418 1357.97,-1408.54 1350.52,-1392.65 1367.25,-1380 1378.42,-1371.55 1391.45,-1364.6 1404.62,-1358.93"/>
<polygon fill="black" stroke="black" points="1406.27,-1362.04 1414.21,-1355.03 1403.63,-1355.56 1406.27,-1362.04"/>
</g>
<!-- n0_place_5 -->
<g id="node11" class="node">
<title>n0_place_5</title>
<ellipse fill="white" stroke="black" cx="1240.25" cy="-1347" rx="64.19" ry="26.74"/>
<text text-anchor="middle" x="1240.25" y="-1350.8" font-family="Times,serif" font-size="14.00">place_lead</text>
<text text-anchor="middle" x="1240.25" y="-1335.8" font-family="Times,serif" font-size="14.00">string</text>
</g>
<!-- n4_port_2 -->
<g id="node46" class="node">
<title>n4_port_2</title>
<polygon fill="white" stroke="black" points="1534.39,-1179.33 1482.75,-1202.43 1431.12,-1179.33 1431.17,-1141.96 1534.34,-1141.96 1534.39,-1179.33"/>
<text text-anchor="middle" x="1482.75" y="-1172.8" font-family="Times,serif" font-size="14.00">lead</text>
<text text-anchor="middle" x="1482.75" y="-1157.8" font-family="Times,serif" font-size="14.00">string</text>
</g>
<!-- n0_place_5&#45;&gt;n4_port_2 -->
<g id="edge21" class="edge">
<title>n0_place_5&#45;&gt;n4_port_2</title>
<path fill="none" stroke="black" d="M1296.44,-1333.64C1312.09,-1327.49 1327.93,-1318.64 1339.25,-1306 1368.62,-1273.22 1337.15,-1243.12 1367.25,-1211 1381.49,-1195.8 1401.7,-1186.08 1421.18,-1179.87"/>
<polygon fill="black" stroke="black" points="1422.34,-1183.18 1430.96,-1177.02 1420.38,-1176.46 1422.34,-1183.18"/>
</g>
<!-- n1_port_0 -->
<g id="node19" class="node">
<title>n1_port_0</title>
<polygon fill="white" stroke="black" points="1590.27,-643.33 1482.75,-666.43 1375.24,-643.33 1375.34,-605.96 1590.17,-605.96 1590.27,-643.33"/>
<text text-anchor="middle" x="1482.75" y="-636.8" font-family="Times,serif" font-size="14.00">needed_library</text>
<text text-anchor="middle" x="1482.75" y="-621.8" font-family="Times,serif" font-size="14.00">string</text>
</g>
<!-- n0_place_6&#45;&gt;n1_port_0 -->
<g id="edge7" class="edge">
<title>n0_place_6&#45;&gt;n1_port_0</title>
<path fill="none" stroke="black" stroke-dasharray="5,2" d="M802.97,-1348.83C829.09,-1355.76 859.3,-1362.58 887.26,-1366 986.96,-1378.21 1028.55,-1419.98 1113.26,-1366 1119.52,-1362.01 1337.15,-888.13 1339.25,-881 1365.28,-792.34 1309.35,-747.01 1367.25,-675 1374.33,-666.19 1383.43,-659.23 1393.41,-653.73"/>
<polygon fill="black" stroke="black" points="1394.99,-656.86 1402.37,-649.26 1391.86,-650.59 1394.99,-656.86"/>
</g>
<!-- n2_port_0 -->
<g id="node28" class="node">
<title>n2_port_0</title>
<polygon fill="white" stroke="black" points="1096.54,-1191.33 1000.26,-1214.43 903.97,-1191.33 904.06,-1153.96 1096.46,-1153.96 1096.54,-1191.33"/>
<text text-anchor="middle" x="1000.26" y="-1184.8" font-family="Times,serif" font-size="14.00">library_name</text>
<text text-anchor="middle" x="1000.26" y="-1169.8" font-family="Times,serif" font-size="14.00">string</text>
</g>
<!-- n0_place_6&#45;&gt;n2_port_0 -->
<g id="edge13" class="edge">
<title>n0_place_6&#45;&gt;n2_port_0</title>
<path fill="none" stroke="black" stroke-dasharray="5,2" d="M766.92,-1302.19C796.9,-1279.25 843.29,-1245.91 887.26,-1223 900.93,-1215.88 916.09,-1209.35 930.73,-1203.68"/>
<polygon fill="black" stroke="black" points="932.14,-1206.89 940.25,-1200.08 929.66,-1200.34 932.14,-1206.89"/>
</g>
<!-- n3_port_0 -->
<g id="node36" class="node">
<title>n3_port_0</title>
<polygon fill="white" stroke="black" points="1096.54,-571.33 1000.26,-594.43 903.97,-571.33 904.06,-533.96 1096.46,-533.96 1096.54,-571.33"/>
<text text-anchor="middle" x="1000.26" y="-564.8" font-family="Times,serif" font-size="14.00">library_name</text>
<text text-anchor="middle" x="1000.26" y="-549.8" font-family="Times,serif" font-size="14.00">string</text>
</g>
<!-- n0_place_6&#45;&gt;n3_port_0 -->
<g id="edge19" class="edge">
<title>n0_place_6&#45;&gt;n3_port_0</title>
<path fill="none" stroke="black" stroke-dasharray="5,2" d="M745.54,-1300.96C770.64,-1238.81 831.53,-1080.47 859.26,-942 874.1,-867.88 841.68,-663.3 887.26,-603 894.4,-593.55 903.92,-586.23 914.4,-580.55"/>
<polygon fill="black" stroke="black" points="915.95,-583.69 923.4,-576.16 912.88,-577.4 915.95,-583.69"/>
</g>
<!-- n4_port_0 -->
<g id="node44" class="node">
<title>n4_port_0</title>
<polygon fill="white" stroke="black" points="1590.27,-1263.33 1482.75,-1286.43 1375.24,-1263.33 1375.34,-1225.96 1590.17,-1225.96 1590.27,-1263.33"/>
<text text-anchor="middle" x="1482.75" y="-1256.8" font-family="Times,serif" font-size="14.00">needed_library</text>
<text text-anchor="middle" x="1482.75" y="-1241.8" font-family="Times,serif" font-size="14.00">string</text>
</g>
<!-- n0_place_6&#45;&gt;n4_port_0 -->
<g id="edge25" class="edge">
<title>n0_place_6&#45;&gt;n4_port_0</title>
<path fill="none" stroke="black" stroke-dasharray="5,2" d="M809.75,-1347.31C826.25,-1352.21 843.5,-1357.85 859.26,-1364 872.22,-1369.06 873.75,-1374.67 887.26,-1378 984.79,-1402.04 1258.16,-1442.29 1339.25,-1383 1372.38,-1358.77 1338.86,-1324.65 1367.25,-1295 1375.43,-1286.46 1385.49,-1279.64 1396.22,-1274.21"/>
<polygon fill="black" stroke="black" points="1397.77,-1277.35 1405.37,-1269.96 1394.83,-1271 1397.77,-1277.35"/>
</g>
<!-- n0_place_7 -->
<g id="node13" class="node">
<title>n0_place_7</title>
<ellipse fill="white" stroke="black" cx="1240.25" cy="-549" rx="85.62" ry="26.74"/>
<text text-anchor="middle" x="1240.25" y="-552.8" font-family="Times,serif" font-size="14.00">place_All_Lead</text>
<text text-anchor="middle" x="1240.25" y="-537.8" font-family="Times,serif" font-size="14.00">string</text>
</g>
<!-- n1_port_4 -->
<g id="node21" class="node">
<title>n1_port_4</title>
<polygon fill="white" stroke="black" points="1544.87,-559.33 1482.75,-582.43 1420.64,-559.33 1420.7,-521.96 1544.81,-521.96 1544.87,-559.33"/>
<text text-anchor="middle" x="1482.75" y="-552.8" font-family="Times,serif" font-size="14.00">all_lead</text>
<text text-anchor="middle" x="1482.75" y="-537.8" font-family="Times,serif" font-size="14.00">string</text>
</g>
<!-- n0_place_7&#45;&gt;n1_port_4 -->
<g id="edge3" class="edge">
<title>n0_place_7&#45;&gt;n1_port_4</title>
<path fill="none" stroke="black" stroke-dasharray="5,2" d="M1326.04,-549C1353.5,-549 1383.67,-549 1410.08,-549"/>
<polygon fill="black" stroke="black" points="1410.39,-552.5 1420.39,-549 1410.39,-545.5 1410.39,-552.5"/>
</g>
<!-- n4_port_4 -->
<g id="node47" class="node">
<title>n4_port_4</title>
<polygon fill="white" stroke="black" points="1544.87,-1095.33 1482.75,-1118.43 1420.64,-1095.33 1420.7,-1057.96 1544.81,-1057.96 1544.87,-1095.33"/>
<text text-anchor="middle" x="1482.75" y="-1088.8" font-family="Times,serif" font-size="14.00">all_lead</text>
<text text-anchor="middle" x="1482.75" y="-1073.8" font-family="Times,serif" font-size="14.00">string</text>
</g>
<!-- n0_place_7&#45;&gt;n4_port_4 -->
<g id="edge22" class="edge">
<title>n0_place_7&#45;&gt;n4_port_4</title>
<path fill="none" stroke="black" stroke-dasharray="5,2" d="M1253.76,-575.64C1274.96,-621.98 1317.71,-720.91 1339.25,-809 1351.68,-859.87 1334.76,-1001.92 1367.25,-1043 1378.23,-1056.88 1394.25,-1066.18 1410.84,-1072.4"/>
<polygon fill="black" stroke="black" points="1410.05,-1075.83 1420.65,-1075.72 1412.3,-1069.2 1410.05,-1075.83"/>
</g>
<!-- n0_place_8 -->
<g id="node14" class="node">
<title>n0_place_8</title>
<ellipse fill="white" stroke="black" cx="1706.16" cy="-465" rx="60.62" ry="26.74"/>
<text text-anchor="middle" x="1706.16" y="-468.8" font-family="Times,serif" font-size="14.00">place_Tau</text>
<text text-anchor="middle" x="1706.16" y="-453.8" font-family="Times,serif" font-size="14.00">string</text>
</g>
<!-- n1_port_5 -->
<g id="node22" class="node">
<title>n1_port_5</title>
<polygon fill="white" stroke="black" points="1558.09,-307.33 1482.75,-330.43 1407.42,-307.33 1407.49,-269.96 1558.02,-269.96 1558.09,-307.33"/>
<text text-anchor="middle" x="1482.75" y="-300.8" font-family="Times,serif" font-size="14.00">place_Tau</text>
<text text-anchor="middle" x="1482.75" y="-285.8" font-family="Times,serif" font-size="14.00">string</text>
</g>
<!-- n0_place_8&#45;&gt;n1_port_5 -->
<g id="edge6" class="edge">
<title>n0_place_8&#45;&gt;n1_port_5</title>
<path fill="none" stroke="black" d="M1689.12,-439.08C1670.46,-410.87 1637.19,-366.17 1598.26,-339 1584.53,-329.42 1568.35,-321.74 1552.55,-315.72"/>
<polygon fill="black" stroke="black" points="1553.38,-312.3 1542.79,-312.18 1551,-318.88 1553.38,-312.3"/>
</g>
<!-- n0_place_10 -->
<g id="node16" class="node">
<title>n0_place_10</title>
<ellipse fill="white" stroke="black" cx="733.39" cy="-477" rx="125.73" ry="37.45"/>
<text text-anchor="middle" x="733.39" y="-488.3" font-family="Times,serif" font-size="14.00">place_control_All_Lead</text>
<text text-anchor="middle" x="733.39" y="-473.3" font-family="Times,serif" font-size="14.00">control</text>
<text text-anchor="middle" x="733.39" y="-458.3" font-family="Times,serif" font-size="14.00">[]</text>
</g>
<!-- n3_port_3 -->
<g id="node38" class="node">
<title>n3_port_3</title>
<polygon fill="white" stroke="black" points="1058.88,-487.33 1000.26,-510.43 941.64,-487.33 941.69,-449.96 1058.82,-449.96 1058.88,-487.33"/>
<text text-anchor="middle" x="1000.26" y="-480.8" font-family="Times,serif" font-size="14.00">C</text>
<text text-anchor="middle" x="1000.26" y="-465.8" font-family="Times,serif" font-size="14.00">control</text>
</g>
<!-- n0_place_10&#45;&gt;n3_port_3 -->
<g id="edge16" class="edge">
<title>n0_place_10&#45;&gt;n3_port_3</title>
<path fill="none" stroke="black" d="M859.46,-477C884.2,-477 909.29,-477 931.25,-477"/>
<polygon fill="black" stroke="black" points="931.44,-480.5 941.44,-477 931.44,-473.5 931.44,-480.5"/>
</g>
<!-- n0_place_11 -->
<g id="node17" class="node">
<title>n0_place_11</title>
<ellipse fill="white" stroke="black" cx="1240.25" cy="-225" rx="98.99" ry="26.74"/>
<text text-anchor="middle" x="1240.25" y="-228.8" font-family="Times,serif" font-size="14.00">place_length_Res</text>
<text text-anchor="middle" x="1240.25" y="-213.8" font-family="Times,serif" font-size="14.00">int</text>
</g>
<!-- n1_condition -->
<g id="node18" class="node">
<title>n1_condition</title>
<polygon fill="white" stroke="black" points="1444.25,-769 1444.25,-805 1521.25,-805 1521.25,-769 1444.25,-769"/>
<text text-anchor="middle" x="1482.75" y="-783.3" font-family="Times,serif" font-size="14.00">SubLIFT</text>
</g>
<!-- n1_port_1 -->
<g id="node24" class="node">
<title>n1_port_1</title>
<polygon fill="white" stroke="black" points="1410.91,-202.67 1482.75,-179.57 1554.6,-202.67 1554.53,-240.04 1410.98,-240.04 1410.91,-202.67"/>
<text text-anchor="middle" x="1482.75" y="-216.8" font-family="Times,serif" font-size="14.00">SUBLIFT</text>
<text text-anchor="middle" x="1482.75" y="-201.8" font-family="Times,serif" font-size="14.00">string</text>
</g>
<!-- n1_port_1&#45;&gt;n0_place_9 -->
<g id="edge1" class="edge">
<title>n1_port_1&#45;&gt;n0_place_9</title>
<path fill="none" stroke="black" d="M1547.5,-200.33C1572.31,-195.4 1600.98,-189.7 1627.01,-184.53"/>
<polygon fill="black" stroke="black" points="1627.72,-187.96 1636.85,-182.58 1626.35,-181.09 1627.72,-187.96"/>
</g>
<!-- n1_port_3 -->
<g id="node25" class="node">
<title>n1_port_3</title>
<polygon fill="white" stroke="black" points="1438.85,-454.67 1482.75,-431.57 1526.66,-454.67 1526.62,-492.04 1438.89,-492.04 1438.85,-454.67"/>
<text text-anchor="middle" x="1482.75" y="-468.8" font-family="Times,serif" font-size="14.00">LIFT</text>
<text text-anchor="middle" x="1482.75" y="-453.8" font-family="Times,serif" font-size="14.00">list</text>
</g>
<!-- n1_port_3&#45;&gt;n0_place_8 -->
<g id="edge2" class="edge">
<title>n1_port_3&#45;&gt;n0_place_8</title>
<path fill="none" stroke="black" d="M1526.71,-463C1557.38,-463 1599.33,-463 1634.85,-463"/>
<path fill="none" stroke="transparent" d="M1526.71,-465C1557.38,-465 1599.33,-465 1634.85,-465"/>
<path fill="none" stroke="black" d="M1526.71,-467C1557.38,-467 1599.33,-467 1634.85,-467"/>
<polygon fill="black" stroke="black" points="1635.17,-468.5 1645.17,-465 1635.17,-461.5 1635.17,-468.5"/>
</g>
<!-- n1_modcall -->
<g id="node26" class="node">
<title>n1_modcall</title>
<polygon fill="white" stroke="black" points="1590.25,-162 1375.25,-162 1375.25,-126 1590.25,-126 1590.25,-162"/>
<text text-anchor="middle" x="1482.75" y="-140.3" font-family="Times,serif" font-size="14.00">singular_template.SUBLIFT</text>
</g>
<!-- n2_condition -->
<g id="node27" class="node">
<title>n2_condition</title>
<polygon fill="white" stroke="black" points="957.26,-1317 957.26,-1353 1043.26,-1353 1043.26,-1317 957.26,-1317"/>
<text text-anchor="middle" x="1000.26" y="-1331.3" font-family="Times,serif" font-size="14.00">LEADSYZ</text>
</g>
<!-- n2_port_4 -->
<g id="node32" class="node">
<title>n2_port_4</title>
<polygon fill="white" stroke="black" points="957.6,-918.67 1000.26,-895.57 1042.91,-918.67 1042.87,-956.04 957.64,-956.04 957.6,-918.67"/>
<text text-anchor="middle" x="1000.26" y="-932.8" font-family="Times,serif" font-size="14.00">OUT</text>
<text text-anchor="middle" x="1000.26" y="-917.8" font-family="Times,serif" font-size="14.00">list</text>
</g>
<!-- n2_port_4&#45;&gt;n0_place_5 -->
<g id="edge9" class="edge">
<title>n2_port_4&#45;&gt;n0_place_5</title>
<path fill="none" stroke="black" d="M1043.61,-933.65C1067.28,-939.42 1095.43,-949.93 1114.7,-969.61 1208.43,-1067.26 1232.75,-1234.76 1239.07,-1309.31"/>
<path fill="none" stroke="transparent" d="M1043.14,-935.59C1066.58,-941.29 1094.73,-951.8 1113.26,-971 1206.45,-1067.55 1230.77,-1235.05 1237.07,-1309.48"/>
<path fill="none" stroke="black" d="M1042.67,-937.53C1065.88,-943.17 1094.03,-953.67 1111.82,-972.39 1204.47,-1067.84 1228.79,-1235.33 1235.08,-1309.65"/>
<polygon fill="black" stroke="black" points="1233.61,-1310.07 1237.88,-1319.77 1240.59,-1309.53 1233.61,-1310.07"/>
</g>
<!-- n2_port_5 -->
<g id="node33" class="node">
<title>n2_port_5</title>
<polygon fill="white" stroke="black" points="938.15,-834.67 1000.26,-811.57 1062.37,-834.67 1062.31,-872.04 938.2,-872.04 938.15,-834.67"/>
<text text-anchor="middle" x="1000.26" y="-848.8" font-family="Times,serif" font-size="14.00">counter</text>
<text text-anchor="middle" x="1000.26" y="-833.8" font-family="Times,serif" font-size="14.00">int</text>
</g>
<!-- n2_port_5&#45;&gt;n0_place_1 -->
<g id="edge8" class="edge">
<title>n2_port_5&#45;&gt;n0_place_1</title>
<path fill="none" stroke="black" d="M1062.55,-845C1088.54,-845 1119.39,-845 1147.97,-845"/>
<polygon fill="black" stroke="black" points="1147.98,-848.5 1157.97,-845 1147.97,-841.5 1147.98,-848.5"/>
</g>
<!-- n2_modcall -->
<g id="node34" class="node">
<title>n2_modcall</title>
<polygon fill="white" stroke="black" points="1101.76,-794 898.76,-794 898.76,-758 1101.76,-758 1101.76,-794"/>
<text text-anchor="middle" x="1000.26" y="-772.3" font-family="Times,serif" font-size="14.00">singular_template.leadsyz</text>
</g>
<!-- n3_condition -->
<g id="node35" class="node">
<title>n3_condition</title>
<polygon fill="white" stroke="black" points="961.76,-697 961.76,-733 1038.76,-733 1038.76,-697 961.76,-697"/>
<text text-anchor="middle" x="1000.26" y="-711.3" font-family="Times,serif" font-size="14.00">All_Lead</text>
</g>
<!-- n3_port_2 -->
<g id="node40" class="node">
<title>n3_port_2</title>
<polygon fill="white" stroke="black" points="931.16,-298.67 1000.26,-275.57 1069.35,-298.67 1069.29,-336.04 931.23,-336.04 931.16,-298.67"/>
<text text-anchor="middle" x="1000.26" y="-312.8" font-family="Times,serif" font-size="14.00">OUTPUT</text>
<text text-anchor="middle" x="1000.26" y="-297.8" font-family="Times,serif" font-size="14.00">list</text>
</g>
<!-- n3_port_2&#45;&gt;n0_place_7 -->
<g id="edge15" class="edge">
<title>n3_port_2&#45;&gt;n0_place_7</title>
<path fill="none" stroke="black" d="M1070.3,-324.79C1085.88,-330.93 1101.43,-338.89 1114.52,-349.45 1169.17,-393.99 1207.21,-467.62 1226.56,-511.77"/>
<path fill="none" stroke="transparent" d="M1069.57,-326.65C1084.97,-332.71 1100.52,-340.67 1113.26,-351 1167.39,-394.9 1205.44,-468.54 1224.72,-512.57"/>
<path fill="none" stroke="black" d="M1068.84,-328.51C1084.06,-334.49 1099.6,-342.45 1112,-352.55 1165.61,-395.82 1203.66,-469.46 1222.89,-513.38"/>
<polygon fill="black" stroke="black" points="1221.62,-514.22 1228.78,-522.03 1228.05,-511.46 1221.62,-514.22"/>
</g>
<!-- n3_port_5 -->
<g id="node41" class="node">
<title>n3_port_5</title>
<polygon fill="white" stroke="black" points="938.15,-214.67 1000.26,-191.57 1062.37,-214.67 1062.31,-252.04 938.2,-252.04 938.15,-214.67"/>
<text text-anchor="middle" x="1000.26" y="-228.8" font-family="Times,serif" font-size="14.00">counter</text>
<text text-anchor="middle" x="1000.26" y="-213.8" font-family="Times,serif" font-size="14.00">int</text>
</g>
<!-- n3_port_5&#45;&gt;n0_place_11 -->
<g id="edge14" class="edge">
<title>n3_port_5&#45;&gt;n0_place_11</title>
<path fill="none" stroke="black" d="M1062.55,-225C1083.52,-225 1107.64,-225 1131.19,-225"/>
<polygon fill="black" stroke="black" points="1131.23,-228.5 1141.23,-225 1131.23,-221.5 1131.23,-228.5"/>
</g>
<!-- n3_modcall -->
<g id="node42" class="node">
<title>n3_modcall</title>
<polygon fill="white" stroke="black" points="1105.26,-174 895.26,-174 895.26,-138 1105.26,-138 1105.26,-174"/>
<text text-anchor="middle" x="1000.26" y="-152.3" font-family="Times,serif" font-size="14.00">singular_template.All_Lead</text>
</g>
<!-- n4_condition -->
<g id="node43" class="node">
<title>n4_condition</title>
<polygon fill="white" stroke="black" points="1455.75,-1389 1455.75,-1425 1509.75,-1425 1509.75,-1389 1455.75,-1389"/>
<text text-anchor="middle" x="1482.75" y="-1403.3" font-family="Times,serif" font-size="14.00">LIFT</text>
</g>
<!-- n4_port_3 -->
<g id="node49" class="node">
<title>n4_port_3</title>
<polygon fill="white" stroke="black" points="1438.85,-906.67 1482.75,-883.57 1526.66,-906.67 1526.62,-944.04 1438.89,-944.04 1438.85,-906.67"/>
<text text-anchor="middle" x="1482.75" y="-920.8" font-family="Times,serif" font-size="14.00">LIFT</text>
<text text-anchor="middle" x="1482.75" y="-905.8" font-family="Times,serif" font-size="14.00">list</text>
</g>
<!-- n4_port_3&#45;&gt;n0_place_8 -->
<g id="edge20" class="edge">
<title>n4_port_3&#45;&gt;n0_place_8</title>
<path fill="none" stroke="black" d="M1526.06,-909.29C1550.06,-903.93 1579.15,-893.42 1596.78,-873.66 1646.7,-819.14 1684.63,-591.91 1697.97,-501.81"/>
<path fill="none" stroke="transparent" d="M1526.5,-911.24C1550.74,-905.81 1579.83,-895.3 1598.26,-875 1648.68,-819.47 1686.61,-592.24 1699.95,-502.1"/>
<path fill="none" stroke="black" d="M1526.94,-913.19C1551.42,-907.69 1580.51,-897.18 1599.74,-876.34 1650.65,-819.8 1688.58,-592.57 1701.93,-502.39"/>
<polygon fill="black" stroke="black" points="1703.44,-502.46 1701.42,-492.06 1696.51,-501.44 1703.44,-502.46"/>
</g>
<!-- n4_modcall -->
<g id="node50" class="node">
<title>n4_modcall</title>
<polygon fill="white" stroke="black" points="1574.25,-866 1391.25,-866 1391.25,-830 1574.25,-830 1574.25,-866"/>
<text text-anchor="middle" x="1482.75" y="-844.3" font-family="Times,serif" font-size="14.00">singular_template.LIFT</text>
</g>
<!-- n5_condition -->
<g id="node51" class="node">
<title>n5_condition</title>
<polygon fill="white" stroke="black" points="416.03,-850 416.03,-886 505.03,-886 505.03,-850 416.03,-850"/>
<text text-anchor="middle" x="460.53" y="-864.3" font-family="Times,serif" font-size="14.00">StartTime</text>
</g>
<!-- n5_port_0 -->
<g id="node53" class="node">
<title>n5_port_0</title>
<polygon fill="white" stroke="black" points="401.91,-703.67 460.53,-680.57 519.15,-703.67 519.09,-741.04 401.96,-741.04 401.91,-703.67"/>
<text text-anchor="middle" x="460.53" y="-717.8" font-family="Times,serif" font-size="14.00">c</text>
<text text-anchor="middle" x="460.53" y="-702.8" font-family="Times,serif" font-size="14.00">control</text>
</g>
<!-- n5_port_0&#45;&gt;n0_place_2 -->
<g id="edge26" class="edge">
<title>n5_port_0&#45;&gt;n0_place_2</title>
<path fill="none" stroke="black" d="M519.34,-729.03C539.27,-735.63 561.18,-744.53 579.53,-756 630.16,-787.67 677.44,-838.65 705.63,-872.24"/>
<polygon fill="black" stroke="black" points="702.96,-874.5 712.04,-879.96 708.35,-870.03 702.96,-874.5"/>
</g>
<!-- n5_port_2 -->
<g id="node54" class="node">
<title>n5_port_2</title>
<polygon fill="white" stroke="black" points="404.65,-619.67 460.53,-596.57 516.4,-619.67 516.35,-657.04 404.7,-657.04 404.65,-619.67"/>
<text text-anchor="middle" x="460.53" y="-633.8" font-family="Times,serif" font-size="14.00">output</text>
<text text-anchor="middle" x="460.53" y="-618.8" font-family="Times,serif" font-size="14.00">string</text>
</g>
<!-- n5_port_2&#45;&gt;n0_place_3 -->
<g id="edge27" class="edge">
<title>n5_port_2&#45;&gt;n0_place_3</title>
<path fill="none" stroke="black" d="M516.59,-622.72C539.24,-616.95 563.79,-606.59 579.53,-588 625.33,-533.91 560.48,-484.01 607.53,-431 616.73,-420.64 628.66,-413.06 641.49,-407.52"/>
<polygon fill="black" stroke="black" points="642.91,-410.72 650.96,-403.84 640.38,-404.2 642.91,-410.72"/>
</g>
<!-- n5_modcall -->
<g id="node55" class="node">
<title>n5_modcall</title>
<polygon fill="white" stroke="black" points="571.53,-579 349.53,-579 349.53,-543 571.53,-543 571.53,-579"/>
<text text-anchor="middle" x="460.53" y="-557.3" font-family="Times,serif" font-size="14.00">singular_template.StartTime</text>
</g>
</g>
</svg>
